<svg width="20" height="15" viewBox="0 0 20 15" fill="none" xmlns="http://www.w3.org/2000/svg">
<path d="M18.4542 6.51058C18.8851 7.07421 18.8851 7.83512 18.4542 8.39785C17.0969 10.1697 13.8405 13.8178 10.0387 13.8178C6.2369 13.8178 2.98054 10.1697 1.62326 8.39785C1.41361 8.12797 1.2998 7.79596 1.2998 7.45421C1.2998 7.11247 1.41361 6.78046 1.62326 6.51058C2.98054 4.73876 6.2369 1.09058 10.0387 1.09058C13.8405 1.09058 17.0969 4.73876 18.4542 6.51058V6.51058Z" stroke="#A9A9A9" stroke-width="2" stroke-linecap="round" stroke-linejoin="round"/>
<path d="M10.0388 10.1816C11.545 10.1816 12.7661 8.96055 12.7661 7.45432C12.7661 5.94809 11.545 4.72705 10.0388 4.72705C8.53256 4.72705 7.31152 5.94809 7.31152 7.45432C7.31152 8.96055 8.53256 10.1816 10.0388 10.1816Z" stroke="#A9A9A9" stroke-width="2" stroke-linecap="round" stroke-linejoin="round"/>
</svg>
