<svg width="104" height="123" viewBox="0 0 104 123" fill="none" xmlns="http://www.w3.org/2000/svg">
<path d="M1.9312 103.068C3.4312 99.7679 5.2312 95.5179 7.3312 90.3179C9.4312 85.1179 11.6312 79.5179 13.9312 73.5179C16.2312 67.4179 18.5812 61.2179 20.9812 54.9179C23.3812 48.5179 25.6312 42.4679 27.7312 36.7679C29.8312 31.0679 31.6312 25.9679 33.1312 21.4679C34.7312 16.9679 35.8812 13.5179 36.5812 11.1179C30.2812 13.7179 24.8812 17.6679 20.3812 22.9679C15.8812 28.2679 12.4812 34.9179 10.1812 42.9179C7.8812 42.1179 5.7812 40.7179 3.8812 38.7179C1.9812 36.6179 0.7312 34.0179 0.1312 30.9179C1.1312 26.3179 2.9812 22.1179 5.6812 18.3179C8.4812 14.5179 11.9812 11.2679 16.1812 8.56791C20.3812 5.86791 25.2312 3.81791 30.7312 2.41791C36.2312 0.917913 42.1312 0.167914 48.4312 0.167914C56.4312 0.167914 63.7812 1.36791 70.4812 3.76791C77.1812 6.06791 82.9312 9.31791 87.7312 13.5179C92.5312 17.7179 96.2812 22.7679 98.9812 28.6679C101.681 34.5679 103.031 41.1179 103.031 48.3179C103.031 58.1179 101.231 67.4679 97.6312 76.3679C94.0312 85.2679 89.1312 93.1179 82.9312 99.9179C76.8312 106.718 69.7312 112.118 61.6312 116.118C53.5312 120.218 45.0312 122.268 36.1312 122.268C27.9312 122.268 20.8812 120.618 14.9812 117.318C9.1812 114.118 4.8312 109.368 1.9312 103.068ZM54.8812 7.66792C49.8812 7.66792 45.1312 8.36792 40.6312 9.76791C45.0312 11.3679 48.6812 13.0679 51.5812 14.8679C54.4812 16.5679 56.4812 17.9179 57.5812 18.9179C56.7812 20.0179 55.5812 21.9679 53.9812 24.7679C52.4812 27.5679 50.6812 30.9679 48.5812 34.9679C46.5812 38.9679 44.4312 43.3679 42.1312 48.1679C39.8312 52.8679 37.5812 57.7179 35.3812 62.7179C29.6812 75.4179 25.5312 85.4179 22.9312 92.7179C20.4312 100.018 19.1812 105.068 19.1812 107.868C20.5812 108.368 22.2812 108.718 24.2812 108.918C26.2812 109.118 28.4312 109.218 30.7312 109.218C38.8312 109.218 46.4812 107.368 53.6812 103.668C60.9812 99.8679 67.3312 94.8179 72.7312 88.5179C78.2312 82.2179 82.5312 74.9179 85.6312 66.6179C88.8312 58.2179 90.4312 49.4179 90.4312 40.2179C90.4312 29.9179 87.2312 21.9179 80.8312 16.2179C74.4312 10.5179 65.7812 7.66792 54.8812 7.66792Z" fill="#0B2545"/>
</svg>
