<svg width="19" height="17" viewBox="0 0 19 17" fill="none" xmlns="http://www.w3.org/2000/svg">
<path d="M10.6368 11.377C10.2879 11.5674 9.89673 11.6672 9.49921 11.6672C9.10169 11.6672 8.71053 11.5674 8.36158 11.377L0 6.81543V14.0418C0 14.6717 0.250222 15.2757 0.695621 15.7211C1.14102 16.1665 1.74511 16.4168 2.375 16.4168H16.625C17.2549 16.4168 17.859 16.1665 18.3044 15.7211C18.7498 15.2757 19 14.6717 19 14.0418V6.81543L10.6368 11.377Z" fill="url(#paint0_linear_1160_2074)"/>
<path d="M9.5 10.0834C9.36777 10.0833 9.23768 10.0501 9.12158 9.98679L0.41325 5.23679C0.288255 5.16877 0.183905 5.06831 0.111182 4.94599C0.0384592 4.82367 5.12114e-05 4.68401 0 4.54171L0 2.95837C0 2.32848 0.250222 1.72439 0.695621 1.279C1.14102 0.833597 1.74511 0.583374 2.375 0.583374H16.625C17.2549 0.583374 17.859 0.833597 18.3044 1.279C18.7498 1.72439 19 2.32848 19 2.95837V4.54171C18.9999 4.68401 18.9615 4.82367 18.8888 4.94599C18.8161 5.06831 18.7117 5.16877 18.5868 5.23679L9.87842 9.98679C9.76232 10.0501 9.63223 10.0833 9.5 10.0834Z" fill="url(#paint1_linear_1160_2074)"/>
<defs>
<linearGradient id="paint0_linear_1160_2074" x1="3.72053" y1="2.65963" x2="15.9317" y2="11.5159" gradientUnits="userSpaceOnUse">
<stop offset="0.0195289" stop-color="#B91DFF"/>
<stop offset="1" stop-color="#2E3DFF"/>
</linearGradient>
<linearGradient id="paint1_linear_1160_2074" x1="3.72053" y1="-3.52857" x2="15.842" y2="5.35653" gradientUnits="userSpaceOnUse">
<stop offset="0.0195289" stop-color="#B91DFF"/>
<stop offset="1" stop-color="#2E3DFF"/>
</linearGradient>
</defs>
</svg>
