<svg width="50" height="54" viewBox="0 0 50 54" fill="none" xmlns="http://www.w3.org/2000/svg">
<path d="M1.48634 13.4384C1.24675 9.75456 0.947752 7.76698 0.857669 6.45981C0.790586 5.47848 0.901752 4.41665 2.2185 4.17706C3.36467 4.03331 3.91284 5.04148 3.95692 5.44206C3.95117 5.05873 3.95692 4.13873 3.95692 3.89915C3.95692 3.49665 3.97225 2.02656 5.60525 2.02656C6.75525 2.02656 7.16925 3.15356 7.13859 3.68256C7.15775 3.48706 7.18267 2.89098 7.20567 2.32748C7.24209 1.49565 7.68867 0.42998 9.01884 0.454897C10.1631 0.531563 10.5388 1.62981 10.4851 2.32748L10.2608 5.9059C10.3068 5.54556 10.4563 4.63131 10.7918 3.33756C11.1272 2.04381 12.1373 1.95756 12.626 2.02848C13.2508 2.11665 14.3127 2.71848 13.8699 4.4684C13.3428 6.68406 12.9844 9.53606 12.8598 10.7646C13.4808 10.5097 14.0903 9.97498 14.7784 9.25623C15.4684 8.53748 16.4785 8.52215 17.0478 8.94956C17.6994 9.50923 18.0483 10.803 17.2778 11.5735C16.3903 12.3881 13.1953 16.1831 11.6083 18.0806C11.1693 18.6383 9.69734 19.7576 7.32642 19.7576C3.104 19.5775 1.68759 16.5434 1.48634 13.4384Z" fill="url(#paint0_radial_1074_502)"/>
<path d="M1.48634 13.4384C1.24675 9.75456 0.947752 7.76698 0.857669 6.45981C0.790586 5.47848 0.901752 4.41665 2.2185 4.17706C3.36467 4.03331 3.91284 5.04148 3.95692 5.44206C3.95117 5.05873 3.95692 4.13873 3.95692 3.89915C3.95692 3.49665 3.97225 2.02656 5.60525 2.02656C6.75525 2.02656 7.16925 3.15356 7.13859 3.68256C7.15775 3.48706 7.18267 2.89098 7.20567 2.32748C7.24209 1.49565 7.68867 0.42998 9.01884 0.454897C10.1631 0.531563 10.5388 1.62981 10.4851 2.32748L10.2608 5.9059C10.3068 5.54556 10.4563 4.63131 10.7918 3.33756C11.1272 2.04381 12.1373 1.95756 12.626 2.02848C13.2508 2.11665 14.3127 2.71848 13.8699 4.4684C13.3428 6.68406 12.9844 9.53606 12.8598 10.7646C13.4808 10.5097 14.0903 9.97498 14.7784 9.25623C15.4684 8.53748 16.4785 8.52215 17.0478 8.94956C17.6994 9.50923 18.0483 10.803 17.2778 11.5735C16.3903 12.3881 13.1953 16.1831 11.6083 18.0806C11.1693 18.6383 9.69734 19.7576 7.32642 19.7576C3.104 19.5775 1.68759 16.5434 1.48634 13.4384Z" fill="url(#paint1_radial_1074_502)"/>
<path d="M1.48634 13.4384C1.24675 9.75456 0.947752 7.76698 0.857669 6.45981C0.790586 5.47848 0.901752 4.41665 2.2185 4.17706C3.36467 4.03331 3.91284 5.04148 3.95692 5.44206C3.95117 5.05873 3.95692 4.13873 3.95692 3.89915C3.95692 3.49665 3.97225 2.02656 5.60525 2.02656C6.75525 2.02656 7.16925 3.15356 7.13859 3.68256C7.15775 3.48706 7.18267 2.89098 7.20567 2.32748C7.24209 1.49565 7.68867 0.42998 9.01884 0.454897C10.1631 0.531563 10.5388 1.62981 10.4851 2.32748L10.2608 5.9059C10.3068 5.54556 10.4563 4.63131 10.7918 3.33756C11.1272 2.04381 12.1373 1.95756 12.626 2.02848C13.2508 2.11665 14.3127 2.71848 13.8699 4.4684C13.3428 6.68406 12.9844 9.53606 12.8598 10.7646C13.4808 10.5097 14.0903 9.97498 14.7784 9.25623C15.4684 8.53748 16.4785 8.52215 17.0478 8.94956C17.6994 9.50923 18.0483 10.803 17.2778 11.5735C16.3903 12.3881 13.1953 16.1831 11.6083 18.0806C11.1693 18.6383 9.69734 19.7576 7.32642 19.7576C3.104 19.5775 1.68759 16.5434 1.48634 13.4384Z" fill="url(#paint2_linear_1074_502)"/>
<path d="M1.48634 13.4384C1.24675 9.75456 0.947752 7.76698 0.857669 6.45981C0.790586 5.47848 0.901752 4.41665 2.2185 4.17706C3.36467 4.03331 3.91284 5.04148 3.95692 5.44206C3.95117 5.05873 3.95692 4.13873 3.95692 3.89915C3.95692 3.49665 3.97225 2.02656 5.60525 2.02656C6.75525 2.02656 7.16925 3.15356 7.13859 3.68256C7.15775 3.48706 7.18267 2.89098 7.20567 2.32748C7.24209 1.49565 7.68867 0.42998 9.01884 0.454897C10.1631 0.531563 10.5388 1.62981 10.4851 2.32748L10.2608 5.9059C10.3068 5.54556 10.4563 4.63131 10.7918 3.33756C11.1272 2.04381 12.1373 1.95756 12.626 2.02848C13.2508 2.11665 14.3127 2.71848 13.8699 4.4684C13.3428 6.68406 12.9844 9.53606 12.8598 10.7646C13.4808 10.5097 14.0903 9.97498 14.7784 9.25623C15.4684 8.53748 16.4785 8.52215 17.0478 8.94956C17.6994 9.50923 18.0483 10.803 17.2778 11.5735C16.3903 12.3881 13.1953 16.1831 11.6083 18.0806C11.1693 18.6383 9.69734 19.7576 7.32642 19.7576C3.104 19.5775 1.68759 16.5434 1.48634 13.4384Z" fill="url(#paint3_radial_1074_502)"/>
<path d="M1.48634 13.4384C1.24675 9.75456 0.947752 7.76698 0.857669 6.45981C0.790586 5.47848 0.901752 4.41665 2.2185 4.17706C3.36467 4.03331 3.91284 5.04148 3.95692 5.44206C3.95117 5.05873 3.95692 4.13873 3.95692 3.89915C3.95692 3.49665 3.97225 2.02656 5.60525 2.02656C6.75525 2.02656 7.16925 3.15356 7.13859 3.68256C7.15775 3.48706 7.18267 2.89098 7.20567 2.32748C7.24209 1.49565 7.68867 0.42998 9.01884 0.454897C10.1631 0.531563 10.5388 1.62981 10.4851 2.32748L10.2608 5.9059C10.3068 5.54556 10.4563 4.63131 10.7918 3.33756C11.1272 2.04381 12.1373 1.95756 12.626 2.02848C13.2508 2.11665 14.3127 2.71848 13.8699 4.4684C13.3428 6.68406 12.9844 9.53606 12.8598 10.7646C13.4808 10.5097 14.0903 9.97498 14.7784 9.25623C15.4684 8.53748 16.4785 8.52215 17.0478 8.94956C17.6994 9.50923 18.0483 10.803 17.2778 11.5735C16.3903 12.3881 13.1953 16.1831 11.6083 18.0806C11.1693 18.6383 9.69734 19.7576 7.32642 19.7576C3.104 19.5775 1.68759 16.5434 1.48634 13.4384Z" fill="url(#paint4_radial_1074_502)"/>
<path d="M1.48634 13.4384C1.24675 9.75456 0.947752 7.76698 0.857669 6.45981C0.790586 5.47848 0.901752 4.41665 2.2185 4.17706C3.36467 4.03331 3.91284 5.04148 3.95692 5.44206C3.95117 5.05873 3.95692 4.13873 3.95692 3.89915C3.95692 3.49665 3.97225 2.02656 5.60525 2.02656C6.75525 2.02656 7.16925 3.15356 7.13859 3.68256C7.15775 3.48706 7.18267 2.89098 7.20567 2.32748C7.24209 1.49565 7.68867 0.42998 9.01884 0.454897C10.1631 0.531563 10.5388 1.62981 10.4851 2.32748L10.2608 5.9059C10.3068 5.54556 10.4563 4.63131 10.7918 3.33756C11.1272 2.04381 12.1373 1.95756 12.626 2.02848C13.2508 2.11665 14.3127 2.71848 13.8699 4.4684C13.3428 6.68406 12.9844 9.53606 12.8598 10.7646C13.4808 10.5097 14.0903 9.97498 14.7784 9.25623C15.4684 8.53748 16.4785 8.52215 17.0478 8.94956C17.6994 9.50923 18.0483 10.803 17.2778 11.5735C16.3903 12.3881 13.1953 16.1831 11.6083 18.0806C11.1693 18.6383 9.69734 19.7576 7.32642 19.7576C3.104 19.5775 1.68759 16.5434 1.48634 13.4384Z" fill="url(#paint5_radial_1074_502)"/>
<path d="M1.48634 13.4384C1.24675 9.75456 0.947752 7.76698 0.857669 6.45981C0.790586 5.47848 0.901752 4.41665 2.2185 4.17706C3.36467 4.03331 3.91284 5.04148 3.95692 5.44206C3.95117 5.05873 3.95692 4.13873 3.95692 3.89915C3.95692 3.49665 3.97225 2.02656 5.60525 2.02656C6.75525 2.02656 7.16925 3.15356 7.13859 3.68256C7.15775 3.48706 7.18267 2.89098 7.20567 2.32748C7.24209 1.49565 7.68867 0.42998 9.01884 0.454897C10.1631 0.531563 10.5388 1.62981 10.4851 2.32748L10.2608 5.9059C10.3068 5.54556 10.4563 4.63131 10.7918 3.33756C11.1272 2.04381 12.1373 1.95756 12.626 2.02848C13.2508 2.11665 14.3127 2.71848 13.8699 4.4684C13.3428 6.68406 12.9844 9.53606 12.8598 10.7646C13.4808 10.5097 14.0903 9.97498 14.7784 9.25623C15.4684 8.53748 16.4785 8.52215 17.0478 8.94956C17.6994 9.50923 18.0483 10.803 17.2778 11.5735C16.3903 12.3881 13.1953 16.1831 11.6083 18.0806C11.1693 18.6383 9.69734 19.7576 7.32642 19.7576C3.104 19.5775 1.68759 16.5434 1.48634 13.4384Z" fill="url(#paint6_radial_1074_502)"/>
<path d="M1.48634 13.4384C1.24675 9.75456 0.947752 7.76698 0.857669 6.45981C0.790586 5.47848 0.901752 4.41665 2.2185 4.17706C3.36467 4.03331 3.91284 5.04148 3.95692 5.44206C3.95117 5.05873 3.95692 4.13873 3.95692 3.89915C3.95692 3.49665 3.97225 2.02656 5.60525 2.02656C6.75525 2.02656 7.16925 3.15356 7.13859 3.68256C7.15775 3.48706 7.18267 2.89098 7.20567 2.32748C7.24209 1.49565 7.68867 0.42998 9.01884 0.454897C10.1631 0.531563 10.5388 1.62981 10.4851 2.32748L10.2608 5.9059C10.3068 5.54556 10.4563 4.63131 10.7918 3.33756C11.1272 2.04381 12.1373 1.95756 12.626 2.02848C13.2508 2.11665 14.3127 2.71848 13.8699 4.4684C13.3428 6.68406 12.9844 9.53606 12.8598 10.7646C13.4808 10.5097 14.0903 9.97498 14.7784 9.25623C15.4684 8.53748 16.4785 8.52215 17.0478 8.94956C17.6994 9.50923 18.0483 10.803 17.2778 11.5735C16.3903 12.3881 13.1953 16.1831 11.6083 18.0806C11.1693 18.6383 9.69734 19.7576 7.32642 19.7576C3.104 19.5775 1.68759 16.5434 1.48634 13.4384Z" fill="url(#paint7_radial_1074_502)"/>
<path d="M1.48634 13.4384C1.24675 9.75456 0.947752 7.76698 0.857669 6.45981C0.790586 5.47848 0.901752 4.41665 2.2185 4.17706C3.36467 4.03331 3.91284 5.04148 3.95692 5.44206C3.95117 5.05873 3.95692 4.13873 3.95692 3.89915C3.95692 3.49665 3.97225 2.02656 5.60525 2.02656C6.75525 2.02656 7.16925 3.15356 7.13859 3.68256C7.15775 3.48706 7.18267 2.89098 7.20567 2.32748C7.24209 1.49565 7.68867 0.42998 9.01884 0.454897C10.1631 0.531563 10.5388 1.62981 10.4851 2.32748L10.2608 5.9059C10.3068 5.54556 10.4563 4.63131 10.7918 3.33756C11.1272 2.04381 12.1373 1.95756 12.626 2.02848C13.2508 2.11665 14.3127 2.71848 13.8699 4.4684C13.3428 6.68406 12.9844 9.53606 12.8598 10.7646C13.4808 10.5097 14.0903 9.97498 14.7784 9.25623C15.4684 8.53748 16.4785 8.52215 17.0478 8.94956C17.6994 9.50923 18.0483 10.803 17.2778 11.5735C16.3903 12.3881 13.1953 16.1831 11.6083 18.0806C11.1693 18.6383 9.69734 19.7576 7.32642 19.7576C3.104 19.5775 1.68759 16.5434 1.48634 13.4384Z" fill="url(#paint8_radial_1074_502)"/>
<path d="M1.48634 13.4384C1.24675 9.75456 0.947752 7.76698 0.857669 6.45981C0.790586 5.47848 0.901752 4.41665 2.2185 4.17706C3.36467 4.03331 3.91284 5.04148 3.95692 5.44206C3.95117 5.05873 3.95692 4.13873 3.95692 3.89915C3.95692 3.49665 3.97225 2.02656 5.60525 2.02656C6.75525 2.02656 7.16925 3.15356 7.13859 3.68256C7.15775 3.48706 7.18267 2.89098 7.20567 2.32748C7.24209 1.49565 7.68867 0.42998 9.01884 0.454897C10.1631 0.531563 10.5388 1.62981 10.4851 2.32748L10.2608 5.9059C10.3068 5.54556 10.4563 4.63131 10.7918 3.33756C11.1272 2.04381 12.1373 1.95756 12.626 2.02848C13.2508 2.11665 14.3127 2.71848 13.8699 4.4684C13.3428 6.68406 12.9844 9.53606 12.8598 10.7646C13.4808 10.5097 14.0903 9.97498 14.7784 9.25623C15.4684 8.53748 16.4785 8.52215 17.0478 8.94956C17.6994 9.50923 18.0483 10.803 17.2778 11.5735C16.3903 12.3881 13.1953 16.1831 11.6083 18.0806C11.1693 18.6383 9.69734 19.7576 7.32642 19.7576C3.104 19.5775 1.68759 16.5434 1.48634 13.4384Z" fill="url(#paint9_radial_1074_502)"/>
<path d="M1.48634 13.4384C1.24675 9.75456 0.947752 7.76698 0.857669 6.45981C0.790586 5.47848 0.901752 4.41665 2.2185 4.17706C3.36467 4.03331 3.91284 5.04148 3.95692 5.44206C3.95117 5.05873 3.95692 4.13873 3.95692 3.89915C3.95692 3.49665 3.97225 2.02656 5.60525 2.02656C6.75525 2.02656 7.16925 3.15356 7.13859 3.68256C7.15775 3.48706 7.18267 2.89098 7.20567 2.32748C7.24209 1.49565 7.68867 0.42998 9.01884 0.454897C10.1631 0.531563 10.5388 1.62981 10.4851 2.32748L10.2608 5.9059C10.3068 5.54556 10.4563 4.63131 10.7918 3.33756C11.1272 2.04381 12.1373 1.95756 12.626 2.02848C13.2508 2.11665 14.3127 2.71848 13.8699 4.4684C13.3428 6.68406 12.9844 9.53606 12.8598 10.7646C13.4808 10.5097 14.0903 9.97498 14.7784 9.25623C15.4684 8.53748 16.4785 8.52215 17.0478 8.94956C17.6994 9.50923 18.0483 10.803 17.2778 11.5735C16.3903 12.3881 13.1953 16.1831 11.6083 18.0806C11.1693 18.6383 9.69734 19.7576 7.32642 19.7576C3.104 19.5775 1.68759 16.5434 1.48634 13.4384Z" fill="url(#paint10_radial_1074_502)"/>
<path d="M1.48634 13.4384C1.24675 9.75456 0.947752 7.76698 0.857669 6.45981C0.790586 5.47848 0.901752 4.41665 2.2185 4.17706C3.36467 4.03331 3.91284 5.04148 3.95692 5.44206C3.95117 5.05873 3.95692 4.13873 3.95692 3.89915C3.95692 3.49665 3.97225 2.02656 5.60525 2.02656C6.75525 2.02656 7.16925 3.15356 7.13859 3.68256C7.15775 3.48706 7.18267 2.89098 7.20567 2.32748C7.24209 1.49565 7.68867 0.42998 9.01884 0.454897C10.1631 0.531563 10.5388 1.62981 10.4851 2.32748L10.2608 5.9059C10.3068 5.54556 10.4563 4.63131 10.7918 3.33756C11.1272 2.04381 12.1373 1.95756 12.626 2.02848C13.2508 2.11665 14.3127 2.71848 13.8699 4.4684C13.3428 6.68406 12.9844 9.53606 12.8598 10.7646C13.4808 10.5097 14.0903 9.97498 14.7784 9.25623C15.4684 8.53748 16.4785 8.52215 17.0478 8.94956C17.6994 9.50923 18.0483 10.803 17.2778 11.5735C16.3903 12.3881 13.1953 16.1831 11.6083 18.0806C11.1693 18.6383 9.69734 19.7576 7.32642 19.7576C3.104 19.5775 1.68759 16.5434 1.48634 13.4384Z" fill="url(#paint11_linear_1074_502)"/>
<path d="M3.53711 19.0523C3.53711 18.8414 3.70961 18.6689 3.92044 18.6689H11.2268C11.4376 18.6689 11.6101 18.8414 11.6101 19.0523V22.3374H3.54094V19.0523H3.53711Z" fill="url(#paint12_linear_1074_502)"/>
<path d="M3.53711 19.0523C3.53711 18.8414 3.70961 18.6689 3.92044 18.6689H11.2268C11.4376 18.6689 11.6101 18.8414 11.6101 19.0523V22.3374H3.54094V19.0523H3.53711Z" fill="url(#paint13_linear_1074_502)"/>
<path d="M33.585 35.9649H35.4499C40.2415 35.9649 49.8249 42.6733 49.8249 53.2149H15.3249V46.5066C15.3272 46.2498 15.2524 45.9982 15.1103 45.7843C14.9682 45.5705 14.7652 45.4041 14.5275 45.3068L8.61654 42.6733C3.82487 40.7566 1.9082 35.9649 1.9082 32.7104V22.577C1.9082 21.496 2.72279 20.6316 3.70029 20.6316H11.6161C12.6128 20.6316 13.4082 21.5152 13.4082 22.577V30.2149C13.4082 32.7104 15.3249 33.0899 15.3249 33.0899L26.8249 35.9649H33.585Z" fill="#FF611D"/>
<path d="M33.585 35.9649H35.4499C40.2415 35.9649 49.8249 42.6733 49.8249 53.2149H15.3249V46.5066C15.3272 46.2498 15.2524 45.9982 15.1103 45.7843C14.9682 45.5705 14.7652 45.4041 14.5275 45.3068L8.61654 42.6733C3.82487 40.7566 1.9082 35.9649 1.9082 32.7104V22.577C1.9082 21.496 2.72279 20.6316 3.70029 20.6316H11.6161C12.6128 20.6316 13.4082 21.5152 13.4082 22.577V30.2149C13.4082 32.7104 15.3249 33.0899 15.3249 33.0899L26.8249 35.9649H33.585Z" fill="url(#paint14_radial_1074_502)"/>
<path d="M33.585 35.9649H35.4499C40.2415 35.9649 49.8249 42.6733 49.8249 53.2149H15.3249V46.5066C15.3272 46.2498 15.2524 45.9982 15.1103 45.7843C14.9682 45.5705 14.7652 45.4041 14.5275 45.3068L8.61654 42.6733C3.82487 40.7566 1.9082 35.9649 1.9082 32.7104V22.577C1.9082 21.496 2.72279 20.6316 3.70029 20.6316H11.6161C12.6128 20.6316 13.4082 21.5152 13.4082 22.577V30.2149C13.4082 32.7104 15.3249 33.0899 15.3249 33.0899L26.8249 35.9649H33.585Z" fill="url(#paint15_radial_1074_502)"/>
<path d="M30.386 36.1738L15.2942 46.2268C15.2523 46.022 15.1604 45.8308 15.0266 45.6703C14.8929 45.5097 14.7214 45.3849 14.5275 45.3068L8.61654 42.6733C3.82487 40.7566 1.9082 35.9649 1.9082 32.7104V22.577C1.9082 21.496 2.72279 20.6316 3.70029 20.6316H11.6161C12.6128 20.6316 13.4082 21.5152 13.4082 22.577V30.2149C13.4082 32.7104 15.3249 33.0899 15.3249 33.0899L26.8249 35.9649L30.386 36.1758V36.1738Z" fill="url(#paint16_linear_1074_502)"/>
<path d="M30.386 36.1738L15.2942 46.2268C15.2523 46.022 15.1604 45.8308 15.0266 45.6703C14.8929 45.5097 14.7214 45.3849 14.5275 45.3068L8.61654 42.6733C3.82487 40.7566 1.9082 35.9649 1.9082 32.7104V22.577C1.9082 21.496 2.72279 20.6316 3.70029 20.6316H11.6161C12.6128 20.6316 13.4082 21.5152 13.4082 22.577V30.2149C13.4082 32.7104 15.3249 33.0899 15.3249 33.0899L26.8249 35.9649L30.386 36.1758V36.1738Z" fill="url(#paint17_radial_1074_502)"/>
<path d="M30.386 36.1738L15.2942 46.2268C15.2523 46.022 15.1604 45.8308 15.0266 45.6703C14.8929 45.5097 14.7214 45.3849 14.5275 45.3068L8.61654 42.6733C3.82487 40.7566 1.9082 35.9649 1.9082 32.7104V22.577C1.9082 21.496 2.72279 20.6316 3.70029 20.6316H11.6161C12.6128 20.6316 13.4082 21.5152 13.4082 22.577V30.2149C13.4082 32.7104 15.3249 33.0899 15.3249 33.0899L26.8249 35.9649L30.386 36.1758V36.1738Z" fill="url(#paint18_radial_1074_502)"/>
<path d="M30.386 36.1738L15.2942 46.2268C15.2523 46.022 15.1604 45.8308 15.0266 45.6703C14.8929 45.5097 14.7214 45.3849 14.5275 45.3068L8.61654 42.6733C3.82487 40.7566 1.9082 35.9649 1.9082 32.7104V22.577C1.9082 21.496 2.72279 20.6316 3.70029 20.6316H11.6161C12.6128 20.6316 13.4082 21.5152 13.4082 22.577V30.2149C13.4082 32.7104 15.3249 33.0899 15.3249 33.0899L26.8249 35.9649L30.386 36.1758V36.1738Z" fill="url(#paint19_linear_1074_502)"/>
<path d="M31.6165 41.715C29.1862 41.715 27.2158 39.8251 27.2158 37.4964V32.5131C27.2158 30.1862 29.1862 28.2964 31.6165 28.2964C34.0468 28.2964 36.0172 30.1862 36.0172 32.5131V37.4964C36.0172 39.8251 34.0468 41.7131 31.6165 41.7131V41.715Z" fill="url(#paint20_linear_1074_502)"/>
<path d="M31.6165 41.715C29.1862 41.715 27.2158 39.8251 27.2158 37.4964V32.5131C27.2158 30.1862 29.1862 28.2964 31.6165 28.2964C34.0468 28.2964 36.0172 30.1862 36.0172 32.5131V37.4964C36.0172 39.8251 34.0468 41.7131 31.6165 41.7131V41.715Z" fill="url(#paint21_radial_1074_502)"/>
<g filter="url(#filter0_f_1074_502)">
<path d="M9.27148 21.889V33.4197C9.27127 34.2287 9.52702 35.0171 10.0021 35.6719C10.4772 36.3267 11.1473 36.8144 11.9165 37.0652L19.9339 39.6776" stroke="url(#paint22_linear_1074_502)"/>
</g>
<g filter="url(#filter1_f_1074_502)">
<path d="M3.97266 5.74683L4.25632 9.47474" stroke="url(#paint23_linear_1074_502)" stroke-width="0.075" stroke-linecap="round"/>
</g>
<g filter="url(#filter2_f_1074_502)">
<path d="M7.08729 4.92261L6.95312 9.32327" stroke="url(#paint24_linear_1074_502)" stroke-width="0.075" stroke-linecap="round"/>
</g>
<g filter="url(#filter3_f_1074_502)">
<path d="M10.2297 6.07458L9.78125 8.77134" stroke="url(#paint25_linear_1074_502)" stroke-width="0.075" stroke-linecap="round"/>
</g>
<g filter="url(#filter4_f_1074_502)">
<path d="M2.67871 5.05493L3.36871 10.1015" stroke="url(#paint26_linear_1074_502)" stroke-width="0.4"/>
</g>
<g filter="url(#filter5_f_1074_502)">
<path d="M5.91406 3.22253V9.14312" stroke="url(#paint27_linear_1074_502)" stroke-width="0.4"/>
</g>
<g filter="url(#filter6_f_1074_502)">
<path d="M9.43282 1.47644L8.87891 9.03577" stroke="url(#paint28_linear_1074_502)" stroke-width="0.4"/>
</g>
<g filter="url(#filter7_f_1074_502)">
<path d="M13.1169 3.48328L11.5605 10.0114" stroke="url(#paint29_linear_1074_502)" stroke-width="0.4"/>
</g>
<g filter="url(#filter8_f_1074_502)">
<path d="M2.66504 11.0886C2.87587 10.9698 3.84762 10.3641 4.22137 9.6377" stroke="url(#paint30_linear_1074_502)" stroke-width="0.2" stroke-linecap="round"/>
</g>
<g filter="url(#filter9_f_1074_502)">
<path d="M6.81803 9.23901C6.56886 9.55526 6.1817 9.81401 5.8252 10.0057" stroke="url(#paint31_linear_1074_502)" stroke-width="0.2" stroke-linecap="round"/>
</g>
<g filter="url(#filter10_f_1074_502)">
<path d="M9.61658 8.87097C9.3655 9.18722 8.65442 9.56097 8.25 9.68172" stroke="url(#paint32_linear_1074_502)" stroke-width="0.2" stroke-linecap="round"/>
</g>
<path d="M42.695 25.8833C43.437 25.8589 44.155 25.614 44.7573 25.1799V27.3017C44.7626 28.2852 44.4748 29.2479 43.9307 30.0672C43.3865 30.8865 42.6107 31.5251 41.7021 31.9017C42.0893 31.0775 42.3557 30.1767 42.488 29.2145L42.695 25.8833Z" fill="url(#paint33_radial_1074_502)"/>
<path d="M20.536 25.8833C19.7946 25.8585 19.0774 25.6137 18.4756 25.1799V27.3017C18.4756 29.3372 19.6888 31.1503 21.5308 31.9017C21.1343 31.0508 20.8687 30.1448 20.743 29.2145L20.536 25.8833Z" fill="url(#paint34_radial_1074_502)"/>
<g filter="url(#filter11_ii_1074_502)">
<path d="M20.6186 29.3353C20.9006 31.484 21.955 33.4566 23.5847 34.885C25.2145 36.3134 27.3084 37.0999 29.4755 37.0978H33.7746C35.9417 37.0999 38.0356 36.3134 39.6654 34.885C41.2951 33.4566 42.3494 31.484 42.6315 29.3353C42.8998 25.042 43.1701 20.7678 43.3694 16.4764C43.3606 15.634 43.0303 14.8269 42.4459 14.2201C41.8616 13.6134 41.0675 13.2528 40.2261 13.2123H37.0368C35.9684 13.2107 34.9234 12.8991 34.0286 12.3153C33.1339 11.7315 32.4277 10.9005 31.9959 9.92329C31.8838 9.64262 31.6903 9.40192 31.4403 9.23216C31.1903 9.06239 30.8951 8.97134 30.5929 8.9707H27.693C23.4859 8.9707 20.0762 12.4188 20.0762 16.6719C20.0762 20.9135 20.3426 25.086 20.6205 29.3353H20.6186Z" fill="url(#paint35_radial_1074_502)"/>
</g>
<path d="M20.6186 29.3353C20.9006 31.484 21.955 33.4566 23.5847 34.885C25.2145 36.3134 27.3084 37.0999 29.4755 37.0978H33.7746C35.9417 37.0999 38.0356 36.3134 39.6654 34.885C41.2951 33.4566 42.3494 31.484 42.6315 29.3353C42.8998 25.042 43.1701 20.7678 43.3694 16.4764C43.3606 15.634 43.0303 14.8269 42.4459 14.2201C41.8616 13.6134 41.0675 13.2528 40.2261 13.2123H37.0368C35.9684 13.2107 34.9234 12.8991 34.0286 12.3153C33.1339 11.7315 32.4277 10.9005 31.9959 9.92329C31.8838 9.64262 31.6903 9.40192 31.4403 9.23216C31.1903 9.06239 30.8951 8.97134 30.5929 8.9707H27.693C23.4859 8.9707 20.0762 12.4188 20.0762 16.6719C20.0762 20.9135 20.3426 25.086 20.6205 29.3353H20.6186Z" fill="url(#paint36_linear_1074_502)"/>
<path d="M20.6186 29.3353C20.9006 31.484 21.955 33.4566 23.5847 34.885C25.2145 36.3134 27.3084 37.0999 29.4755 37.0978H33.7746C35.9417 37.0999 38.0356 36.3134 39.6654 34.885C41.2951 33.4566 42.3494 31.484 42.6315 29.3353C42.8998 25.042 43.1701 20.7678 43.3694 16.4764C43.3606 15.634 43.0303 14.8269 42.4459 14.2201C41.8616 13.6134 41.0675 13.2528 40.2261 13.2123H37.0368C35.9684 13.2107 34.9234 12.8991 34.0286 12.3153C33.1339 11.7315 32.4277 10.9005 31.9959 9.92329C31.8838 9.64262 31.6903 9.40192 31.4403 9.23216C31.1903 9.06239 30.8951 8.97134 30.5929 8.9707H27.693C23.4859 8.9707 20.0762 12.4188 20.0762 16.6719C20.0762 20.9135 20.3426 25.086 20.6205 29.3353H20.6186Z" fill="url(#paint37_radial_1074_502)"/>
<path d="M20.6186 29.3353C20.9006 31.484 21.955 33.4566 23.5847 34.885C25.2145 36.3134 27.3084 37.0999 29.4755 37.0978H33.7746C35.9417 37.0999 38.0356 36.3134 39.6654 34.885C41.2951 33.4566 42.3494 31.484 42.6315 29.3353C42.8998 25.042 43.1701 20.7678 43.3694 16.4764C43.3606 15.634 43.0303 14.8269 42.4459 14.2201C41.8616 13.6134 41.0675 13.2528 40.2261 13.2123H37.0368C35.9684 13.2107 34.9234 12.8991 34.0286 12.3153C33.1339 11.7315 32.4277 10.9005 31.9959 9.92329C31.8838 9.64262 31.6903 9.40192 31.4403 9.23216C31.1903 9.06239 30.8951 8.97134 30.5929 8.9707H27.693C23.4859 8.9707 20.0762 12.4188 20.0762 16.6719C20.0762 20.9135 20.3426 25.086 20.6205 29.3353H20.6186Z" fill="url(#paint38_radial_1074_502)"/>
<path d="M20.6186 29.3353C20.9006 31.484 21.955 33.4566 23.5847 34.885C25.2145 36.3134 27.3084 37.0999 29.4755 37.0978H33.7746C35.9417 37.0999 38.0356 36.3134 39.6654 34.885C41.2951 33.4566 42.3494 31.484 42.6315 29.3353C42.8998 25.042 43.1701 20.7678 43.3694 16.4764C43.3606 15.634 43.0303 14.8269 42.4459 14.2201C41.8616 13.6134 41.0675 13.2528 40.2261 13.2123H37.0368C35.9684 13.2107 34.9234 12.8991 34.0286 12.3153C33.1339 11.7315 32.4277 10.9005 31.9959 9.92329C31.8838 9.64262 31.6903 9.40192 31.4403 9.23216C31.1903 9.06239 30.8951 8.97134 30.5929 8.9707H27.693C23.4859 8.9707 20.0762 12.4188 20.0762 16.6719C20.0762 20.9135 20.3426 25.086 20.6205 29.3353H20.6186Z" fill="url(#paint39_radial_1074_502)"/>
<path d="M20.6186 29.3353C20.9006 31.484 21.955 33.4566 23.5847 34.885C25.2145 36.3134 27.3084 37.0999 29.4755 37.0978H33.7746C35.9417 37.0999 38.0356 36.3134 39.6654 34.885C41.2951 33.4566 42.3494 31.484 42.6315 29.3353C42.8998 25.042 43.1701 20.7678 43.3694 16.4764C43.3606 15.634 43.0303 14.8269 42.4459 14.2201C41.8616 13.6134 41.0675 13.2528 40.2261 13.2123H37.0368C35.9684 13.2107 34.9234 12.8991 34.0286 12.3153C33.1339 11.7315 32.4277 10.9005 31.9959 9.92329C31.8838 9.64262 31.6903 9.40192 31.4403 9.23216C31.1903 9.06239 30.8951 8.97134 30.5929 8.9707H27.693C23.4859 8.9707 20.0762 12.4188 20.0762 16.6719C20.0762 20.9135 20.3426 25.086 20.6205 29.3353H20.6186Z" fill="url(#paint40_radial_1074_502)"/>
<path d="M20.6186 29.3353C20.9006 31.484 21.955 33.4566 23.5847 34.885C25.2145 36.3134 27.3084 37.0999 29.4755 37.0978H33.7746C35.9417 37.0999 38.0356 36.3134 39.6654 34.885C41.2951 33.4566 42.3494 31.484 42.6315 29.3353C42.8998 25.042 43.1701 20.7678 43.3694 16.4764C43.3606 15.634 43.0303 14.8269 42.4459 14.2201C41.8616 13.6134 41.0675 13.2528 40.2261 13.2123H37.0368C35.9684 13.2107 34.9234 12.8991 34.0286 12.3153C33.1339 11.7315 32.4277 10.9005 31.9959 9.92329C31.8838 9.64262 31.6903 9.40192 31.4403 9.23216C31.1903 9.06239 30.8951 8.97134 30.5929 8.9707H27.693C23.4859 8.9707 20.0762 12.4188 20.0762 16.6719C20.0762 20.9135 20.3426 25.086 20.6205 29.3353H20.6186Z" fill="url(#paint41_radial_1074_502)"/>
<path d="M20.6186 29.3353C20.9006 31.484 21.955 33.4566 23.5847 34.885C25.2145 36.3134 27.3084 37.0999 29.4755 37.0978H33.7746C35.9417 37.0999 38.0356 36.3134 39.6654 34.885C41.2951 33.4566 42.3494 31.484 42.6315 29.3353C42.8998 25.042 43.1701 20.7678 43.3694 16.4764C43.3606 15.634 43.0303 14.8269 42.4459 14.2201C41.8616 13.6134 41.0675 13.2528 40.2261 13.2123H37.0368C35.9684 13.2107 34.9234 12.8991 34.0286 12.3153C33.1339 11.7315 32.4277 10.9005 31.9959 9.92329C31.8838 9.64262 31.6903 9.40192 31.4403 9.23216C31.1903 9.06239 30.8951 8.97134 30.5929 8.9707H27.693C23.4859 8.9707 20.0762 12.4188 20.0762 16.6719C20.0762 20.9135 20.3426 25.086 20.6205 29.3353H20.6186Z" fill="url(#paint42_radial_1074_502)"/>
<g filter="url(#filter12_f_1074_502)">
<path d="M30.6999 21.8391L29.3544 26.0308C29.1244 26.8933 29.6764 27.7539 30.4584 27.7539H32.1259C32.9079 27.7539 33.4599 26.878 33.2299 26.0289L32.1029 21.841C31.8614 20.9133 30.9529 20.9133 30.7018 21.841L30.6999 21.8391Z" fill="#D69790"/>
</g>
<g filter="url(#filter13_f_1074_502)">
<path d="M30.7446 21.406L29.5332 25.5958C29.286 26.4583 29.8782 27.3208 30.7216 27.3208H32.5117C33.3531 27.3208 33.9473 26.4449 33.7001 25.5958L32.4887 21.406C32.2281 20.4783 31.0167 20.4783 30.7446 21.406Z" fill="#F6BFAB"/>
<path d="M30.7446 21.406L29.5332 25.5958C29.286 26.4583 29.8782 27.3208 30.7216 27.3208H32.5117C33.3531 27.3208 33.9473 26.4449 33.7001 25.5958L32.4887 21.406C32.2281 20.4783 31.0167 20.4783 30.7446 21.406Z" fill="url(#paint43_linear_1074_502)"/>
<path d="M30.7446 21.406L29.5332 25.5958C29.286 26.4583 29.8782 27.3208 30.7216 27.3208H32.5117C33.3531 27.3208 33.9473 26.4449 33.7001 25.5958L32.4887 21.406C32.2281 20.4783 31.0167 20.4783 30.7446 21.406Z" fill="url(#paint44_radial_1074_502)"/>
<path d="M30.7446 21.406L29.5332 25.5958C29.286 26.4583 29.8782 27.3208 30.7216 27.3208H32.5117C33.3531 27.3208 33.9473 26.4449 33.7001 25.5958L32.4887 21.406C32.2281 20.4783 31.0167 20.4783 30.7446 21.406Z" fill="url(#paint45_linear_1074_502)"/>
<path d="M30.7446 21.406L29.5332 25.5958C29.286 26.4583 29.8782 27.3208 30.7216 27.3208H32.5117C33.3531 27.3208 33.9473 26.4449 33.7001 25.5958L32.4887 21.406C32.2281 20.4783 31.0167 20.4783 30.7446 21.406Z" fill="url(#paint46_radial_1074_502)"/>
<path d="M30.7446 21.406L29.5332 25.5958C29.286 26.4583 29.8782 27.3208 30.7216 27.3208H32.5117C33.3531 27.3208 33.9473 26.4449 33.7001 25.5958L32.4887 21.406C32.2281 20.4783 31.0167 20.4783 30.7446 21.406Z" fill="url(#paint47_linear_1074_502)"/>
</g>
<g filter="url(#filter14_f_1074_502)">
<path d="M28.5252 28.7583C29.482 29.2472 30.5423 29.4989 31.6168 29.4924C32.6912 29.5009 33.7518 29.2497 34.7083 28.7602C34.8032 28.7101 34.9118 28.6924 35.0177 28.7097C35.1235 28.727 35.2209 28.7784 35.2948 28.856C35.3704 28.9326 35.4167 29.0331 35.4258 29.1403C35.435 29.2474 35.4062 29.3544 35.3447 29.4425L35.2258 29.364C34.8309 29.959 34.2943 30.4466 33.6644 30.7831C33.0345 31.1196 32.3309 31.2945 31.6168 31.2921C30.1026 31.2921 28.7724 30.5216 28.0077 29.364L28.5252 28.7602V28.7583ZM28.5252 28.7583C28.4297 28.7089 28.3207 28.6921 28.2148 28.7105C28.109 28.7288 28.012 28.7813 27.9387 28.8599C27.8629 28.9359 27.8164 29.0362 27.8073 29.1431C27.7982 29.25 27.8271 29.3567 27.8888 29.4445L28.5252 28.7602V28.7583Z" stroke="url(#paint48_linear_1074_502)" stroke-width="0.15"/>
</g>
<path d="M31.6164 29.6361C30.4587 29.6361 29.3739 29.364 28.4596 28.8886C28.1472 28.7296 27.8118 29.0803 28.0073 29.364C28.4024 29.9588 28.939 30.4464 29.5688 30.7829C30.1987 31.1194 30.9022 31.2944 31.6164 31.2921C33.1305 31.2921 34.4626 30.5216 35.2255 29.364C35.421 29.0688 35.0855 28.7296 34.7731 28.8867C33.7966 29.3871 32.7136 29.6442 31.6164 29.6361Z" fill="url(#paint49_radial_1074_502)"/>
<g filter="url(#filter15_ii_1074_502)">
<path d="M42.6797 7.89537C43.9036 8.31376 44.9319 9.16609 45.57 10.2912C46.0772 11.1759 46.3237 12.1861 46.2809 13.2049C46.2382 14.2238 45.908 15.2098 45.3285 16.0489C44.9298 16.6354 44.7113 17.333 44.7113 18.0422V20.7485C44.2527 20.4413 43.7351 20.2331 43.1914 20.1371L43.3697 16.4763C43.3609 15.634 43.0305 14.8268 42.4462 14.2201C41.8619 13.6133 41.0677 13.2527 40.2263 13.2122H37.0351C35.9667 13.2106 34.9217 12.899 34.027 12.3152C33.1322 11.7314 32.4261 10.9004 31.9943 9.92321C31.8824 9.64315 31.6895 9.40286 31.4402 9.23315C31.1909 9.06343 30.8967 8.97202 30.5951 8.97062H27.6913C23.4862 8.97062 20.0764 12.4187 20.0764 16.6718L20.1473 20.1755C19.5685 20.2617 18.9628 20.4534 18.5048 20.7773V18.0403C18.5048 17.3311 18.2882 16.6354 17.8895 16.047C17.3376 15.2337 17.0159 14.2862 16.9585 13.305C16.9011 12.3238 17.1103 11.3453 17.5637 10.4733C18.1902 9.2737 19.2485 8.3565 20.5249 7.90687C21.8332 7.44607 22.9458 6.55384 23.6798 5.37687C24.348 4.30014 25.38 3.49852 26.5886 3.11735C27.7971 2.73618 29.1023 2.8007 30.2673 3.29921C31.1375 3.67679 32.1169 3.67679 32.9871 3.29921C33.6273 3.03087 34.3288 2.86987 35.0667 2.86987C36.9872 2.86987 38.6681 3.91062 39.5996 5.44971C40.3074 6.60198 41.3986 7.46793 42.6816 7.89537H42.6797Z" fill="url(#paint50_linear_1074_502)"/>
<path d="M42.6797 7.89537C43.9036 8.31376 44.9319 9.16609 45.57 10.2912C46.0772 11.1759 46.3237 12.1861 46.2809 13.2049C46.2382 14.2238 45.908 15.2098 45.3285 16.0489C44.9298 16.6354 44.7113 17.333 44.7113 18.0422V20.7485C44.2527 20.4413 43.7351 20.2331 43.1914 20.1371L43.3697 16.4763C43.3609 15.634 43.0305 14.8268 42.4462 14.2201C41.8619 13.6133 41.0677 13.2527 40.2263 13.2122H37.0351C35.9667 13.2106 34.9217 12.899 34.027 12.3152C33.1322 11.7314 32.4261 10.9004 31.9943 9.92321C31.8824 9.64315 31.6895 9.40286 31.4402 9.23315C31.1909 9.06343 30.8967 8.97202 30.5951 8.97062H27.6913C23.4862 8.97062 20.0764 12.4187 20.0764 16.6718L20.1473 20.1755C19.5685 20.2617 18.9628 20.4534 18.5048 20.7773V18.0403C18.5048 17.3311 18.2882 16.6354 17.8895 16.047C17.3376 15.2337 17.0159 14.2862 16.9585 13.305C16.9011 12.3238 17.1103 11.3453 17.5637 10.4733C18.1902 9.2737 19.2485 8.3565 20.5249 7.90687C21.8332 7.44607 22.9458 6.55384 23.6798 5.37687C24.348 4.30014 25.38 3.49852 26.5886 3.11735C27.7971 2.73618 29.1023 2.8007 30.2673 3.29921C31.1375 3.67679 32.1169 3.67679 32.9871 3.29921C33.6273 3.03087 34.3288 2.86987 35.0667 2.86987C36.9872 2.86987 38.6681 3.91062 39.5996 5.44971C40.3074 6.60198 41.3986 7.46793 42.6816 7.89537H42.6797Z" fill="url(#paint51_radial_1074_502)"/>
<path d="M42.6797 7.89537C43.9036 8.31376 44.9319 9.16609 45.57 10.2912C46.0772 11.1759 46.3237 12.1861 46.2809 13.2049C46.2382 14.2238 45.908 15.2098 45.3285 16.0489C44.9298 16.6354 44.7113 17.333 44.7113 18.0422V20.7485C44.2527 20.4413 43.7351 20.2331 43.1914 20.1371L43.3697 16.4763C43.3609 15.634 43.0305 14.8268 42.4462 14.2201C41.8619 13.6133 41.0677 13.2527 40.2263 13.2122H37.0351C35.9667 13.2106 34.9217 12.899 34.027 12.3152C33.1322 11.7314 32.4261 10.9004 31.9943 9.92321C31.8824 9.64315 31.6895 9.40286 31.4402 9.23315C31.1909 9.06343 30.8967 8.97202 30.5951 8.97062H27.6913C23.4862 8.97062 20.0764 12.4187 20.0764 16.6718L20.1473 20.1755C19.5685 20.2617 18.9628 20.4534 18.5048 20.7773V18.0403C18.5048 17.3311 18.2882 16.6354 17.8895 16.047C17.3376 15.2337 17.0159 14.2862 16.9585 13.305C16.9011 12.3238 17.1103 11.3453 17.5637 10.4733C18.1902 9.2737 19.2485 8.3565 20.5249 7.90687C21.8332 7.44607 22.9458 6.55384 23.6798 5.37687C24.348 4.30014 25.38 3.49852 26.5886 3.11735C27.7971 2.73618 29.1023 2.8007 30.2673 3.29921C31.1375 3.67679 32.1169 3.67679 32.9871 3.29921C33.6273 3.03087 34.3288 2.86987 35.0667 2.86987C36.9872 2.86987 38.6681 3.91062 39.5996 5.44971C40.3074 6.60198 41.3986 7.46793 42.6816 7.89537H42.6797Z" fill="url(#paint52_radial_1074_502)"/>
<path d="M42.6797 7.89537C43.9036 8.31376 44.9319 9.16609 45.57 10.2912C46.0772 11.1759 46.3237 12.1861 46.2809 13.2049C46.2382 14.2238 45.908 15.2098 45.3285 16.0489C44.9298 16.6354 44.7113 17.333 44.7113 18.0422V20.7485C44.2527 20.4413 43.7351 20.2331 43.1914 20.1371L43.3697 16.4763C43.3609 15.634 43.0305 14.8268 42.4462 14.2201C41.8619 13.6133 41.0677 13.2527 40.2263 13.2122H37.0351C35.9667 13.2106 34.9217 12.899 34.027 12.3152C33.1322 11.7314 32.4261 10.9004 31.9943 9.92321C31.8824 9.64315 31.6895 9.40286 31.4402 9.23315C31.1909 9.06343 30.8967 8.97202 30.5951 8.97062H27.6913C23.4862 8.97062 20.0764 12.4187 20.0764 16.6718L20.1473 20.1755C19.5685 20.2617 18.9628 20.4534 18.5048 20.7773V18.0403C18.5048 17.3311 18.2882 16.6354 17.8895 16.047C17.3376 15.2337 17.0159 14.2862 16.9585 13.305C16.9011 12.3238 17.1103 11.3453 17.5637 10.4733C18.1902 9.2737 19.2485 8.3565 20.5249 7.90687C21.8332 7.44607 22.9458 6.55384 23.6798 5.37687C24.348 4.30014 25.38 3.49852 26.5886 3.11735C27.7971 2.73618 29.1023 2.8007 30.2673 3.29921C31.1375 3.67679 32.1169 3.67679 32.9871 3.29921C33.6273 3.03087 34.3288 2.86987 35.0667 2.86987C36.9872 2.86987 38.6681 3.91062 39.5996 5.44971C40.3074 6.60198 41.3986 7.46793 42.6816 7.89537H42.6797Z" fill="url(#paint53_radial_1074_502)"/>
<path d="M42.6797 7.89537C43.9036 8.31376 44.9319 9.16609 45.57 10.2912C46.0772 11.1759 46.3237 12.1861 46.2809 13.2049C46.2382 14.2238 45.908 15.2098 45.3285 16.0489C44.9298 16.6354 44.7113 17.333 44.7113 18.0422V20.7485C44.2527 20.4413 43.7351 20.2331 43.1914 20.1371L43.3697 16.4763C43.3609 15.634 43.0305 14.8268 42.4462 14.2201C41.8619 13.6133 41.0677 13.2527 40.2263 13.2122H37.0351C35.9667 13.2106 34.9217 12.899 34.027 12.3152C33.1322 11.7314 32.4261 10.9004 31.9943 9.92321C31.8824 9.64315 31.6895 9.40286 31.4402 9.23315C31.1909 9.06343 30.8967 8.97202 30.5951 8.97062H27.6913C23.4862 8.97062 20.0764 12.4187 20.0764 16.6718L20.1473 20.1755C19.5685 20.2617 18.9628 20.4534 18.5048 20.7773V18.0403C18.5048 17.3311 18.2882 16.6354 17.8895 16.047C17.3376 15.2337 17.0159 14.2862 16.9585 13.305C16.9011 12.3238 17.1103 11.3453 17.5637 10.4733C18.1902 9.2737 19.2485 8.3565 20.5249 7.90687C21.8332 7.44607 22.9458 6.55384 23.6798 5.37687C24.348 4.30014 25.38 3.49852 26.5886 3.11735C27.7971 2.73618 29.1023 2.8007 30.2673 3.29921C31.1375 3.67679 32.1169 3.67679 32.9871 3.29921C33.6273 3.03087 34.3288 2.86987 35.0667 2.86987C36.9872 2.86987 38.6681 3.91062 39.5996 5.44971C40.3074 6.60198 41.3986 7.46793 42.6816 7.89537H42.6797Z" fill="url(#paint54_radial_1074_502)"/>
</g>
<g filter="url(#filter16_i_1074_502)">
<path d="M40.1243 16.2425C39.7237 15.8975 39.2599 15.5275 38.5565 15.3052C37.8626 15.0886 36.9944 15.0292 35.7926 15.1768C35.6339 15.2057 35.4922 15.2942 35.3965 15.4241C35.3009 15.5541 35.2585 15.7157 35.2781 15.8759C35.2977 16.036 35.3778 16.1826 35.5019 16.2857C35.6261 16.3888 35.7849 16.4405 35.946 16.4303C37.0442 16.2961 37.715 16.367 38.177 16.5108C38.6293 16.6545 38.934 16.8845 39.2925 17.197C39.3547 17.2539 39.4276 17.2978 39.507 17.3261C39.5864 17.3544 39.6706 17.3666 39.7548 17.3618C39.839 17.3571 39.9214 17.3356 39.9971 17.2986C40.0728 17.2616 40.1404 17.2099 40.1959 17.1464C40.2513 17.0829 40.2935 17.0089 40.32 16.9289C40.3464 16.8489 40.3566 16.7643 40.35 16.6803C40.3433 16.5963 40.3199 16.5144 40.2811 16.4396C40.2424 16.3647 40.1891 16.2983 40.1243 16.2444V16.2425Z" fill="#202020"/>
</g>
<g filter="url(#filter17_i_1074_502)">
<path d="M23.8426 15.9952C25.0385 15.2955 26.431 15.0079 27.8062 15.1768C27.965 15.2057 28.1067 15.2942 28.2023 15.4241C28.298 15.5541 28.3403 15.7157 28.3208 15.8758C28.3012 16.036 28.2211 16.1826 28.0969 16.2857C27.9728 16.3888 27.8139 16.4405 27.6529 16.4303C26.5561 16.2956 25.4453 16.5238 24.4904 17.08C24.4197 17.1227 24.3507 17.1681 24.2834 17.2161L24.2777 17.2199C24.1446 17.3135 23.9807 17.3522 23.8198 17.3281C23.659 17.3039 23.5136 17.2187 23.4139 17.0902C23.3142 16.9617 23.2679 16.7997 23.2846 16.6379C23.3012 16.4761 23.3796 16.3269 23.5033 16.2213L23.8426 15.9952Z" fill="#202020"/>
</g>
<g filter="url(#filter18_if_1074_502)">
<path d="M32.1454 10.2357C32.0924 10.1331 32.0426 10.0289 31.9959 9.92326C31.8838 9.6426 31.6903 9.40189 31.4402 9.23213C31.1902 9.06237 30.8951 8.97131 30.5929 8.97068H27.691C23.4859 8.97068 20.0761 12.4168 20.0761 16.6718V17.2986C19.3018 16.7102 18.3281 15.4643 18.3281 13.4518C18.3281 11.01 20.1087 9.77376 21.2453 8.98601C21.5654 8.76559 21.8356 8.57776 21.9985 8.41101L22.2266 8.17143C23.022 7.32618 24.4423 5.82159 26.9205 5.16226C28.1388 4.85597 29.3959 4.73322 30.6504 4.79809C31.557 4.83643 32.1933 5.62226 32.1933 6.52693V10.2069L32.1454 10.2357Z" fill="#23181C"/>
<path d="M32.1454 10.2357C32.0924 10.1331 32.0426 10.0289 31.9959 9.92326C31.8838 9.6426 31.6903 9.40189 31.4402 9.23213C31.1902 9.06237 30.8951 8.97131 30.5929 8.97068H27.691C23.4859 8.97068 20.0761 12.4168 20.0761 16.6718V17.2986C19.3018 16.7102 18.3281 15.4643 18.3281 13.4518C18.3281 11.01 20.1087 9.77376 21.2453 8.98601C21.5654 8.76559 21.8356 8.57776 21.9985 8.41101L22.2266 8.17143C23.022 7.32618 24.4423 5.82159 26.9205 5.16226C28.1388 4.85597 29.3959 4.73322 30.6504 4.79809C31.557 4.83643 32.1933 5.62226 32.1933 6.52693V10.2069L32.1454 10.2357Z" fill="url(#paint55_radial_1074_502)"/>
<path d="M32.1454 10.2357C32.0924 10.1331 32.0426 10.0289 31.9959 9.92326C31.8838 9.6426 31.6903 9.40189 31.4402 9.23213C31.1902 9.06237 30.8951 8.97131 30.5929 8.97068H27.691C23.4859 8.97068 20.0761 12.4168 20.0761 16.6718V17.2986C19.3018 16.7102 18.3281 15.4643 18.3281 13.4518C18.3281 11.01 20.1087 9.77376 21.2453 8.98601C21.5654 8.76559 21.8356 8.57776 21.9985 8.41101L22.2266 8.17143C23.022 7.32618 24.4423 5.82159 26.9205 5.16226C28.1388 4.85597 29.3959 4.73322 30.6504 4.79809C31.557 4.83643 32.1933 5.62226 32.1933 6.52693V10.2069L32.1454 10.2357Z" fill="url(#paint56_radial_1074_502)"/>
</g>
<g filter="url(#filter19_f_1074_502)">
<path d="M43.4962 17.6799L43.4311 16.2424C43.4062 14.5021 41.9687 13.0665 40.2283 12.9937H37.0371C36.0467 12.9934 35.0747 12.7267 34.2229 12.2216C33.371 11.7164 32.6708 10.9914 32.1956 10.1225C32.1956 10.1225 31.956 9.56669 31.7816 8.66586C31.4174 6.77794 33.1769 5.37494 35.0706 5.70269C37.4281 6.10903 40.2647 6.87761 42.3098 8.21353C46.2869 10.8068 45.5892 15.4796 43.4982 17.6819L43.4962 17.6799Z" fill="#1F151B"/>
<path d="M43.4962 17.6799L43.4311 16.2424C43.4062 14.5021 41.9687 13.0665 40.2283 12.9937H37.0371C36.0467 12.9934 35.0747 12.7267 34.2229 12.2216C33.371 11.7164 32.6708 10.9914 32.1956 10.1225C32.1956 10.1225 31.956 9.56669 31.7816 8.66586C31.4174 6.77794 33.1769 5.37494 35.0706 5.70269C37.4281 6.10903 40.2647 6.87761 42.3098 8.21353C46.2869 10.8068 45.5892 15.4796 43.4982 17.6819L43.4962 17.6799Z" fill="url(#paint57_radial_1074_502)"/>
<path d="M43.4962 17.6799L43.4311 16.2424C43.4062 14.5021 41.9687 13.0665 40.2283 12.9937H37.0371C36.0467 12.9934 35.0747 12.7267 34.2229 12.2216C33.371 11.7164 32.6708 10.9914 32.1956 10.1225C32.1956 10.1225 31.956 9.56669 31.7816 8.66586C31.4174 6.77794 33.1769 5.37494 35.0706 5.70269C37.4281 6.10903 40.2647 6.87761 42.3098 8.21353C46.2869 10.8068 45.5892 15.4796 43.4982 17.6819L43.4962 17.6799Z" fill="url(#paint58_radial_1074_502)"/>
<path d="M43.4962 17.6799L43.4311 16.2424C43.4062 14.5021 41.9687 13.0665 40.2283 12.9937H37.0371C36.0467 12.9934 35.0747 12.7267 34.2229 12.2216C33.371 11.7164 32.6708 10.9914 32.1956 10.1225C32.1956 10.1225 31.956 9.56669 31.7816 8.66586C31.4174 6.77794 33.1769 5.37494 35.0706 5.70269C37.4281 6.10903 40.2647 6.87761 42.3098 8.21353C46.2869 10.8068 45.5892 15.4796 43.4982 17.6819L43.4962 17.6799Z" fill="url(#paint59_radial_1074_502)"/>
</g>
<path d="M37.0652 19.2401C37.7754 19.24 38.4651 19.4776 39.0247 19.9149C39.5842 20.3521 39.9814 20.9641 40.153 21.6532C40.176 21.7456 40.1777 21.842 40.1578 21.9351C40.1379 22.0283 40.097 22.1156 40.0382 22.1905C39.9794 22.2654 39.9042 22.3259 39.8185 22.3673C39.7328 22.4087 39.6387 22.4299 39.5435 22.4294H34.4566C34.3796 22.4296 34.3036 22.4128 34.2338 22.3802C34.164 22.3477 34.1023 22.3002 34.0529 22.2411C34.0035 22.182 33.9677 22.1128 33.9481 22.0384C33.9284 21.964 33.9254 21.8861 33.9391 21.8104C34.2266 20.3499 35.5108 19.2401 37.0633 19.2401H37.0652Z" fill="white"/>
<path d="M36.5938 19.8593C36.9066 19.8594 37.2151 19.9316 37.4954 20.0704C37.7757 20.2092 38.0202 20.4107 38.2099 20.6594C38.3996 20.9081 38.5294 21.1972 38.5892 21.5042C38.649 21.8112 38.6371 22.1278 38.5546 22.4295H34.6254C34.5443 22.1273 34.5338 21.8105 34.5946 21.5036C34.6555 21.1966 34.7861 20.9078 34.9763 20.6594C35.1666 20.411 35.4114 20.2096 35.6919 20.0709C35.9723 19.9321 36.2809 19.8597 36.5938 19.8593Z" fill="url(#paint60_radial_1074_502)"/>
<path d="M35.4288 21.8928C35.4288 21.2469 35.9463 20.7294 36.5941 20.7294C36.7946 20.7278 36.9921 20.7783 37.1673 20.8758C37.3425 20.9734 37.4894 21.1147 37.5937 21.286C37.698 21.4572 37.756 21.6526 37.7622 21.8531C37.7685 22.0535 37.7226 22.2521 37.6291 22.4295H35.5687C35.475 22.2663 35.4267 22.081 35.4288 21.8928Z" fill="black"/>
<g filter="url(#filter20_f_1074_502)">
<path d="M36.4446 20.2886C36.5902 20.4822 36.2874 20.7198 35.9424 20.9767C35.5974 21.2335 35.3425 21.4156 35.1968 21.222C35.0531 21.0284 35.216 20.6623 35.5591 20.4036C35.9041 20.1467 36.2989 20.0969 36.4446 20.2886Z" fill="#C7A7A3"/>
<path d="M36.4446 20.2886C36.5902 20.4822 36.2874 20.7198 35.9424 20.9767C35.5974 21.2335 35.3425 21.4156 35.1968 21.222C35.0531 21.0284 35.216 20.6623 35.5591 20.4036C35.9041 20.1467 36.2989 20.0969 36.4446 20.2886Z" fill="url(#paint61_radial_1074_502)"/>
</g>
<g filter="url(#filter21_f_1074_502)">
<path d="M38.4055 21.6245C38.3451 21.2264 38.1607 20.8575 37.8784 20.5703L37.2861 21.222L37.5545 21.7395L38.4055 21.6245Z" fill="url(#paint62_linear_1074_502)"/>
</g>
<path d="M26.1669 19.2401C25.4568 19.24 24.767 19.4776 24.2074 19.9149C23.6479 20.3521 23.2507 20.9641 23.0792 21.6532C23.0561 21.7456 23.0544 21.842 23.0743 21.9351C23.0942 22.0283 23.1351 22.1156 23.1939 22.1905C23.2527 22.2654 23.3279 22.3259 23.4136 22.3673C23.4994 22.4087 23.5935 22.4299 23.6887 22.4294H28.7736C28.8506 22.4296 28.9267 22.4128 28.9964 22.3802C29.0662 22.3477 29.1279 22.3002 29.1773 22.2411C29.2267 22.182 29.2625 22.1128 29.2821 22.0384C29.3018 21.964 29.3049 21.8861 29.2911 21.8104C29.1472 21.0871 28.7575 20.4359 28.188 19.9674C27.6185 19.4988 26.9044 19.2419 26.1669 19.2401Z" fill="white"/>
<path d="M26.6368 19.8593C26.3245 19.8597 26.0164 19.9322 25.7365 20.071C25.4566 20.2098 25.2125 20.4112 25.0231 20.6596C24.8336 20.908 24.7039 21.1967 24.6441 21.5033C24.5843 21.8099 24.5959 22.1262 24.678 22.4276H28.6072C28.6551 22.2551 28.6819 22.0788 28.6819 21.8928C28.6779 21.3531 28.461 20.8367 28.0785 20.456C27.6959 20.0752 27.1785 19.8608 26.6388 19.8593H26.6368Z" fill="url(#paint63_radial_1074_502)"/>
<path d="M27.8037 21.8928C27.8043 21.7397 27.7744 21.5881 27.716 21.4466C27.6576 21.3051 27.5718 21.1765 27.4634 21.0684C27.3551 20.9602 27.2264 20.8746 27.0848 20.8164C26.9432 20.7582 26.7915 20.7286 26.6384 20.7294C26.4379 20.7278 26.2404 20.7783 26.0652 20.8758C25.89 20.9734 25.7431 21.1147 25.6388 21.286C25.5346 21.4572 25.4765 21.6526 25.4703 21.8531C25.4641 22.0535 25.5099 22.2521 25.6034 22.4295H27.6638C27.7533 22.2646 27.8014 22.0804 27.8037 21.8928Z" fill="black"/>
<g filter="url(#filter22_f_1074_502)">
<path d="M28.4961 21.6532C28.4961 20.9958 27.9632 20.5588 27.8176 20.4265L27.1602 21.0609L27.5646 21.8851L28.498 21.6551L28.4961 21.6532Z" fill="url(#paint64_linear_1074_502)"/>
</g>
<g filter="url(#filter23_f_1074_502)">
<path d="M26.2353 21.1229C26.6684 20.8935 26.9255 20.53 26.8095 20.3112C26.6936 20.0923 26.2485 20.1008 25.8154 20.3303C25.3823 20.5597 25.1253 20.9232 25.2412 21.142C25.3572 21.3609 25.8023 21.3524 26.2353 21.1229Z" fill="#C7A7A3" fill-opacity="0.9"/>
<path d="M26.2353 21.1229C26.6684 20.8935 26.9255 20.53 26.8095 20.3112C26.6936 20.0923 26.2485 20.1008 25.8154 20.3303C25.3823 20.5597 25.1253 20.9232 25.2412 21.142C25.3572 21.3609 25.8023 21.3524 26.2353 21.1229Z" fill="url(#paint65_radial_1074_502)"/>
</g>
<path d="M42.833 26.0903C42.9844 23.6657 43.1282 21.2411 43.2547 18.8165C44.139 18.9737 44.9349 19.4499 45.4915 20.1547C46.0482 20.8595 46.3269 21.7441 46.275 22.6407C46.223 23.5374 45.8439 24.3838 45.2095 25.0196C44.5751 25.6553 43.7295 26.0363 42.833 26.0903Z" fill="url(#paint66_linear_1074_502)"/>
<path d="M42.833 26.0903C42.9844 23.6657 43.1282 21.2411 43.2547 18.8165C44.139 18.9737 44.9349 19.4499 45.4915 20.1547C46.0482 20.8595 46.3269 21.7441 46.275 22.6407C46.223 23.5374 45.8439 24.3838 45.2095 25.0196C44.5751 25.6553 43.7295 26.0363 42.833 26.0903Z" fill="url(#paint67_radial_1074_502)"/>
<path d="M42.833 26.0903C42.9844 23.6657 43.1282 21.2411 43.2547 18.8165C44.139 18.9737 44.9349 19.4499 45.4915 20.1547C46.0482 20.8595 46.3269 21.7441 46.275 22.6407C46.223 23.5374 45.8439 24.3838 45.2095 25.0196C44.5751 25.6553 43.7295 26.0363 42.833 26.0903Z" fill="url(#paint68_radial_1074_502)"/>
<path d="M42.833 26.0903C42.9844 23.6657 43.1282 21.2411 43.2547 18.8165C44.139 18.9737 44.9349 19.4499 45.4915 20.1547C46.0482 20.8595 46.3269 21.7441 46.275 22.6407C46.223 23.5374 45.8439 24.3838 45.2095 25.0196C44.5751 25.6553 43.7295 26.0363 42.833 26.0903Z" fill="url(#paint69_radial_1074_502)"/>
<path d="M20.1203 18.7974C18.3378 19.0465 16.9482 20.5799 16.9482 22.4294C16.9482 24.3883 18.4816 25.9868 20.4136 26.0903C20.266 23.6616 20.1682 21.2301 20.1203 18.7974Z" fill="url(#paint70_linear_1074_502)"/>
<path d="M20.1203 18.7974C18.3378 19.0465 16.9482 20.5799 16.9482 22.4294C16.9482 24.3883 18.4816 25.9868 20.4136 26.0903C20.266 23.6616 20.1682 21.2301 20.1203 18.7974Z" fill="url(#paint71_radial_1074_502)"/>
<g filter="url(#filter24_f_1074_502)">
<path d="M20.0242 20.304C19.5261 20.4166 19.0834 20.7008 18.7736 21.1068C18.4637 21.5128 18.3065 22.0148 18.3293 22.525C18.3522 23.0352 18.5536 23.5212 18.8985 23.8979C19.2434 24.2746 19.7097 24.5181 20.2159 24.5858C20.1348 23.1593 20.0709 21.732 20.0242 20.304Z" fill="url(#paint72_radial_1074_502)"/>
</g>
<g filter="url(#filter25_f_1074_502)">
<path d="M43.0244 24.6222C43.1126 23.177 43.1969 21.7319 43.2774 20.2848C43.8252 20.354 44.3262 20.6286 44.6791 21.0532C45.032 21.4778 45.2104 22.0206 45.1782 22.5718C45.1461 23.1229 44.9058 23.6413 44.5059 24.0219C44.106 24.4026 43.5765 24.6172 43.0244 24.6222Z" fill="url(#paint73_linear_1074_502)"/>
</g>
<g filter="url(#filter26_f_1074_502)">
<path d="M23.9287 16.6316C24.5133 16.2118 25.9738 15.4739 27.7007 15.7633" stroke="#353535" stroke-width="0.25" stroke-linecap="round"/>
</g>
<g filter="url(#filter27_f_1074_502)">
<path d="M39.732 16.5281C39.1474 16.1065 37.6869 15.3685 35.96 15.658" stroke="#353535" stroke-width="0.25" stroke-linecap="round"/>
</g>
<defs>
<filter id="filter0_f_1074_502" x="7.27148" y="20.389" width="14.3174" height="21.264" filterUnits="userSpaceOnUse" color-interpolation-filters="sRGB">
<feFlood flood-opacity="0" result="BackgroundImageFix"/>
<feBlend mode="normal" in="SourceGraphic" in2="BackgroundImageFix" result="shape"/>
<feGaussianBlur stdDeviation="0.75" result="effect1_foregroundBlur_1074_502"/>
</filter>
<filter id="filter1_f_1074_502" x="3.83555" y="5.60935" width="0.558398" height="4.00286" filterUnits="userSpaceOnUse" color-interpolation-filters="sRGB">
<feFlood flood-opacity="0" result="BackgroundImageFix"/>
<feBlend mode="normal" in="SourceGraphic" in2="BackgroundImageFix" result="shape"/>
<feGaussianBlur stdDeviation="0.05" result="effect1_foregroundBlur_1074_502"/>
</filter>
<filter id="filter2_f_1074_502" x="6.81602" y="4.78513" width="0.408984" height="4.67559" filterUnits="userSpaceOnUse" color-interpolation-filters="sRGB">
<feFlood flood-opacity="0" result="BackgroundImageFix"/>
<feBlend mode="normal" in="SourceGraphic" in2="BackgroundImageFix" result="shape"/>
<feGaussianBlur stdDeviation="0.05" result="effect1_foregroundBlur_1074_502"/>
</filter>
<filter id="filter3_f_1074_502" x="9.64414" y="5.93711" width="0.723438" height="2.97173" filterUnits="userSpaceOnUse" color-interpolation-filters="sRGB">
<feFlood flood-opacity="0" result="BackgroundImageFix"/>
<feBlend mode="normal" in="SourceGraphic" in2="BackgroundImageFix" result="shape"/>
<feGaussianBlur stdDeviation="0.05" result="effect1_foregroundBlur_1074_502"/>
</filter>
<filter id="filter4_f_1074_502" x="2.08047" y="4.62783" width="1.88594" height="5.90083" filterUnits="userSpaceOnUse" color-interpolation-filters="sRGB">
<feFlood flood-opacity="0" result="BackgroundImageFix"/>
<feBlend mode="normal" in="SourceGraphic" in2="BackgroundImageFix" result="shape"/>
<feGaussianBlur stdDeviation="0.2" result="effect1_foregroundBlur_1074_502"/>
</filter>
<filter id="filter5_f_1074_502" x="5.31387" y="2.82253" width="1.20039" height="6.72053" filterUnits="userSpaceOnUse" color-interpolation-filters="sRGB">
<feFlood flood-opacity="0" result="BackgroundImageFix"/>
<feBlend mode="normal" in="SourceGraphic" in2="BackgroundImageFix" result="shape"/>
<feGaussianBlur stdDeviation="0.2" result="effect1_foregroundBlur_1074_502"/>
</filter>
<filter id="filter6_f_1074_502" x="8.27969" y="1.06179" width="1.75215" height="8.38862" filterUnits="userSpaceOnUse" color-interpolation-filters="sRGB">
<feFlood flood-opacity="0" result="BackgroundImageFix"/>
<feBlend mode="normal" in="SourceGraphic" in2="BackgroundImageFix" result="shape"/>
<feGaussianBlur stdDeviation="0.2" result="effect1_foregroundBlur_1074_502"/>
</filter>
<filter id="filter7_f_1074_502" x="10.9662" y="3.03689" width="2.74531" height="7.42097" filterUnits="userSpaceOnUse" color-interpolation-filters="sRGB">
<feFlood flood-opacity="0" result="BackgroundImageFix"/>
<feBlend mode="normal" in="SourceGraphic" in2="BackgroundImageFix" result="shape"/>
<feGaussianBlur stdDeviation="0.2" result="effect1_foregroundBlur_1074_502"/>
</filter>
<filter id="filter8_f_1074_502" x="2.36543" y="9.33772" width="2.15586" height="2.05088" filterUnits="userSpaceOnUse" color-interpolation-filters="sRGB">
<feFlood flood-opacity="0" result="BackgroundImageFix"/>
<feBlend mode="normal" in="SourceGraphic" in2="BackgroundImageFix" result="shape"/>
<feGaussianBlur stdDeviation="0.1" result="effect1_foregroundBlur_1074_502"/>
</filter>
<filter id="filter9_f_1074_502" x="5.52559" y="8.93904" width="1.59238" height="1.36667" filterUnits="userSpaceOnUse" color-interpolation-filters="sRGB">
<feFlood flood-opacity="0" result="BackgroundImageFix"/>
<feBlend mode="normal" in="SourceGraphic" in2="BackgroundImageFix" result="shape"/>
<feGaussianBlur stdDeviation="0.1" result="effect1_foregroundBlur_1074_502"/>
</filter>
<filter id="filter10_f_1074_502" x="7.95039" y="8.571" width="1.96641" height="1.41074" filterUnits="userSpaceOnUse" color-interpolation-filters="sRGB">
<feFlood flood-opacity="0" result="BackgroundImageFix"/>
<feBlend mode="normal" in="SourceGraphic" in2="BackgroundImageFix" result="shape"/>
<feGaussianBlur stdDeviation="0.1" result="effect1_foregroundBlur_1074_502"/>
</filter>
<filter id="filter11_ii_1074_502" x="20.0762" y="8.9707" width="24.293" height="28.3271" filterUnits="userSpaceOnUse" color-interpolation-filters="sRGB">
<feFlood flood-opacity="0" result="BackgroundImageFix"/>
<feBlend mode="normal" in="SourceGraphic" in2="BackgroundImageFix" result="shape"/>
<feColorMatrix in="SourceAlpha" type="matrix" values="0 0 0 0 0 0 0 0 0 0 0 0 0 0 0 0 0 0 127 0" result="hardAlpha"/>
<feOffset dx="1"/>
<feGaussianBlur stdDeviation="0.7"/>
<feComposite in2="hardAlpha" operator="arithmetic" k2="-1" k3="1"/>
<feColorMatrix type="matrix" values="0 0 0 0 0.913725 0 0 0 0 0.686275 0 0 0 0 0.592157 0 0 0 1 0"/>
<feBlend mode="normal" in2="shape" result="effect1_innerShadow_1074_502"/>
<feColorMatrix in="SourceAlpha" type="matrix" values="0 0 0 0 0 0 0 0 0 0 0 0 0 0 0 0 0 0 127 0" result="hardAlpha"/>
<feOffset dy="0.2"/>
<feGaussianBlur stdDeviation="0.375"/>
<feComposite in2="hardAlpha" operator="arithmetic" k2="-1" k3="1"/>
<feColorMatrix type="matrix" values="0 0 0 0 0.780392 0 0 0 0 0.568627 0 0 0 0 0.486275 0 0 0 1 0"/>
<feBlend mode="normal" in2="effect1_innerShadow_1074_502" result="effect2_innerShadow_1074_502"/>
</filter>
<filter id="filter12_f_1074_502" x="28.3018" y="20.1453" width="5.98047" height="8.60864" filterUnits="userSpaceOnUse" color-interpolation-filters="sRGB">
<feFlood flood-opacity="0" result="BackgroundImageFix"/>
<feBlend mode="normal" in="SourceGraphic" in2="BackgroundImageFix" result="shape"/>
<feGaussianBlur stdDeviation="0.5" result="effect1_foregroundBlur_1074_502"/>
</filter>
<filter id="filter13_f_1074_502" x="29.2766" y="20.5102" width="4.68027" height="7.0106" filterUnits="userSpaceOnUse" color-interpolation-filters="sRGB">
<feFlood flood-opacity="0" result="BackgroundImageFix"/>
<feBlend mode="normal" in="SourceGraphic" in2="BackgroundImageFix" result="shape"/>
<feGaussianBlur stdDeviation="0.1" result="effect1_foregroundBlur_1074_502"/>
</filter>
<filter id="filter14_f_1074_502" x="27.6305" y="28.5283" width="7.97246" height="2.93889" filterUnits="userSpaceOnUse" color-interpolation-filters="sRGB">
<feFlood flood-opacity="0" result="BackgroundImageFix"/>
<feBlend mode="normal" in="SourceGraphic" in2="BackgroundImageFix" result="shape"/>
<feGaussianBlur stdDeviation="0.05" result="effect1_foregroundBlur_1074_502"/>
</filter>
<filter id="filter15_ii_1074_502" x="16.9492" y="2.36987" width="29.3369" height="18.4075" filterUnits="userSpaceOnUse" color-interpolation-filters="sRGB">
<feFlood flood-opacity="0" result="BackgroundImageFix"/>
<feBlend mode="normal" in="SourceGraphic" in2="BackgroundImageFix" result="shape"/>
<feColorMatrix in="SourceAlpha" type="matrix" values="0 0 0 0 0 0 0 0 0 0 0 0 0 0 0 0 0 0 127 0" result="hardAlpha"/>
<feOffset dy="-0.5"/>
<feGaussianBlur stdDeviation="0.625"/>
<feComposite in2="hardAlpha" operator="arithmetic" k2="-1" k3="1"/>
<feColorMatrix type="matrix" values="0 0 0 0 0.137255 0 0 0 0 0.0901961 0 0 0 0 0.145098 0 0 0 1 0"/>
<feBlend mode="normal" in2="shape" result="effect1_innerShadow_1074_502"/>
<feColorMatrix in="SourceAlpha" type="matrix" values="0 0 0 0 0 0 0 0 0 0 0 0 0 0 0 0 0 0 127 0" result="hardAlpha"/>
<feOffset dy="-0.2"/>
<feGaussianBlur stdDeviation="0.2"/>
<feComposite in2="hardAlpha" operator="arithmetic" k2="-1" k3="1"/>
<feColorMatrix type="matrix" values="0 0 0 0 0.0784314 0 0 0 0 0.0352941 0 0 0 0 0.0470588 0 0 0 1 0"/>
<feBlend mode="normal" in2="effect1_innerShadow_1074_502" result="effect2_innerShadow_1074_502"/>
</filter>
<filter id="filter16_i_1074_502" x="35.2734" y="14.8955" width="5.17813" height="2.46733" filterUnits="userSpaceOnUse" color-interpolation-filters="sRGB">
<feFlood flood-opacity="0" result="BackgroundImageFix"/>
<feBlend mode="normal" in="SourceGraphic" in2="BackgroundImageFix" result="shape"/>
<feColorMatrix in="SourceAlpha" type="matrix" values="0 0 0 0 0 0 0 0 0 0 0 0 0 0 0 0 0 0 127 0" result="hardAlpha"/>
<feOffset dx="0.1" dy="-0.2"/>
<feGaussianBlur stdDeviation="0.125"/>
<feComposite in2="hardAlpha" operator="arithmetic" k2="-1" k3="1"/>
<feColorMatrix type="matrix" values="0 0 0 0 0.0588235 0 0 0 0 0.054902 0 0 0 0 0.0588235 0 0 0 1 0"/>
<feBlend mode="normal" in2="shape" result="effect1_innerShadow_1074_502"/>
</filter>
<filter id="filter17_i_1074_502" x="23.2812" y="14.9296" width="5.14395" height="2.40544" filterUnits="userSpaceOnUse" color-interpolation-filters="sRGB">
<feFlood flood-opacity="0" result="BackgroundImageFix"/>
<feBlend mode="normal" in="SourceGraphic" in2="BackgroundImageFix" result="shape"/>
<feColorMatrix in="SourceAlpha" type="matrix" values="0 0 0 0 0 0 0 0 0 0 0 0 0 0 0 0 0 0 127 0" result="hardAlpha"/>
<feOffset dx="0.1" dy="-0.2"/>
<feGaussianBlur stdDeviation="0.125"/>
<feComposite in2="hardAlpha" operator="arithmetic" k2="-1" k3="1"/>
<feColorMatrix type="matrix" values="0 0 0 0 0.0588235 0 0 0 0 0.054902 0 0 0 0 0.0588235 0 0 0 1 0"/>
<feBlend mode="normal" in2="shape" result="effect1_innerShadow_1074_502"/>
</filter>
<filter id="filter18_if_1074_502" x="17.8281" y="4.28125" width="14.8652" height="13.5173" filterUnits="userSpaceOnUse" color-interpolation-filters="sRGB">
<feFlood flood-opacity="0" result="BackgroundImageFix"/>
<feBlend mode="normal" in="SourceGraphic" in2="BackgroundImageFix" result="shape"/>
<feColorMatrix in="SourceAlpha" type="matrix" values="0 0 0 0 0 0 0 0 0 0 0 0 0 0 0 0 0 0 127 0" result="hardAlpha"/>
<feOffset dx="0.4" dy="0.2"/>
<feGaussianBlur stdDeviation="0.2"/>
<feComposite in2="hardAlpha" operator="arithmetic" k2="-1" k3="1"/>
<feColorMatrix type="matrix" values="0 0 0 0 0.286275 0 0 0 0 0.243137 0 0 0 0 0.227451 0 0 0 1 0"/>
<feBlend mode="normal" in2="shape" result="effect1_innerShadow_1074_502"/>
<feGaussianBlur stdDeviation="0.25" result="effect2_foregroundBlur_1074_502"/>
</filter>
<filter id="filter19_f_1074_502" x="31.2334" y="5.15503" width="14.4502" height="13.0269" filterUnits="userSpaceOnUse" color-interpolation-filters="sRGB">
<feFlood flood-opacity="0" result="BackgroundImageFix"/>
<feBlend mode="normal" in="SourceGraphic" in2="BackgroundImageFix" result="shape"/>
<feGaussianBlur stdDeviation="0.25" result="effect1_foregroundBlur_1074_502"/>
</filter>
<filter id="filter20_f_1074_502" x="35.0445" y="20.0722" width="1.53789" height="1.33074" filterUnits="userSpaceOnUse" color-interpolation-filters="sRGB">
<feFlood flood-opacity="0" result="BackgroundImageFix"/>
<feBlend mode="normal" in="SourceGraphic" in2="BackgroundImageFix" result="shape"/>
<feGaussianBlur stdDeviation="0.05" result="effect1_foregroundBlur_1074_502"/>
</filter>
<filter id="filter21_f_1074_502" x="37.0861" y="20.3703" width="1.51914" height="1.56919" filterUnits="userSpaceOnUse" color-interpolation-filters="sRGB">
<feFlood flood-opacity="0" result="BackgroundImageFix"/>
<feBlend mode="normal" in="SourceGraphic" in2="BackgroundImageFix" result="shape"/>
<feGaussianBlur stdDeviation="0.1" result="effect1_foregroundBlur_1074_502"/>
</filter>
<filter id="filter22_f_1074_502" x="26.9602" y="20.2265" width="1.73789" height="1.85862" filterUnits="userSpaceOnUse" color-interpolation-filters="sRGB">
<feFlood flood-opacity="0" result="BackgroundImageFix"/>
<feBlend mode="normal" in="SourceGraphic" in2="BackgroundImageFix" result="shape"/>
<feGaussianBlur stdDeviation="0.1" result="effect1_foregroundBlur_1074_502"/>
</filter>
<filter id="filter23_f_1074_502" x="25.1139" y="20.0525" width="1.82305" height="1.34832" filterUnits="userSpaceOnUse" color-interpolation-filters="sRGB">
<feFlood flood-opacity="0" result="BackgroundImageFix"/>
<feBlend mode="normal" in="SourceGraphic" in2="BackgroundImageFix" result="shape"/>
<feGaussianBlur stdDeviation="0.05" result="effect1_foregroundBlur_1074_502"/>
</filter>
<filter id="filter24_f_1074_502" x="18.0771" y="20.054" width="2.38867" height="4.78186" filterUnits="userSpaceOnUse" color-interpolation-filters="sRGB">
<feFlood flood-opacity="0" result="BackgroundImageFix"/>
<feBlend mode="normal" in="SourceGraphic" in2="BackgroundImageFix" result="shape"/>
<feGaussianBlur stdDeviation="0.125" result="effect1_foregroundBlur_1074_502"/>
</filter>
<filter id="filter25_f_1074_502" x="42.5244" y="19.7848" width="3.15723" height="5.3374" filterUnits="userSpaceOnUse" color-interpolation-filters="sRGB">
<feFlood flood-opacity="0" result="BackgroundImageFix"/>
<feBlend mode="normal" in="SourceGraphic" in2="BackgroundImageFix" result="shape"/>
<feGaussianBlur stdDeviation="0.25" result="effect1_foregroundBlur_1074_502"/>
</filter>
<filter id="filter26_f_1074_502" x="23.5537" y="15.3228" width="4.52246" height="1.68384" filterUnits="userSpaceOnUse" color-interpolation-filters="sRGB">
<feFlood flood-opacity="0" result="BackgroundImageFix"/>
<feBlend mode="normal" in="SourceGraphic" in2="BackgroundImageFix" result="shape"/>
<feGaussianBlur stdDeviation="0.125" result="effect1_foregroundBlur_1074_502"/>
</filter>
<filter id="filter27_f_1074_502" x="35.585" y="15.2174" width="4.52246" height="1.68567" filterUnits="userSpaceOnUse" color-interpolation-filters="sRGB">
<feFlood flood-opacity="0" result="BackgroundImageFix"/>
<feBlend mode="normal" in="SourceGraphic" in2="BackgroundImageFix" result="shape"/>
<feGaussianBlur stdDeviation="0.125" result="effect1_foregroundBlur_1074_502"/>
</filter>
<radialGradient id="paint0_radial_1074_502" cx="0" cy="0" r="1" gradientUnits="userSpaceOnUse" gradientTransform="translate(6.42942 18.4907) rotate(-68.885) scale(12.4146 14.8519)">
<stop offset="0.475" stop-color="#F0BBA8"/>
<stop offset="1" stop-color="#F4BDA7"/>
</radialGradient>
<radialGradient id="paint1_radial_1074_502" cx="0" cy="0" r="1" gradientUnits="userSpaceOnUse" gradientTransform="translate(14.604 14.8759) rotate(130.764) scale(18.3465 3.60816)">
<stop offset="0.147" stop-color="#BE8479"/>
<stop offset="1" stop-color="#C38E7C" stop-opacity="0"/>
</radialGradient>
<linearGradient id="paint2_linear_1074_502" x1="7.35517" y1="19.7576" x2="7.35517" y2="16.4916" gradientUnits="userSpaceOnUse">
<stop stop-color="#DD9C7F"/>
<stop offset="1" stop-color="#DD9C7F" stop-opacity="0"/>
</linearGradient>
<radialGradient id="paint3_radial_1074_502" cx="0" cy="0" r="1" gradientUnits="userSpaceOnUse" gradientTransform="translate(3.98663 5.43002) rotate(85.056) scale(4.34363 0.646166)">
<stop offset="0.077" stop-color="#E1A587"/>
<stop offset="1" stop-color="#E1A587" stop-opacity="0"/>
</radialGradient>
<radialGradient id="paint4_radial_1074_502" cx="0" cy="0" r="1" gradientUnits="userSpaceOnUse" gradientTransform="translate(7.14817 3.19956) rotate(90.788) scale(6.52926 0.509882)">
<stop stop-color="#E1A587"/>
<stop offset="1" stop-color="#E1A587" stop-opacity="0"/>
</radialGradient>
<radialGradient id="paint5_radial_1074_502" cx="0" cy="0" r="1" gradientUnits="userSpaceOnUse" gradientTransform="translate(10.9184 1.73285) rotate(99.609) scale(7.71501 0.956743)">
<stop offset="0.202" stop-color="#E1A587"/>
<stop offset="1" stop-color="#E1A587" stop-opacity="0"/>
</radialGradient>
<radialGradient id="paint6_radial_1074_502" cx="0" cy="0" r="1" gradientUnits="userSpaceOnUse" gradientTransform="translate(13.7933 2.42331) rotate(131.934) scale(1.90125 1.67018)">
<stop stop-color="#FFD2BA"/>
<stop offset="1" stop-color="#FFD2BA" stop-opacity="0"/>
</radialGradient>
<radialGradient id="paint7_radial_1074_502" cx="0" cy="0" r="1" gradientUnits="userSpaceOnUse" gradientTransform="translate(10.1018 0.45298) rotate(121.412) scale(2.39182 1.47774)">
<stop stop-color="#FFD2BA"/>
<stop offset="1" stop-color="#FFD2BA" stop-opacity="0"/>
</radialGradient>
<radialGradient id="paint8_radial_1074_502" cx="0" cy="0" r="1" gradientUnits="userSpaceOnUse" gradientTransform="translate(6.14195 1.58405) rotate(99.841) scale(2.38437 1.82967)">
<stop stop-color="#FFD2BA"/>
<stop offset="1" stop-color="#FFD2BA" stop-opacity="0"/>
</radialGradient>
<radialGradient id="paint9_radial_1074_502" cx="0" cy="0" r="1" gradientUnits="userSpaceOnUse" gradientTransform="translate(2.78775 3.93748) rotate(98.1301) scale(1.86461 1.32557)">
<stop stop-color="#FFD2BA"/>
<stop offset="1" stop-color="#FFD2BA" stop-opacity="0"/>
</radialGradient>
<radialGradient id="paint10_radial_1074_502" cx="0" cy="0" r="1" gradientUnits="userSpaceOnUse" gradientTransform="translate(18.192 8.69081) rotate(135) scale(2.95792 2.31467)">
<stop stop-color="#FFD2BA"/>
<stop offset="1" stop-color="#FFD2BA" stop-opacity="0"/>
</radialGradient>
<linearGradient id="paint11_linear_1074_502" x1="1.19309" y1="13.7297" x2="2.56925" y2="13.5515" gradientUnits="userSpaceOnUse">
<stop stop-color="#FFD5B9"/>
<stop offset="1" stop-color="#FFD5B9" stop-opacity="0"/>
</linearGradient>
<linearGradient id="paint12_linear_1074_502" x1="3.22278" y1="19.7921" x2="11.6082" y2="19.7921" gradientUnits="userSpaceOnUse">
<stop stop-color="#E6724B"/>
<stop offset="0.743" stop-color="#D64D18"/>
</linearGradient>
<linearGradient id="paint13_linear_1074_502" x1="7.57361" y1="18.6689" x2="7.57361" y2="19.1634" gradientUnits="userSpaceOnUse">
<stop stop-color="#DD6422"/>
<stop offset="1" stop-color="#DD6422" stop-opacity="0"/>
</linearGradient>
<radialGradient id="paint14_radial_1074_502" cx="0" cy="0" r="1" gradientUnits="userSpaceOnUse" gradientTransform="translate(45.3629 47.8483) rotate(162.199) scale(17.5445 18.7079)">
<stop stop-color="#FF8045"/>
<stop offset="1" stop-color="#FF8045" stop-opacity="0"/>
</radialGradient>
<radialGradient id="paint15_radial_1074_502" cx="0" cy="0" r="1" gradientUnits="userSpaceOnUse" gradientTransform="translate(16.1011 53.2149) rotate(-90) scale(8.86462 5.1102)">
<stop stop-color="#FF6E45"/>
<stop offset="1" stop-color="#FF6E45" stop-opacity="0"/>
</radialGradient>
<linearGradient id="paint16_linear_1074_502" x1="13.3181" y1="46.8267" x2="17.0671" y2="34.7823" gradientUnits="userSpaceOnUse">
<stop stop-color="#FF4B54"/>
<stop offset="1" stop-color="#FF4B54" stop-opacity="0"/>
</linearGradient>
<radialGradient id="paint17_radial_1074_502" cx="0" cy="0" r="1" gradientUnits="userSpaceOnUse" gradientTransform="translate(0.88662 20.6316) rotate(90) scale(16.8906 10.4219)">
<stop stop-color="#FF7C1F"/>
<stop offset="1" stop-color="#FF7C1F" stop-opacity="0"/>
</radialGradient>
<radialGradient id="paint18_radial_1074_502" cx="0" cy="0" r="1" gradientUnits="userSpaceOnUse" gradientTransform="translate(27.7487 36.5438) rotate(-166.974) scale(15.6294 5.2638)">
<stop stop-color="#D93F13"/>
<stop offset="1" stop-color="#D93F13" stop-opacity="0"/>
</radialGradient>
<linearGradient id="paint19_linear_1074_502" x1="21.1611" y1="42.403" x2="20.084" y2="40.3656" gradientUnits="userSpaceOnUse">
<stop offset="0.133" stop-color="#FF611D"/>
<stop offset="1" stop-color="#FF611D" stop-opacity="0"/>
</linearGradient>
<linearGradient id="paint20_linear_1074_502" x1="29.4334" y1="35.6526" x2="36.0172" y2="41.7131" gradientUnits="userSpaceOnUse">
<stop stop-color="#C47874"/>
<stop offset="1" stop-color="#FFC2AE"/>
</linearGradient>
<radialGradient id="paint21_radial_1074_502" cx="0" cy="0" r="1" gradientUnits="userSpaceOnUse" gradientTransform="translate(31.6165 33.0766) rotate(90) scale(7.66667 7.6986)">
<stop offset="0.18" stop-color="#CE7E7D"/>
<stop offset="1" stop-color="#CE7E7D" stop-opacity="0"/>
</radialGradient>
<linearGradient id="paint22_linear_1074_502" x1="8.61407" y1="25.0036" x2="19.6349" y2="40.8755" gradientUnits="userSpaceOnUse">
<stop stop-color="#FF7636"/>
<stop offset="1" stop-color="#FF7636" stop-opacity="0"/>
</linearGradient>
<linearGradient id="paint23_linear_1074_502" x1="4.46141" y1="5.75258" x2="2.63865" y2="9.17574" gradientUnits="userSpaceOnUse">
<stop stop-color="#D59776"/>
<stop offset="1" stop-color="#D59776" stop-opacity="0"/>
</linearGradient>
<linearGradient id="paint24_linear_1074_502" x1="7.18504" y1="4.93027" x2="4.69146" y2="6.8067" gradientUnits="userSpaceOnUse">
<stop stop-color="#D59776"/>
<stop offset="1" stop-color="#D59776" stop-opacity="0"/>
</linearGradient>
<linearGradient id="paint25_linear_1074_502" x1="10.5556" y1="6.08033" x2="9.82341" y2="9.078" gradientUnits="userSpaceOnUse">
<stop stop-color="#D59776"/>
<stop offset="1" stop-color="#D59776" stop-opacity="0"/>
</linearGradient>
<linearGradient id="paint26_linear_1074_502" x1="2.09604" y1="5.96918" x2="2.90104" y2="10.9659" gradientUnits="userSpaceOnUse">
<stop stop-color="#F1BEA1"/>
<stop offset="1" stop-color="#F1BEA1" stop-opacity="0"/>
</linearGradient>
<linearGradient id="paint27_linear_1074_502" x1="-nan" y1="-nan" x2="-nan" y2="-nan" gradientUnits="userSpaceOnUse">
<stop stop-color="#F1BEA1"/>
<stop offset="1" stop-color="#F1BEA1" stop-opacity="0"/>
</linearGradient>
<linearGradient id="paint28_linear_1074_502" x1="8.40932" y1="2.84494" x2="10.5215" y2="9.89061" gradientUnits="userSpaceOnUse">
<stop stop-color="#F1BEA1"/>
<stop offset="1" stop-color="#F1BEA1" stop-opacity="0"/>
</linearGradient>
<linearGradient id="paint29_linear_1074_502" x1="10.24" y1="4.66394" x2="10.8456" y2="11.2419" gradientUnits="userSpaceOnUse">
<stop stop-color="#F1BEA1"/>
<stop offset="1" stop-color="#F1BEA1" stop-opacity="0"/>
</linearGradient>
<linearGradient id="paint30_linear_1074_502" x1="4.57787" y1="9.54761" x2="2.48487" y2="9.41536" gradientUnits="userSpaceOnUse">
<stop stop-color="#EFB99B"/>
<stop offset="1" stop-color="#EFB99B" stop-opacity="0"/>
</linearGradient>
<linearGradient id="paint31_linear_1074_502" x1="7.01545" y1="9.21793" x2="5.93445" y2="8.94768" gradientUnits="userSpaceOnUse">
<stop stop-color="#EFB99B"/>
<stop offset="1" stop-color="#EFB99B" stop-opacity="0"/>
</linearGradient>
<linearGradient id="paint32_linear_1074_502" x1="9.89258" y1="8.85947" x2="8.3535" y2="8.45122" gradientUnits="userSpaceOnUse">
<stop stop-color="#EFB99B"/>
<stop offset="1" stop-color="#EFB99B" stop-opacity="0"/>
</linearGradient>
<radialGradient id="paint33_radial_1074_502" cx="0" cy="0" r="1" gradientUnits="userSpaceOnUse" gradientTransform="translate(42.4496 25.1799) rotate(69.6569) scale(4.90886 5.83137)">
<stop offset="0.215" stop-color="#313131"/>
<stop offset="1" stop-color="#1A161E"/>
</radialGradient>
<radialGradient id="paint34_radial_1074_502" cx="0" cy="0" r="1" gradientUnits="userSpaceOnUse" gradientTransform="translate(17.8124 26.2973) rotate(17.4471) scale(3.52725 10.8819)">
<stop stop-color="#564943"/>
<stop offset="0.746" stop-color="#1E191C"/>
</radialGradient>
<radialGradient id="paint35_radial_1074_502" cx="0" cy="0" r="1" gradientUnits="userSpaceOnUse" gradientTransform="translate(38.0162 23.0352) rotate(180) scale(11.9147 21.077)">
<stop stop-color="#FFDCC0"/>
<stop offset="1" stop-color="#D6A195"/>
</radialGradient>
<linearGradient id="paint36_linear_1074_502" x1="43.3694" y1="26.8762" x2="33.4507" y2="26.8762" gradientUnits="userSpaceOnUse">
<stop stop-color="#FFD6BA"/>
<stop offset="1" stop-color="#FFD6BA" stop-opacity="0"/>
</linearGradient>
<radialGradient id="paint37_radial_1074_502" cx="0" cy="0" r="1" gradientUnits="userSpaceOnUse" gradientTransform="translate(35.2217 9.55912) rotate(94.47) scale(29.1882 24.1713)">
<stop offset="0.767" stop-color="#C9747E" stop-opacity="0"/>
<stop offset="1" stop-color="#C9747E"/>
</radialGradient>
<radialGradient id="paint38_radial_1074_502" cx="0" cy="0" r="1" gradientUnits="userSpaceOnUse" gradientTransform="translate(37.1939 20.0414) rotate(-90) scale(2.61719 3.23878)">
<stop offset="0.325" stop-color="#F6B8A8"/>
<stop offset="1" stop-color="#F6B8A8" stop-opacity="0"/>
</radialGradient>
<radialGradient id="paint39_radial_1074_502" cx="0" cy="0" r="1" gradientUnits="userSpaceOnUse" gradientTransform="translate(26.3743 20.1487) rotate(-89.7944) scale(2.49398 2.71404)">
<stop offset="0.378" stop-color="#D39991"/>
<stop offset="1" stop-color="#D39991" stop-opacity="0"/>
</radialGradient>
<radialGradient id="paint40_radial_1074_502" cx="0" cy="0" r="1" gradientUnits="userSpaceOnUse" gradientTransform="translate(39.4388 25.2882) rotate(176.388) scale(19.4017 49.5616)">
<stop offset="0.836" stop-color="#E6AD97" stop-opacity="0"/>
<stop offset="1" stop-color="#E6AD97"/>
</radialGradient>
<radialGradient id="paint41_radial_1074_502" cx="0" cy="0" r="1" gradientUnits="userSpaceOnUse" gradientTransform="translate(19.1562 13.1759) rotate(-46.6112) scale(10.2797 3.76306)">
<stop offset="0.428" stop-color="#9F6D5C"/>
<stop offset="1" stop-color="#9F6D5C" stop-opacity="0"/>
</radialGradient>
<radialGradient id="paint42_radial_1074_502" cx="0" cy="0" r="1" gradientUnits="userSpaceOnUse" gradientTransform="translate(37.1479 11.6866) rotate(121.159) scale(7.6782 6.33899)">
<stop offset="0.078" stop-color="#F6C3B0"/>
<stop offset="1" stop-color="#F6C3B0" stop-opacity="0"/>
</radialGradient>
<linearGradient id="paint43_linear_1074_502" x1="33.5276" y1="24.5723" x2="31.6166" y2="24.6528" gradientUnits="userSpaceOnUse">
<stop offset="0.36" stop-color="#FFDFC7"/>
<stop offset="1" stop-color="#FFDFC7" stop-opacity="0"/>
</linearGradient>
<radialGradient id="paint44_radial_1074_502" cx="0" cy="0" r="1" gradientUnits="userSpaceOnUse" gradientTransform="translate(32.6785 26.1363) rotate(90) scale(0.556332 1.74848)">
<stop stop-color="#FFDDC7"/>
<stop offset="1" stop-color="#FFDDC7" stop-opacity="0"/>
</radialGradient>
<linearGradient id="paint45_linear_1074_502" x1="31.6166" y1="27.1694" x2="31.6166" y2="26.1095" gradientUnits="userSpaceOnUse">
<stop stop-color="#D89793"/>
<stop offset="1" stop-color="#D89793" stop-opacity="0"/>
</linearGradient>
<radialGradient id="paint46_radial_1074_502" cx="0" cy="0" r="1" gradientUnits="userSpaceOnUse" gradientTransform="translate(32.9438 24.837) rotate(155.369) scale(3.81384 6.12916)">
<stop offset="0.714" stop-color="#D3968C" stop-opacity="0"/>
<stop offset="1" stop-color="#D3968C"/>
</radialGradient>
<linearGradient id="paint47_linear_1074_502" x1="31.6166" y1="20.7102" x2="31.6166" y2="22.2493" gradientUnits="userSpaceOnUse">
<stop stop-color="#E8BBA8"/>
<stop offset="1" stop-color="#E8BBA8" stop-opacity="0"/>
</linearGradient>
<linearGradient id="paint48_linear_1074_502" x1="28.8778" y1="30.7497" x2="29.6043" y2="28.8465" gradientUnits="userSpaceOnUse">
<stop stop-color="#E1ACA6"/>
<stop offset="1" stop-color="#E1ACA6" stop-opacity="0"/>
</linearGradient>
<radialGradient id="paint49_radial_1074_502" cx="0" cy="0" r="1" gradientUnits="userSpaceOnUse" gradientTransform="translate(31.6164 31.1005) rotate(-90) scale(1.64262 6.60868)">
<stop stop-color="#88014E"/>
<stop offset="1" stop-color="#86004D"/>
</radialGradient>
<linearGradient id="paint50_linear_1074_502" x1="47.2337" y1="10.1283" x2="20.7683" y2="10.1283" gradientUnits="userSpaceOnUse">
<stop stop-color="#443D40"/>
<stop offset="1" stop-color="#272127"/>
</linearGradient>
<radialGradient id="paint51_radial_1074_502" cx="0" cy="0" r="1" gradientUnits="userSpaceOnUse" gradientTransform="translate(19.6988 16.4418) rotate(-90) scale(7.97983 20.18)">
<stop offset="0.536" stop-color="#3E3433"/>
<stop offset="1" stop-color="#3E3433" stop-opacity="0"/>
</radialGradient>
<radialGradient id="paint52_radial_1074_502" cx="0" cy="0" r="1" gradientUnits="userSpaceOnUse" gradientTransform="translate(42.695 19.4299) rotate(-87.4013) scale(5.73221 10.1563)">
<stop stop-color="#4F4D4D"/>
<stop offset="1" stop-color="#4F4D4D" stop-opacity="0"/>
</radialGradient>
<radialGradient id="paint53_radial_1074_502" cx="0" cy="0" r="1" gradientUnits="userSpaceOnUse" gradientTransform="translate(40.9738 5.12579) rotate(-146.667) scale(6.43452 4.72325)">
<stop stop-color="#5E5A5B"/>
<stop offset="1" stop-color="#5E5A5B" stop-opacity="0"/>
</radialGradient>
<radialGradient id="paint54_radial_1074_502" cx="0" cy="0" r="1" gradientUnits="userSpaceOnUse" gradientTransform="translate(29.5543 1.49562) rotate(58.4651) scale(3.9441 9.1327)">
<stop offset="0.287" stop-color="#484646"/>
<stop offset="1" stop-color="#484646" stop-opacity="0"/>
</radialGradient>
<radialGradient id="paint55_radial_1074_502" cx="0" cy="0" r="1" gradientUnits="userSpaceOnUse" gradientTransform="translate(32.1952 6.64384) rotate(180) scale(5.01657 1.86185)">
<stop stop-color="#423C3F"/>
<stop offset="1" stop-color="#423C3F" stop-opacity="0"/>
</radialGradient>
<radialGradient id="paint56_radial_1074_502" cx="0" cy="0" r="1" gradientUnits="userSpaceOnUse" gradientTransform="translate(19.2385 15.6292) rotate(-57.724) scale(13.7352 15.2172)">
<stop offset="0.093" stop-color="#0B0306"/>
<stop offset="0.311" stop-color="#1C0C20"/>
<stop offset="1" stop-color="#1C0C20" stop-opacity="0"/>
</radialGradient>
<radialGradient id="paint57_radial_1074_502" cx="0" cy="0" r="1" gradientUnits="userSpaceOnUse" gradientTransform="translate(39.3984 8.41478) scale(6.97034 2.72529)">
<stop stop-color="#4E494B"/>
<stop offset="1" stop-color="#4E494B" stop-opacity="0"/>
</radialGradient>
<radialGradient id="paint58_radial_1074_502" cx="0" cy="0" r="1" gradientUnits="userSpaceOnUse" gradientTransform="translate(37.6185 15.3369) rotate(-43.614) scale(8.43236 15.4375)">
<stop offset="0.857" stop-color="#545051" stop-opacity="0"/>
<stop offset="1" stop-color="#545051"/>
</radialGradient>
<radialGradient id="paint59_radial_1074_502" cx="0" cy="0" r="1" gradientUnits="userSpaceOnUse" gradientTransform="translate(35.5996 11.9721) rotate(6.66662) scale(7.45339 3.12058)">
<stop stop-color="#200E25"/>
<stop offset="1" stop-color="#200E25" stop-opacity="0"/>
</radialGradient>
<radialGradient id="paint60_radial_1074_502" cx="0" cy="0" r="1" gradientUnits="userSpaceOnUse" gradientTransform="translate(36.59 20.946) rotate(90) scale(1.84907 2.94114)">
<stop offset="0.802" stop-color="#7D574A"/>
<stop offset="1" stop-color="#664842"/>
</radialGradient>
<radialGradient id="paint61_radial_1074_502" cx="0" cy="0" r="1" gradientUnits="userSpaceOnUse" gradientTransform="translate(36.0689 21.1377) rotate(-127.812) scale(0.862153 1.18698)">
<stop offset="0.766" stop-color="#FFE6E2" stop-opacity="0"/>
<stop offset="0.966" stop-color="#FFE6E2"/>
</radialGradient>
<linearGradient id="paint62_linear_1074_502" x1="38.3633" y1="21.0686" x2="37.6484" y2="21.5095" gradientUnits="userSpaceOnUse">
<stop stop-color="#B4948D"/>
<stop offset="1" stop-color="#B4948D" stop-opacity="0"/>
</linearGradient>
<radialGradient id="paint63_radial_1074_502" cx="0" cy="0" r="1" gradientUnits="userSpaceOnUse" gradientTransform="translate(26.6426 20.946) rotate(90) scale(1.84916 2.9413)">
<stop offset="0.802" stop-color="#7D574A"/>
<stop offset="1" stop-color="#664842"/>
</radialGradient>
<linearGradient id="paint64_linear_1074_502" x1="28.3389" y1="21.0686" x2="27.624" y2="21.5094" gradientUnits="userSpaceOnUse">
<stop stop-color="#B4948D"/>
<stop offset="1" stop-color="#B4948D" stop-opacity="0"/>
</linearGradient>
<radialGradient id="paint65_radial_1074_502" cx="0" cy="0" r="1" gradientUnits="userSpaceOnUse" gradientTransform="translate(26.3314 21.3779) rotate(-118.811) scale(1.12618 1.35373)">
<stop offset="0.766" stop-color="#FFE6E2" stop-opacity="0"/>
<stop offset="0.966" stop-color="#FFE6E2"/>
</radialGradient>
<linearGradient id="paint66_linear_1074_502" x1="46.2849" y1="21.1299" x2="43.5345" y2="26.0903" gradientUnits="userSpaceOnUse">
<stop stop-color="#FFD6BD"/>
<stop offset="1" stop-color="#F0B8A6"/>
</linearGradient>
<radialGradient id="paint67_radial_1074_502" cx="0" cy="0" r="1" gradientUnits="userSpaceOnUse" gradientTransform="translate(42.1411 20.9766) rotate(74.3476) scale(5.30953 5.0657)">
<stop offset="0.856" stop-color="#CE978E" stop-opacity="0"/>
<stop offset="1" stop-color="#CE978E"/>
</radialGradient>
<radialGradient id="paint68_radial_1074_502" cx="0" cy="0" r="1" gradientUnits="userSpaceOnUse" gradientTransform="translate(42.9633 22.2205) rotate(-53.9199) scale(3.04869 2.55541)">
<stop offset="0.664" stop-color="#F7B99C"/>
<stop offset="1" stop-color="#F7B99C" stop-opacity="0"/>
</radialGradient>
<radialGradient id="paint69_radial_1074_502" cx="0" cy="0" r="1" gradientUnits="userSpaceOnUse" gradientTransform="translate(43.2221 22.6115) rotate(-69.263) scale(3.77835 5.04838)">
<stop offset="0.803" stop-color="#EBBB9D" stop-opacity="0"/>
<stop offset="1" stop-color="#EBBB9D"/>
</radialGradient>
<linearGradient id="paint70_linear_1074_502" x1="18.2842" y1="22.7361" x2="21.6077" y2="22.4448" gradientUnits="userSpaceOnUse">
<stop stop-color="#D19787"/>
<stop offset="1" stop-color="#C9887D"/>
</linearGradient>
<radialGradient id="paint71_radial_1074_502" cx="0" cy="0" r="1" gradientUnits="userSpaceOnUse" gradientTransform="translate(20.4136 22.4448) rotate(-173.034) scale(3.70389 3.97596)">
<stop offset="0.775" stop-color="#E8AF99" stop-opacity="0"/>
<stop offset="1" stop-color="#E8AF99"/>
</radialGradient>
<radialGradient id="paint72_radial_1074_502" cx="0" cy="0" r="1" gradientUnits="userSpaceOnUse" gradientTransform="translate(20.4152 22.4449) rotate(170.26) scale(2.11927 2.60047)">
<stop stop-color="#C18472"/>
<stop offset="1" stop-color="#CA8B7A"/>
</radialGradient>
<linearGradient id="paint73_linear_1074_502" x1="44.1035" y1="20.2848" x2="44.1035" y2="24.6222" gradientUnits="userSpaceOnUse">
<stop stop-color="#F9BB9E"/>
<stop offset="1" stop-color="#F6BBA0"/>
</linearGradient>
</defs>
</svg>
