<svg width="72" height="72" viewBox="0 0 72 72" fill="none" xmlns="http://www.w3.org/2000/svg">
<path d="M63.4998 71.75H63.0323C8.99483 68.6425 1.32233 23.0475 0.249826 9.1325C0.163408 8.0506 0.29132 6.96227 0.626232 5.92988C0.961144 4.89749 1.49647 3.94134 2.20155 3.11619C2.90662 2.29105 3.76759 1.61314 4.73511 1.12131C5.70262 0.629475 6.75768 0.333385 7.83983 0.250003H22.9923C24.0939 0.248936 25.1703 0.578654 26.0823 1.19645C26.9943 1.81424 27.6998 2.69164 28.1073 3.715L32.2873 14C32.6898 14.9998 32.7897 16.0957 32.5746 17.1518C32.3594 18.2078 31.8388 19.1773 31.0773 19.94L25.2198 25.8525C26.1348 31.0521 28.6248 35.8451 32.353 39.5831C36.0813 43.3212 40.8677 45.8238 46.0648 46.7525L52.0323 40.84C52.8064 40.0869 53.7851 39.5784 54.8464 39.3779C55.9076 39.1774 57.0043 39.2938 57.9998 39.7125L68.3673 43.865C69.3753 44.2854 70.2352 44.9964 70.8376 45.9073C71.44 46.8183 71.7576 47.8879 71.7498 48.98V63.5C71.7498 65.688 70.8806 67.7865 69.3335 69.3336C67.7863 70.8808 65.6879 71.75 63.4998 71.75ZM8.49983 5.75C7.77048 5.75 7.07101 6.03973 6.55528 6.55546C6.03956 7.07118 5.74983 7.77066 5.74983 8.5V8.72C7.01483 25 15.1273 63.5 63.3348 66.25C63.6961 66.2723 64.0582 66.2231 64.4005 66.1052C64.7427 65.9872 65.0582 65.8029 65.3291 65.5628C65.5999 65.3226 65.8206 65.0313 65.9786 64.7057C66.1366 64.38 66.2288 64.0264 66.2498 63.665V48.98L55.8823 44.8275L47.9898 52.665L46.6698 52.5C22.7448 49.5025 19.4998 25.5775 19.4998 25.33L19.3348 24.01L27.1448 16.1175L23.0198 5.75H8.49983Z" fill="white"/>
</svg>
