<svg width="24" height="24" viewBox="0 0 24 24" fill="none" xmlns="http://www.w3.org/2000/svg">
<path d="M2.00514 0.772945L23.0751 10.8499C23.2881 10.9516 23.4679 11.1115 23.5938 11.3112C23.7197 11.5108 23.7865 11.7419 23.7865 11.9779C23.7865 12.2139 23.7197 12.4451 23.5938 12.6447C23.4679 12.8444 23.2881 13.0043 23.0751 13.1059L2.00514 23.1829C1.78914 23.2864 1.54797 23.3256 1.31031 23.296C1.07266 23.2663 0.848537 23.169 0.664603 23.0156C0.480669 22.8622 0.34467 22.6592 0.272788 22.4308C0.200906 22.2023 0.196167 21.958 0.259135 21.7269L2.36714 13.9989C2.39294 13.9042 2.44605 13.8192 2.51985 13.7545C2.59365 13.6898 2.68487 13.6482 2.78214 13.6349L12.9921 12.2479C13.0348 12.2419 13.0752 12.2249 13.1094 12.1986C13.1435 12.1723 13.1703 12.1376 13.1871 12.0979L13.2051 12.0359C13.213 11.9801 13.2018 11.9233 13.1733 11.8746C13.1448 11.826 13.1007 11.7884 13.0481 11.7679L12.9931 11.7529L2.79314 10.3659C2.69605 10.3525 2.60505 10.3109 2.53144 10.2462C2.45783 10.1814 2.40487 10.0965 2.37914 10.0019L0.259135 2.22994C0.195912 1.99881 0.200458 1.75437 0.272232 1.52574C0.344006 1.29712 0.479982 1.09394 0.663965 0.940412C0.847948 0.786882 1.07218 0.68947 1.30996 0.659779C1.54774 0.630089 1.78905 0.66937 2.00514 0.772945Z" fill="white"/>
</svg>
