<svg width="16" height="22" viewBox="0 0 16 22" fill="none" xmlns="http://www.w3.org/2000/svg">
<path fill-rule="evenodd" clip-rule="evenodd" d="M4.71413 0C2.47105 0 0.66705 1.88192 0.66705 4.18733C0.66705 5.58892 1.33438 6.83375 2.36013 7.59367C1.83147 7.98975 1.40296 8.50417 1.10894 9.09571C0.814926 9.68724 0.663585 10.3394 0.66705 11C0.66705 12.4025 1.33438 13.6464 2.36013 14.4063C1.83147 14.8024 1.40296 15.3168 1.10894 15.9084C0.814926 16.4999 0.663585 17.1521 0.66705 17.8127C0.66705 20.1181 2.47105 22 4.71413 22C6.9563 22 8.76122 20.1181 8.76122 17.8127V14.2725C9.4701 14.8636 10.3637 15.1876 11.2866 15.1883C13.5297 15.1873 15.3337 13.3054 15.3337 11C15.3374 10.3394 15.1862 9.68713 14.8921 9.09556C14.5981 8.50399 14.1695 7.9896 13.6406 7.59367C14.1693 7.19759 14.5978 6.68316 14.8918 6.09163C15.1858 5.50009 15.3372 4.8479 15.3337 4.18733C15.3337 1.88192 13.5297 0 11.2866 0H4.71413ZM2.1878 4.18733C2.1878 2.72892 3.3263 1.56108 4.71413 1.56108H7.23955V6.81358H4.71413C3.3263 6.81358 2.1878 5.64483 2.1878 4.18733ZM11.2866 6.81267H8.76122V1.56017H11.2866C12.6754 1.56017 13.813 2.72892 13.813 4.18733C13.813 5.64483 12.6754 6.81267 11.2866 6.81267ZM2.18872 11C2.18872 9.5425 3.32722 8.37375 4.71505 8.37375H7.24047V13.6263H4.71413C3.32538 13.6263 2.18872 12.4575 2.18872 11ZM8.76122 11C8.76122 9.5425 9.89972 8.37375 11.2876 8.37375C12.6763 8.37375 13.8139 9.54158 13.8139 11C13.8139 12.4575 12.6763 13.6263 11.2876 13.6263C9.89972 13.6263 8.76122 12.4584 8.76122 11ZM2.18872 17.8127C2.18872 16.3552 3.32722 15.1873 4.71505 15.1873H7.24047V17.8127C7.24047 19.2711 6.1038 20.4389 4.71505 20.4389C3.32722 20.4389 2.18872 19.2711 2.18872 17.8127Z" fill="url(#paint0_linear_1411_492)"/>
<defs>
<linearGradient id="paint0_linear_1411_492" x1="-2.74603" y1="-3.32738e-06" x2="16.1456" y2="0.093332" gradientUnits="userSpaceOnUse">
<stop offset="0.0195289" stop-color="#B91DFF"/>
<stop offset="1" stop-color="#2E3DFF"/>
</linearGradient>
</defs>
</svg>
