<svg width="49" height="54" viewBox="0 0 49 54" fill="none" xmlns="http://www.w3.org/2000/svg">
<path d="M0.646492 13.4825C0.406908 9.80058 0.107908 7.813 0.0178251 6.50583C-0.0492582 5.5245 0.0619086 4.46267 1.37866 4.22308C2.52483 4.07933 3.07299 5.0875 3.11708 5.48808C3.11133 5.10475 3.11708 4.18475 3.11708 3.94517C3.11708 3.54267 3.13241 2.0745 4.76541 2.0745C5.91541 2.0745 6.32941 3.19958 6.29874 3.72858C6.31791 3.53308 6.34283 2.937 6.36583 2.3735C6.40224 1.54358 6.84883 0.476 8.17899 0.500916C9.32324 0.577583 9.69891 1.67775 9.64524 2.3735L9.42099 5.95C9.46699 5.58967 9.61649 4.67542 9.95191 3.38167C10.2873 2.08792 11.2974 2.00167 11.7881 2.07258C12.411 2.16075 13.4747 2.76258 13.0301 4.5125C12.503 6.72817 12.1446 9.58208 12.02 10.8087C12.641 10.5538 13.2505 10.0191 13.9386 9.30033C14.6286 8.58158 15.6387 8.56625 16.2079 8.99367C16.8596 9.55333 17.2084 10.8471 16.4379 11.6176C15.5505 12.4322 12.3554 16.2272 10.7684 18.1247C10.3295 18.6824 8.85749 19.7998 6.48658 19.7998C2.26416 19.6216 0.847742 16.5875 0.646492 13.4825Z" fill="url(#paint0_radial_1074_378)"/>
<path d="M0.646492 13.4825C0.406908 9.80058 0.107908 7.813 0.0178251 6.50583C-0.0492582 5.5245 0.0619086 4.46267 1.37866 4.22308C2.52483 4.07933 3.07299 5.0875 3.11708 5.48808C3.11133 5.10475 3.11708 4.18475 3.11708 3.94517C3.11708 3.54267 3.13241 2.0745 4.76541 2.0745C5.91541 2.0745 6.32941 3.19958 6.29874 3.72858C6.31791 3.53308 6.34283 2.937 6.36583 2.3735C6.40224 1.54358 6.84883 0.476 8.17899 0.500916C9.32324 0.577583 9.69891 1.67775 9.64524 2.3735L9.42099 5.95C9.46699 5.58967 9.61649 4.67542 9.95191 3.38167C10.2873 2.08792 11.2974 2.00167 11.7881 2.07258C12.411 2.16075 13.4747 2.76258 13.0301 4.5125C12.503 6.72817 12.1446 9.58208 12.02 10.8087C12.641 10.5538 13.2505 10.0191 13.9386 9.30033C14.6286 8.58158 15.6387 8.56625 16.2079 8.99367C16.8596 9.55333 17.2084 10.8471 16.4379 11.6176C15.5505 12.4322 12.3554 16.2272 10.7684 18.1247C10.3295 18.6824 8.85749 19.7998 6.48658 19.7998C2.26416 19.6216 0.847742 16.5875 0.646492 13.4825Z" fill="url(#paint1_radial_1074_378)"/>
<path d="M0.646492 13.4825C0.406908 9.80058 0.107908 7.813 0.0178251 6.50583C-0.0492582 5.5245 0.0619086 4.46267 1.37866 4.22308C2.52483 4.07933 3.07299 5.0875 3.11708 5.48808C3.11133 5.10475 3.11708 4.18475 3.11708 3.94517C3.11708 3.54267 3.13241 2.0745 4.76541 2.0745C5.91541 2.0745 6.32941 3.19958 6.29874 3.72858C6.31791 3.53308 6.34283 2.937 6.36583 2.3735C6.40224 1.54358 6.84883 0.476 8.17899 0.500916C9.32324 0.577583 9.69891 1.67775 9.64524 2.3735L9.42099 5.95C9.46699 5.58967 9.61649 4.67542 9.95191 3.38167C10.2873 2.08792 11.2974 2.00167 11.7881 2.07258C12.411 2.16075 13.4747 2.76258 13.0301 4.5125C12.503 6.72817 12.1446 9.58208 12.02 10.8087C12.641 10.5538 13.2505 10.0191 13.9386 9.30033C14.6286 8.58158 15.6387 8.56625 16.2079 8.99367C16.8596 9.55333 17.2084 10.8471 16.4379 11.6176C15.5505 12.4322 12.3554 16.2272 10.7684 18.1247C10.3295 18.6824 8.85749 19.7998 6.48658 19.7998C2.26416 19.6216 0.847742 16.5875 0.646492 13.4825Z" fill="url(#paint2_linear_1074_378)"/>
<path d="M0.646492 13.4825C0.406908 9.80058 0.107908 7.813 0.0178251 6.50583C-0.0492582 5.5245 0.0619086 4.46267 1.37866 4.22308C2.52483 4.07933 3.07299 5.0875 3.11708 5.48808C3.11133 5.10475 3.11708 4.18475 3.11708 3.94517C3.11708 3.54267 3.13241 2.0745 4.76541 2.0745C5.91541 2.0745 6.32941 3.19958 6.29874 3.72858C6.31791 3.53308 6.34283 2.937 6.36583 2.3735C6.40224 1.54358 6.84883 0.476 8.17899 0.500916C9.32324 0.577583 9.69891 1.67775 9.64524 2.3735L9.42099 5.95C9.46699 5.58967 9.61649 4.67542 9.95191 3.38167C10.2873 2.08792 11.2974 2.00167 11.7881 2.07258C12.411 2.16075 13.4747 2.76258 13.0301 4.5125C12.503 6.72817 12.1446 9.58208 12.02 10.8087C12.641 10.5538 13.2505 10.0191 13.9386 9.30033C14.6286 8.58158 15.6387 8.56625 16.2079 8.99367C16.8596 9.55333 17.2084 10.8471 16.4379 11.6176C15.5505 12.4322 12.3554 16.2272 10.7684 18.1247C10.3295 18.6824 8.85749 19.7998 6.48658 19.7998C2.26416 19.6216 0.847742 16.5875 0.646492 13.4825Z" fill="url(#paint3_radial_1074_378)"/>
<path d="M0.646492 13.4825C0.406908 9.80058 0.107908 7.813 0.0178251 6.50583C-0.0492582 5.5245 0.0619086 4.46267 1.37866 4.22308C2.52483 4.07933 3.07299 5.0875 3.11708 5.48808C3.11133 5.10475 3.11708 4.18475 3.11708 3.94517C3.11708 3.54267 3.13241 2.0745 4.76541 2.0745C5.91541 2.0745 6.32941 3.19958 6.29874 3.72858C6.31791 3.53308 6.34283 2.937 6.36583 2.3735C6.40224 1.54358 6.84883 0.476 8.17899 0.500916C9.32324 0.577583 9.69891 1.67775 9.64524 2.3735L9.42099 5.95C9.46699 5.58967 9.61649 4.67542 9.95191 3.38167C10.2873 2.08792 11.2974 2.00167 11.7881 2.07258C12.411 2.16075 13.4747 2.76258 13.0301 4.5125C12.503 6.72817 12.1446 9.58208 12.02 10.8087C12.641 10.5538 13.2505 10.0191 13.9386 9.30033C14.6286 8.58158 15.6387 8.56625 16.2079 8.99367C16.8596 9.55333 17.2084 10.8471 16.4379 11.6176C15.5505 12.4322 12.3554 16.2272 10.7684 18.1247C10.3295 18.6824 8.85749 19.7998 6.48658 19.7998C2.26416 19.6216 0.847742 16.5875 0.646492 13.4825Z" fill="url(#paint4_radial_1074_378)"/>
<path d="M0.646492 13.4825C0.406908 9.80058 0.107908 7.813 0.0178251 6.50583C-0.0492582 5.5245 0.0619086 4.46267 1.37866 4.22308C2.52483 4.07933 3.07299 5.0875 3.11708 5.48808C3.11133 5.10475 3.11708 4.18475 3.11708 3.94517C3.11708 3.54267 3.13241 2.0745 4.76541 2.0745C5.91541 2.0745 6.32941 3.19958 6.29874 3.72858C6.31791 3.53308 6.34283 2.937 6.36583 2.3735C6.40224 1.54358 6.84883 0.476 8.17899 0.500916C9.32324 0.577583 9.69891 1.67775 9.64524 2.3735L9.42099 5.95C9.46699 5.58967 9.61649 4.67542 9.95191 3.38167C10.2873 2.08792 11.2974 2.00167 11.7881 2.07258C12.411 2.16075 13.4747 2.76258 13.0301 4.5125C12.503 6.72817 12.1446 9.58208 12.02 10.8087C12.641 10.5538 13.2505 10.0191 13.9386 9.30033C14.6286 8.58158 15.6387 8.56625 16.2079 8.99367C16.8596 9.55333 17.2084 10.8471 16.4379 11.6176C15.5505 12.4322 12.3554 16.2272 10.7684 18.1247C10.3295 18.6824 8.85749 19.7998 6.48658 19.7998C2.26416 19.6216 0.847742 16.5875 0.646492 13.4825Z" fill="url(#paint5_radial_1074_378)"/>
<path d="M0.646492 13.4825C0.406908 9.80058 0.107908 7.813 0.0178251 6.50583C-0.0492582 5.5245 0.0619086 4.46267 1.37866 4.22308C2.52483 4.07933 3.07299 5.0875 3.11708 5.48808C3.11133 5.10475 3.11708 4.18475 3.11708 3.94517C3.11708 3.54267 3.13241 2.0745 4.76541 2.0745C5.91541 2.0745 6.32941 3.19958 6.29874 3.72858C6.31791 3.53308 6.34283 2.937 6.36583 2.3735C6.40224 1.54358 6.84883 0.476 8.17899 0.500916C9.32324 0.577583 9.69891 1.67775 9.64524 2.3735L9.42099 5.95C9.46699 5.58967 9.61649 4.67542 9.95191 3.38167C10.2873 2.08792 11.2974 2.00167 11.7881 2.07258C12.411 2.16075 13.4747 2.76258 13.0301 4.5125C12.503 6.72817 12.1446 9.58208 12.02 10.8087C12.641 10.5538 13.2505 10.0191 13.9386 9.30033C14.6286 8.58158 15.6387 8.56625 16.2079 8.99367C16.8596 9.55333 17.2084 10.8471 16.4379 11.6176C15.5505 12.4322 12.3554 16.2272 10.7684 18.1247C10.3295 18.6824 8.85749 19.7998 6.48658 19.7998C2.26416 19.6216 0.847742 16.5875 0.646492 13.4825Z" fill="url(#paint6_radial_1074_378)"/>
<path d="M0.646492 13.4825C0.406908 9.80058 0.107908 7.813 0.0178251 6.50583C-0.0492582 5.5245 0.0619086 4.46267 1.37866 4.22308C2.52483 4.07933 3.07299 5.0875 3.11708 5.48808C3.11133 5.10475 3.11708 4.18475 3.11708 3.94517C3.11708 3.54267 3.13241 2.0745 4.76541 2.0745C5.91541 2.0745 6.32941 3.19958 6.29874 3.72858C6.31791 3.53308 6.34283 2.937 6.36583 2.3735C6.40224 1.54358 6.84883 0.476 8.17899 0.500916C9.32324 0.577583 9.69891 1.67775 9.64524 2.3735L9.42099 5.95C9.46699 5.58967 9.61649 4.67542 9.95191 3.38167C10.2873 2.08792 11.2974 2.00167 11.7881 2.07258C12.411 2.16075 13.4747 2.76258 13.0301 4.5125C12.503 6.72817 12.1446 9.58208 12.02 10.8087C12.641 10.5538 13.2505 10.0191 13.9386 9.30033C14.6286 8.58158 15.6387 8.56625 16.2079 8.99367C16.8596 9.55333 17.2084 10.8471 16.4379 11.6176C15.5505 12.4322 12.3554 16.2272 10.7684 18.1247C10.3295 18.6824 8.85749 19.7998 6.48658 19.7998C2.26416 19.6216 0.847742 16.5875 0.646492 13.4825Z" fill="url(#paint7_radial_1074_378)"/>
<path d="M0.646492 13.4825C0.406908 9.80058 0.107908 7.813 0.0178251 6.50583C-0.0492582 5.5245 0.0619086 4.46267 1.37866 4.22308C2.52483 4.07933 3.07299 5.0875 3.11708 5.48808C3.11133 5.10475 3.11708 4.18475 3.11708 3.94517C3.11708 3.54267 3.13241 2.0745 4.76541 2.0745C5.91541 2.0745 6.32941 3.19958 6.29874 3.72858C6.31791 3.53308 6.34283 2.937 6.36583 2.3735C6.40224 1.54358 6.84883 0.476 8.17899 0.500916C9.32324 0.577583 9.69891 1.67775 9.64524 2.3735L9.42099 5.95C9.46699 5.58967 9.61649 4.67542 9.95191 3.38167C10.2873 2.08792 11.2974 2.00167 11.7881 2.07258C12.411 2.16075 13.4747 2.76258 13.0301 4.5125C12.503 6.72817 12.1446 9.58208 12.02 10.8087C12.641 10.5538 13.2505 10.0191 13.9386 9.30033C14.6286 8.58158 15.6387 8.56625 16.2079 8.99367C16.8596 9.55333 17.2084 10.8471 16.4379 11.6176C15.5505 12.4322 12.3554 16.2272 10.7684 18.1247C10.3295 18.6824 8.85749 19.7998 6.48658 19.7998C2.26416 19.6216 0.847742 16.5875 0.646492 13.4825Z" fill="url(#paint8_radial_1074_378)"/>
<path d="M0.646492 13.4825C0.406908 9.80058 0.107908 7.813 0.0178251 6.50583C-0.0492582 5.5245 0.0619086 4.46267 1.37866 4.22308C2.52483 4.07933 3.07299 5.0875 3.11708 5.48808C3.11133 5.10475 3.11708 4.18475 3.11708 3.94517C3.11708 3.54267 3.13241 2.0745 4.76541 2.0745C5.91541 2.0745 6.32941 3.19958 6.29874 3.72858C6.31791 3.53308 6.34283 2.937 6.36583 2.3735C6.40224 1.54358 6.84883 0.476 8.17899 0.500916C9.32324 0.577583 9.69891 1.67775 9.64524 2.3735L9.42099 5.95C9.46699 5.58967 9.61649 4.67542 9.95191 3.38167C10.2873 2.08792 11.2974 2.00167 11.7881 2.07258C12.411 2.16075 13.4747 2.76258 13.0301 4.5125C12.503 6.72817 12.1446 9.58208 12.02 10.8087C12.641 10.5538 13.2505 10.0191 13.9386 9.30033C14.6286 8.58158 15.6387 8.56625 16.2079 8.99367C16.8596 9.55333 17.2084 10.8471 16.4379 11.6176C15.5505 12.4322 12.3554 16.2272 10.7684 18.1247C10.3295 18.6824 8.85749 19.7998 6.48658 19.7998C2.26416 19.6216 0.847742 16.5875 0.646492 13.4825Z" fill="url(#paint9_radial_1074_378)"/>
<path d="M0.646492 13.4825C0.406908 9.80058 0.107908 7.813 0.0178251 6.50583C-0.0492582 5.5245 0.0619086 4.46267 1.37866 4.22308C2.52483 4.07933 3.07299 5.0875 3.11708 5.48808C3.11133 5.10475 3.11708 4.18475 3.11708 3.94517C3.11708 3.54267 3.13241 2.0745 4.76541 2.0745C5.91541 2.0745 6.32941 3.19958 6.29874 3.72858C6.31791 3.53308 6.34283 2.937 6.36583 2.3735C6.40224 1.54358 6.84883 0.476 8.17899 0.500916C9.32324 0.577583 9.69891 1.67775 9.64524 2.3735L9.42099 5.95C9.46699 5.58967 9.61649 4.67542 9.95191 3.38167C10.2873 2.08792 11.2974 2.00167 11.7881 2.07258C12.411 2.16075 13.4747 2.76258 13.0301 4.5125C12.503 6.72817 12.1446 9.58208 12.02 10.8087C12.641 10.5538 13.2505 10.0191 13.9386 9.30033C14.6286 8.58158 15.6387 8.56625 16.2079 8.99367C16.8596 9.55333 17.2084 10.8471 16.4379 11.6176C15.5505 12.4322 12.3554 16.2272 10.7684 18.1247C10.3295 18.6824 8.85749 19.7998 6.48658 19.7998C2.26416 19.6216 0.847742 16.5875 0.646492 13.4825Z" fill="url(#paint10_radial_1074_378)"/>
<path d="M0.646492 13.4825C0.406908 9.80058 0.107908 7.813 0.0178251 6.50583C-0.0492582 5.5245 0.0619086 4.46267 1.37866 4.22308C2.52483 4.07933 3.07299 5.0875 3.11708 5.48808C3.11133 5.10475 3.11708 4.18475 3.11708 3.94517C3.11708 3.54267 3.13241 2.0745 4.76541 2.0745C5.91541 2.0745 6.32941 3.19958 6.29874 3.72858C6.31791 3.53308 6.34283 2.937 6.36583 2.3735C6.40224 1.54358 6.84883 0.476 8.17899 0.500916C9.32324 0.577583 9.69891 1.67775 9.64524 2.3735L9.42099 5.95C9.46699 5.58967 9.61649 4.67542 9.95191 3.38167C10.2873 2.08792 11.2974 2.00167 11.7881 2.07258C12.411 2.16075 13.4747 2.76258 13.0301 4.5125C12.503 6.72817 12.1446 9.58208 12.02 10.8087C12.641 10.5538 13.2505 10.0191 13.9386 9.30033C14.6286 8.58158 15.6387 8.56625 16.2079 8.99367C16.8596 9.55333 17.2084 10.8471 16.4379 11.6176C15.5505 12.4322 12.3554 16.2272 10.7684 18.1247C10.3295 18.6824 8.85749 19.7998 6.48658 19.7998C2.26416 19.6216 0.847742 16.5875 0.646492 13.4825Z" fill="url(#paint11_linear_1074_378)"/>
<path d="M2.69727 19.0983C2.69727 18.8875 2.86977 18.715 3.0806 18.715H10.385C10.5959 18.715 10.7684 18.8875 10.7684 19.0983V22.3835H2.69918V19.0983H2.69727Z" fill="url(#paint12_linear_1074_378)"/>
<path d="M2.69727 19.0983C2.69727 18.8875 2.86977 18.715 3.0806 18.715H10.385C10.5959 18.715 10.7684 18.8875 10.7684 19.0983V22.3835H2.69918V19.0983H2.69727Z" fill="url(#paint13_linear_1074_378)"/>
<path d="M32.7432 36.0091H34.61C39.4017 36.0091 48.985 42.7175 48.985 53.2591H14.485V46.5508C14.4869 46.2943 14.412 46.0432 14.2699 45.8297C14.1278 45.6162 13.925 45.4501 13.6877 45.3529L7.77669 42.7175C2.98503 40.8008 1.06836 36.0091 1.06836 32.7546V22.6212C1.06836 21.5402 1.88294 20.6758 2.86044 20.6758H10.7763C11.7729 20.6758 12.5684 21.5594 12.5684 22.6212V30.2591C12.5684 32.7546 14.485 33.1341 14.485 33.1341L25.985 36.0091H32.7451H32.7432Z" fill="#FF611D"/>
<path d="M32.7432 36.0091H34.61C39.4017 36.0091 48.985 42.7175 48.985 53.2591H14.485V46.5508C14.4869 46.2943 14.412 46.0432 14.2699 45.8297C14.1278 45.6162 13.925 45.4501 13.6877 45.3529L7.77669 42.7175C2.98503 40.8008 1.06836 36.0091 1.06836 32.7546V22.6212C1.06836 21.5402 1.88294 20.6758 2.86044 20.6758H10.7763C11.7729 20.6758 12.5684 21.5594 12.5684 22.6212V30.2591C12.5684 32.7546 14.485 33.1341 14.485 33.1341L25.985 36.0091H32.7451H32.7432Z" fill="url(#paint14_radial_1074_378)"/>
<path d="M32.7432 36.0091H34.61C39.4017 36.0091 48.985 42.7175 48.985 53.2591H14.485V46.5508C14.4869 46.2943 14.412 46.0432 14.2699 45.8297C14.1278 45.6162 13.925 45.4501 13.6877 45.3529L7.77669 42.7175C2.98503 40.8008 1.06836 36.0091 1.06836 32.7546V22.6212C1.06836 21.5402 1.88294 20.6758 2.86044 20.6758H10.7763C11.7729 20.6758 12.5684 21.5594 12.5684 22.6212V30.2591C12.5684 32.7546 14.485 33.1341 14.485 33.1341L25.985 36.0091H32.7451H32.7432Z" fill="url(#paint15_radial_1074_378)"/>
<path d="M29.5462 36.22L14.4544 46.2729C14.4125 46.0681 14.3206 45.8769 14.1868 45.7164C14.053 45.5559 13.8815 45.431 13.6877 45.3529L7.77669 42.7175C2.98503 40.8008 1.06836 36.0091 1.06836 32.7546V22.6212C1.06836 21.5402 1.88294 20.6758 2.86044 20.6758H10.7763C11.7729 20.6758 12.5684 21.5594 12.5684 22.6212V30.2591C12.5684 32.7546 14.485 33.1341 14.485 33.1341L25.985 36.0091L29.5462 36.22Z" fill="url(#paint16_linear_1074_378)"/>
<path d="M29.5462 36.22L14.4544 46.2729C14.4125 46.0681 14.3206 45.8769 14.1868 45.7164C14.053 45.5559 13.8815 45.431 13.6877 45.3529L7.77669 42.7175C2.98503 40.8008 1.06836 36.0091 1.06836 32.7546V22.6212C1.06836 21.5402 1.88294 20.6758 2.86044 20.6758H10.7763C11.7729 20.6758 12.5684 21.5594 12.5684 22.6212V30.2591C12.5684 32.7546 14.485 33.1341 14.485 33.1341L25.985 36.0091L29.5462 36.22Z" fill="url(#paint17_radial_1074_378)"/>
<path d="M29.5462 36.22L14.4544 46.2729C14.4125 46.0681 14.3206 45.8769 14.1868 45.7164C14.053 45.5559 13.8815 45.431 13.6877 45.3529L7.77669 42.7175C2.98503 40.8008 1.06836 36.0091 1.06836 32.7546V22.6212C1.06836 21.5402 1.88294 20.6758 2.86044 20.6758H10.7763C11.7729 20.6758 12.5684 21.5594 12.5684 22.6212V30.2591C12.5684 32.7546 14.485 33.1341 14.485 33.1341L25.985 36.0091L29.5462 36.22Z" fill="url(#paint18_radial_1074_378)"/>
<path d="M29.5462 36.22L14.4544 46.2729C14.4125 46.0681 14.3206 45.8769 14.1868 45.7164C14.053 45.5559 13.8815 45.431 13.6877 45.3529L7.77669 42.7175C2.98503 40.8008 1.06836 36.0091 1.06836 32.7546V22.6212C1.06836 21.5402 1.88294 20.6758 2.86044 20.6758H10.7763C11.7729 20.6758 12.5684 21.5594 12.5684 22.6212V30.2591C12.5684 32.7546 14.485 33.1341 14.485 33.1341L25.985 36.0091L29.5462 36.22Z" fill="url(#paint19_linear_1074_378)"/>
<path d="M30.7766 41.7591C28.3463 41.7591 26.376 39.8712 26.376 37.5424V32.5591C26.376 30.2322 28.3463 28.3424 30.7766 28.3424C33.207 28.3424 35.1773 30.2322 35.1773 32.5591V37.5424C35.1773 39.8712 33.207 41.7591 30.7766 41.7591Z" fill="url(#paint20_linear_1074_378)"/>
<path d="M30.7766 41.7591C28.3463 41.7591 26.376 39.8712 26.376 37.5424V32.5591C26.376 30.2322 28.3463 28.3424 30.7766 28.3424C33.207 28.3424 35.1773 30.2322 35.1773 32.5591V37.5424C35.1773 39.8712 33.207 41.7591 30.7766 41.7591Z" fill="url(#paint21_radial_1074_378)"/>
<g filter="url(#filter0_f_1074_378)">
<path d="M8.43164 21.9351V33.4676C8.43183 34.2763 8.68777 35.0642 9.16284 35.7187C9.63792 36.3731 10.3078 36.8605 11.0766 37.1112L19.0941 39.7236" stroke="url(#paint22_linear_1074_378)"/>
</g>
<g filter="url(#filter1_f_1074_378)">
<path d="M3.13086 5.79285L3.41836 9.52076" stroke="url(#paint23_linear_1074_378)" stroke-width="0.075" stroke-linecap="round"/>
</g>
<g filter="url(#filter2_f_1074_378)">
<path d="M6.24745 4.96863L6.11328 9.37121" stroke="url(#paint24_linear_1074_378)" stroke-width="0.075" stroke-linecap="round"/>
</g>
<g filter="url(#filter3_f_1074_378)">
<path d="M9.38991 6.12256L8.94141 8.81739" stroke="url(#paint25_linear_1074_378)" stroke-width="0.075" stroke-linecap="round"/>
</g>
<g filter="url(#filter4_f_1074_378)">
<path d="M1.84082 5.10095L2.53082 10.1475" stroke="url(#paint26_linear_1074_378)" stroke-width="0.4"/>
</g>
<g filter="url(#filter5_f_1074_378)">
<path d="M5.07422 3.26855V9.18914" stroke="url(#paint27_linear_1074_378)" stroke-width="0.4"/>
</g>
<g filter="url(#filter6_f_1074_378)">
<path d="M8.59298 1.52246L8.03906 9.0818" stroke="url(#paint28_linear_1074_378)" stroke-width="0.4"/>
</g>
<g filter="url(#filter7_f_1074_378)">
<path d="M12.277 3.5293L10.7207 10.0575" stroke="url(#paint29_linear_1074_378)" stroke-width="0.4"/>
</g>
<g filter="url(#filter8_f_1074_378)">
<path d="M1.8252 11.1365C2.03603 11.0158 3.00778 10.4082 3.38345 9.68372" stroke="url(#paint30_linear_1074_378)" stroke-width="0.2" stroke-linecap="round"/>
</g>
<g filter="url(#filter9_f_1074_378)">
<path d="M5.97819 9.28503C5.72902 9.60128 5.33993 9.86003 4.98535 10.0517" stroke="url(#paint31_linear_1074_378)" stroke-width="0.2" stroke-linecap="round"/>
</g>
<g filter="url(#filter10_f_1074_378)">
<path d="M8.77482 8.91895C8.52566 9.23328 7.81457 9.60895 7.41016 9.72778" stroke="url(#paint32_linear_1074_378)" stroke-width="0.2" stroke-linecap="round"/>
</g>
<path d="M41.8551 25.9294C42.5972 25.9049 43.3152 25.6601 43.9175 25.226V27.3477C43.9231 28.3315 43.6355 29.2947 43.0914 30.1144C42.5472 30.934 41.7712 31.5729 40.8623 31.9496C41.2583 31.098 41.5233 30.1914 41.6481 29.2605L41.8551 25.9294Z" fill="url(#paint33_radial_1074_378)"/>
<path d="M19.6962 25.9294C18.9548 25.9046 18.2375 25.6597 17.6357 25.226V27.3477C17.6357 29.3832 18.849 31.1964 20.6909 31.9496C20.2942 31.0981 20.0286 30.1915 19.9032 29.2605L19.6981 25.9294H19.6962Z" fill="url(#paint34_radial_1074_378)"/>
<path d="M19.6962 25.9294C18.9548 25.9046 18.2375 25.6597 17.6357 25.226V27.3477C17.6357 29.3832 18.849 31.1964 20.6909 31.9496C20.2942 31.0981 20.0286 30.1915 19.9032 29.2605L19.6981 25.9294H19.6962Z" fill="url(#paint35_radial_1074_378)"/>
<g filter="url(#filter11_ii_1074_378)">
<path d="M19.7807 29.3832C20.0631 31.5314 21.1172 33.5036 22.7465 34.9318C24.3758 36.3601 26.469 37.147 28.6357 37.1457H32.9367C35.1035 37.1474 37.1969 36.3607 38.8262 34.9323C40.4556 33.504 41.5096 31.5316 41.7917 29.3832C42.06 25.0899 42.3302 20.8138 42.5296 16.5224C42.5208 15.6801 42.1904 14.8729 41.6061 14.2662C41.0218 13.6594 40.2277 13.2988 39.3862 13.2583H36.1969C35.1287 13.2569 34.0839 12.9456 33.1892 12.3621C32.2944 11.7786 31.5882 10.9481 31.1561 9.97122C31.0443 9.6902 30.8509 9.44909 30.6009 9.27897C30.3508 9.10885 30.0555 9.01751 29.7531 9.01672H26.8532C22.6461 9.01672 19.2363 12.4648 19.2363 16.7179C19.2363 20.9595 19.5027 25.1321 19.7807 29.3832Z" fill="url(#paint36_radial_1074_378)"/>
</g>
<path d="M19.7807 29.3832C20.0631 31.5314 21.1172 33.5036 22.7465 34.9318C24.3758 36.3601 26.469 37.147 28.6357 37.1457H32.9367C35.1035 37.1474 37.1969 36.3607 38.8262 34.9323C40.4556 33.504 41.5096 31.5316 41.7917 29.3832C42.06 25.0899 42.3302 20.8138 42.5296 16.5224C42.5208 15.6801 42.1904 14.8729 41.6061 14.2662C41.0218 13.6594 40.2277 13.2988 39.3862 13.2583H36.1969C35.1287 13.2569 34.0839 12.9456 33.1892 12.3621C32.2944 11.7786 31.5882 10.9481 31.1561 9.97122C31.0443 9.6902 30.8509 9.44909 30.6009 9.27897C30.3508 9.10885 30.0555 9.01751 29.7531 9.01672H26.8532C22.6461 9.01672 19.2363 12.4648 19.2363 16.7179C19.2363 20.9595 19.5027 25.1321 19.7807 29.3832Z" fill="url(#paint37_linear_1074_378)"/>
<path d="M19.7807 29.3832C20.0631 31.5314 21.1172 33.5036 22.7465 34.9318C24.3758 36.3601 26.469 37.147 28.6357 37.1457H32.9367C35.1035 37.1474 37.1969 36.3607 38.8262 34.9323C40.4556 33.504 41.5096 31.5316 41.7917 29.3832C42.06 25.0899 42.3302 20.8138 42.5296 16.5224C42.5208 15.6801 42.1904 14.8729 41.6061 14.2662C41.0218 13.6594 40.2277 13.2988 39.3862 13.2583H36.1969C35.1287 13.2569 34.0839 12.9456 33.1892 12.3621C32.2944 11.7786 31.5882 10.9481 31.1561 9.97122C31.0443 9.6902 30.8509 9.44909 30.6009 9.27897C30.3508 9.10885 30.0555 9.01751 29.7531 9.01672H26.8532C22.6461 9.01672 19.2363 12.4648 19.2363 16.7179C19.2363 20.9595 19.5027 25.1321 19.7807 29.3832Z" fill="url(#paint38_radial_1074_378)"/>
<path d="M19.7807 29.3832C20.0631 31.5314 21.1172 33.5036 22.7465 34.9318C24.3758 36.3601 26.469 37.147 28.6357 37.1457H32.9367C35.1035 37.1474 37.1969 36.3607 38.8262 34.9323C40.4556 33.504 41.5096 31.5316 41.7917 29.3832C42.06 25.0899 42.3302 20.8138 42.5296 16.5224C42.5208 15.6801 42.1904 14.8729 41.6061 14.2662C41.0218 13.6594 40.2277 13.2988 39.3862 13.2583H36.1969C35.1287 13.2569 34.0839 12.9456 33.1892 12.3621C32.2944 11.7786 31.5882 10.9481 31.1561 9.97122C31.0443 9.6902 30.8509 9.44909 30.6009 9.27897C30.3508 9.10885 30.0555 9.01751 29.7531 9.01672H26.8532C22.6461 9.01672 19.2363 12.4648 19.2363 16.7179C19.2363 20.9595 19.5027 25.1321 19.7807 29.3832Z" fill="url(#paint39_radial_1074_378)"/>
<path d="M19.7807 29.3832C20.0631 31.5314 21.1172 33.5036 22.7465 34.9318C24.3758 36.3601 26.469 37.147 28.6357 37.1457H32.9367C35.1035 37.1474 37.1969 36.3607 38.8262 34.9323C40.4556 33.504 41.5096 31.5316 41.7917 29.3832C42.06 25.0899 42.3302 20.8138 42.5296 16.5224C42.5208 15.6801 42.1904 14.8729 41.6061 14.2662C41.0218 13.6594 40.2277 13.2988 39.3862 13.2583H36.1969C35.1287 13.2569 34.0839 12.9456 33.1892 12.3621C32.2944 11.7786 31.5882 10.9481 31.1561 9.97122C31.0443 9.6902 30.8509 9.44909 30.6009 9.27897C30.3508 9.10885 30.0555 9.01751 29.7531 9.01672H26.8532C22.6461 9.01672 19.2363 12.4648 19.2363 16.7179C19.2363 20.9595 19.5027 25.1321 19.7807 29.3832Z" fill="url(#paint40_radial_1074_378)"/>
<path d="M19.7807 29.3832C20.0631 31.5314 21.1172 33.5036 22.7465 34.9318C24.3758 36.3601 26.469 37.147 28.6357 37.1457H32.9367C35.1035 37.1474 37.1969 36.3607 38.8262 34.9323C40.4556 33.504 41.5096 31.5316 41.7917 29.3832C42.06 25.0899 42.3302 20.8138 42.5296 16.5224C42.5208 15.6801 42.1904 14.8729 41.6061 14.2662C41.0218 13.6594 40.2277 13.2988 39.3862 13.2583H36.1969C35.1287 13.2569 34.0839 12.9456 33.1892 12.3621C32.2944 11.7786 31.5882 10.9481 31.1561 9.97122C31.0443 9.6902 30.8509 9.44909 30.6009 9.27897C30.3508 9.10885 30.0555 9.01751 29.7531 9.01672H26.8532C22.6461 9.01672 19.2363 12.4648 19.2363 16.7179C19.2363 20.9595 19.5027 25.1321 19.7807 29.3832Z" fill="url(#paint41_radial_1074_378)"/>
<path d="M19.7807 29.3832C20.0631 31.5314 21.1172 33.5036 22.7465 34.9318C24.3758 36.3601 26.469 37.147 28.6357 37.1457H32.9367C35.1035 37.1474 37.1969 36.3607 38.8262 34.9323C40.4556 33.504 41.5096 31.5316 41.7917 29.3832C42.06 25.0899 42.3302 20.8138 42.5296 16.5224C42.5208 15.6801 42.1904 14.8729 41.6061 14.2662C41.0218 13.6594 40.2277 13.2988 39.3862 13.2583H36.1969C35.1287 13.2569 34.0839 12.9456 33.1892 12.3621C32.2944 11.7786 31.5882 10.9481 31.1561 9.97122C31.0443 9.6902 30.8509 9.44909 30.6009 9.27897C30.3508 9.10885 30.0555 9.01751 29.7531 9.01672H26.8532C22.6461 9.01672 19.2363 12.4648 19.2363 16.7179C19.2363 20.9595 19.5027 25.1321 19.7807 29.3832Z" fill="url(#paint42_radial_1074_378)"/>
<path d="M19.7807 29.3832C20.0631 31.5314 21.1172 33.5036 22.7465 34.9318C24.3758 36.3601 26.469 37.147 28.6357 37.1457H32.9367C35.1035 37.1474 37.1969 36.3607 38.8262 34.9323C40.4556 33.504 41.5096 31.5316 41.7917 29.3832C42.06 25.0899 42.3302 20.8138 42.5296 16.5224C42.5208 15.6801 42.1904 14.8729 41.6061 14.2662C41.0218 13.6594 40.2277 13.2988 39.3862 13.2583H36.1969C35.1287 13.2569 34.0839 12.9456 33.1892 12.3621C32.2944 11.7786 31.5882 10.9481 31.1561 9.97122C31.0443 9.6902 30.8509 9.44909 30.6009 9.27897C30.3508 9.10885 30.0555 9.01751 29.7531 9.01672H26.8532C22.6461 9.01672 19.2363 12.4648 19.2363 16.7179C19.2363 20.9595 19.5027 25.1321 19.7807 29.3832Z" fill="url(#paint43_radial_1074_378)"/>
<path d="M19.7807 29.3832C20.0631 31.5314 21.1172 33.5036 22.7465 34.9318C24.3758 36.3601 26.469 37.147 28.6357 37.1457H32.9367C35.1035 37.1474 37.1969 36.3607 38.8262 34.9323C40.4556 33.504 41.5096 31.5316 41.7917 29.3832C42.06 25.0899 42.3302 20.8138 42.5296 16.5224C42.5208 15.6801 42.1904 14.8729 41.6061 14.2662C41.0218 13.6594 40.2277 13.2988 39.3862 13.2583H36.1969C35.1287 13.2569 34.0839 12.9456 33.1892 12.3621C32.2944 11.7786 31.5882 10.9481 31.1561 9.97122C31.0443 9.6902 30.8509 9.44909 30.6009 9.27897C30.3508 9.10885 30.0555 9.01751 29.7531 9.01672H26.8532C22.6461 9.01672 19.2363 12.4648 19.2363 16.7179C19.2363 20.9595 19.5027 25.1321 19.7807 29.3832Z" fill="url(#paint44_radial_1074_378)"/>
<g filter="url(#filter12_f_1074_378)">
<path d="M29.795 22.3145L28.2175 26.0885C27.9875 26.951 28.5415 27.8135 29.3273 27.8135H31.0005C31.7864 27.8135 32.3422 26.9375 32.1103 26.0885L30.9795 21.8986C30.736 20.971 30.048 21.3869 29.795 22.3145Z" fill="#C48377"/>
</g>
<g filter="url(#filter13_f_1074_378)">
<path d="M29.9066 21.452L28.6934 25.6418C28.4461 26.5043 29.0384 27.3668 29.8817 27.3668H31.6719C32.5133 27.3668 33.1055 26.4909 32.8602 25.6418L31.6489 21.452C31.3882 20.5243 30.1769 20.5243 29.9047 21.452H29.9066Z" fill="url(#paint45_linear_1074_378)"/>
<path d="M29.9066 21.452L28.6934 25.6418C28.4461 26.5043 29.0384 27.3668 29.8817 27.3668H31.6719C32.5133 27.3668 33.1055 26.4909 32.8602 25.6418L31.6489 21.452C31.3882 20.5243 30.1769 20.5243 29.9047 21.452H29.9066Z" fill="url(#paint46_linear_1074_378)"/>
<path d="M29.9066 21.452L28.6934 25.6418C28.4461 26.5043 29.0384 27.3668 29.8817 27.3668H31.6719C32.5133 27.3668 33.1055 26.4909 32.8602 25.6418L31.6489 21.452C31.3882 20.5243 30.1769 20.5243 29.9047 21.452H29.9066Z" fill="url(#paint47_linear_1074_378)"/>
<path d="M29.9066 21.452L28.6934 25.6418C28.4461 26.5043 29.0384 27.3668 29.8817 27.3668H31.6719C32.5133 27.3668 33.1055 26.4909 32.8602 25.6418L31.6489 21.452C31.3882 20.5243 30.1769 20.5243 29.9047 21.452H29.9066Z" fill="url(#paint48_linear_1074_378)"/>
</g>
<path d="M29.9066 21.452L28.6934 25.6418C28.4461 26.5043 29.0384 27.3668 29.8817 27.3668H31.6719C32.5133 27.3668 33.1055 26.4909 32.8602 25.6418L31.6489 21.452C31.3882 20.5243 30.1769 20.5243 29.9047 21.452H29.9066Z" fill="url(#paint49_linear_1074_378)"/>
<path d="M29.9066 21.452L28.6934 25.6418C28.4461 26.5043 29.0384 27.3668 29.8817 27.3668H31.6719C32.5133 27.3668 33.1055 26.4909 32.8602 25.6418L31.6489 21.452C31.3882 20.5243 30.1769 20.5243 29.9047 21.452H29.9066Z" fill="url(#paint50_radial_1074_378)"/>
<g filter="url(#filter14_f_1074_378)">
<path d="M27.6845 28.8062C27.5891 28.7569 27.4801 28.7401 27.3742 28.7584C27.2683 28.7768 27.1713 28.8292 27.098 28.9078C27.0228 28.9837 26.9766 29.0836 26.9675 29.1901C26.9584 29.2966 26.9869 29.4029 27.0482 29.4905C27.4561 30.1053 28.0102 30.6092 28.6609 30.9571C29.3115 31.305 30.0383 31.486 30.7761 31.4838C32.3401 31.4838 33.7163 30.6865 34.504 29.4905C34.5661 29.4022 34.5951 29.2948 34.586 29.1872C34.5769 29.0797 34.5302 28.9787 34.4542 28.9021C34.38 28.8247 34.2827 28.7735 34.177 28.7562C34.0712 28.7389 33.9627 28.7565 33.8677 28.8062C32.9112 29.2958 31.8506 29.5469 30.7761 29.5384C29.6415 29.5384 28.5777 29.2701 27.6845 28.8062Z" stroke="url(#paint51_radial_1074_378)" stroke-width="0.15"/>
</g>
<path d="M30.7765 29.6822C29.6189 29.6822 28.534 29.41 27.6198 28.9347C27.3074 28.7756 26.9719 29.1264 27.1674 29.41C27.5626 30.0049 28.0991 30.4924 28.729 30.8289C29.3589 31.1655 30.0624 31.3404 30.7765 31.3382C32.2907 31.3382 33.6228 30.5677 34.3856 29.41C34.5811 29.1149 34.2457 28.7756 33.9333 28.9347C32.9566 29.4344 31.8736 29.6908 30.7765 29.6822Z" fill="url(#paint52_radial_1074_378)"/>
<g filter="url(#filter15_ii_1074_378)">
<path d="M41.8412 7.94143C43.0644 8.36022 44.0919 9.21251 44.7296 10.3373C45.2368 11.222 45.4833 12.2321 45.4405 13.251C45.3978 14.2698 45.0676 15.2558 44.4881 16.0949C44.0894 16.6814 43.8709 17.3791 43.8709 18.0883V20.7946C43.4122 20.4875 42.8946 20.2792 42.351 20.1832L42.5293 16.5223C42.52 15.6802 42.1895 14.8733 41.6053 14.2666C41.021 13.6599 40.2272 13.2993 39.3859 13.2583H36.1966C35.1284 13.2568 34.0836 12.9455 33.1889 12.3621C32.2941 11.7786 31.5879 10.9481 31.1558 9.97118C31.044 9.69016 30.8506 9.44905 30.6005 9.27893C30.3505 9.10881 30.0552 9.01747 29.7528 9.01668H26.8509C22.6458 9.01668 19.236 12.4648 19.236 16.7178L19.3069 20.2215C18.7281 20.3078 18.1224 20.5013 17.6643 20.8233V18.0863C17.6643 17.3772 17.4478 16.6814 17.0491 16.093C16.4975 15.2799 16.176 14.3329 16.1187 13.352C16.0613 12.3712 16.2702 11.3931 16.7233 10.5213C17.3494 9.32095 18.4077 8.40302 19.6845 7.95293C20.9928 7.49212 22.1054 6.5999 22.8393 5.42293C23.5076 4.3462 24.5396 3.54458 25.7481 3.16341C26.9567 2.78224 28.2618 2.84675 29.4269 3.34526C29.8557 3.53289 30.3187 3.62974 30.7868 3.62974C31.2549 3.62974 31.7179 3.53289 32.1467 3.34526C32.7868 3.07693 33.4883 2.91785 34.2263 2.91785C36.1468 2.91785 37.8277 3.95668 38.7592 5.49576C39.467 6.64804 40.5582 7.51399 41.8412 7.94143Z" fill="url(#paint53_linear_1074_378)"/>
<path d="M41.8412 7.94143C43.0644 8.36022 44.0919 9.21251 44.7296 10.3373C45.2368 11.222 45.4833 12.2321 45.4405 13.251C45.3978 14.2698 45.0676 15.2558 44.4881 16.0949C44.0894 16.6814 43.8709 17.3791 43.8709 18.0883V20.7946C43.4122 20.4875 42.8946 20.2792 42.351 20.1832L42.5293 16.5223C42.52 15.6802 42.1895 14.8733 41.6053 14.2666C41.021 13.6599 40.2272 13.2993 39.3859 13.2583H36.1966C35.1284 13.2568 34.0836 12.9455 33.1889 12.3621C32.2941 11.7786 31.5879 10.9481 31.1558 9.97118C31.044 9.69016 30.8506 9.44905 30.6005 9.27893C30.3505 9.10881 30.0552 9.01747 29.7528 9.01668H26.8509C22.6458 9.01668 19.236 12.4648 19.236 16.7178L19.3069 20.2215C18.7281 20.3078 18.1224 20.5013 17.6643 20.8233V18.0863C17.6643 17.3772 17.4478 16.6814 17.0491 16.093C16.4975 15.2799 16.176 14.3329 16.1187 13.352C16.0613 12.3712 16.2702 11.3931 16.7233 10.5213C17.3494 9.32095 18.4077 8.40302 19.6845 7.95293C20.9928 7.49212 22.1054 6.5999 22.8393 5.42293C23.5076 4.3462 24.5396 3.54458 25.7481 3.16341C26.9567 2.78224 28.2618 2.84675 29.4269 3.34526C29.8557 3.53289 30.3187 3.62974 30.7868 3.62974C31.2549 3.62974 31.7179 3.53289 32.1467 3.34526C32.7868 3.07693 33.4883 2.91785 34.2263 2.91785C36.1468 2.91785 37.8277 3.95668 38.7592 5.49576C39.467 6.64804 40.5582 7.51399 41.8412 7.94143Z" fill="url(#paint54_radial_1074_378)"/>
<path d="M41.8412 7.94143C43.0644 8.36022 44.0919 9.21251 44.7296 10.3373C45.2368 11.222 45.4833 12.2321 45.4405 13.251C45.3978 14.2698 45.0676 15.2558 44.4881 16.0949C44.0894 16.6814 43.8709 17.3791 43.8709 18.0883V20.7946C43.4122 20.4875 42.8946 20.2792 42.351 20.1832L42.5293 16.5223C42.52 15.6802 42.1895 14.8733 41.6053 14.2666C41.021 13.6599 40.2272 13.2993 39.3859 13.2583H36.1966C35.1284 13.2568 34.0836 12.9455 33.1889 12.3621C32.2941 11.7786 31.5879 10.9481 31.1558 9.97118C31.044 9.69016 30.8506 9.44905 30.6005 9.27893C30.3505 9.10881 30.0552 9.01747 29.7528 9.01668H26.8509C22.6458 9.01668 19.236 12.4648 19.236 16.7178L19.3069 20.2215C18.7281 20.3078 18.1224 20.5013 17.6643 20.8233V18.0863C17.6643 17.3772 17.4478 16.6814 17.0491 16.093C16.4975 15.2799 16.176 14.3329 16.1187 13.352C16.0613 12.3712 16.2702 11.3931 16.7233 10.5213C17.3494 9.32095 18.4077 8.40302 19.6845 7.95293C20.9928 7.49212 22.1054 6.5999 22.8393 5.42293C23.5076 4.3462 24.5396 3.54458 25.7481 3.16341C26.9567 2.78224 28.2618 2.84675 29.4269 3.34526C29.8557 3.53289 30.3187 3.62974 30.7868 3.62974C31.2549 3.62974 31.7179 3.53289 32.1467 3.34526C32.7868 3.07693 33.4883 2.91785 34.2263 2.91785C36.1468 2.91785 37.8277 3.95668 38.7592 5.49576C39.467 6.64804 40.5582 7.51399 41.8412 7.94143Z" fill="url(#paint55_radial_1074_378)"/>
<path d="M41.8412 7.94143C43.0644 8.36022 44.0919 9.21251 44.7296 10.3373C45.2368 11.222 45.4833 12.2321 45.4405 13.251C45.3978 14.2698 45.0676 15.2558 44.4881 16.0949C44.0894 16.6814 43.8709 17.3791 43.8709 18.0883V20.7946C43.4122 20.4875 42.8946 20.2792 42.351 20.1832L42.5293 16.5223C42.52 15.6802 42.1895 14.8733 41.6053 14.2666C41.021 13.6599 40.2272 13.2993 39.3859 13.2583H36.1966C35.1284 13.2568 34.0836 12.9455 33.1889 12.3621C32.2941 11.7786 31.5879 10.9481 31.1558 9.97118C31.044 9.69016 30.8506 9.44905 30.6005 9.27893C30.3505 9.10881 30.0552 9.01747 29.7528 9.01668H26.8509C22.6458 9.01668 19.236 12.4648 19.236 16.7178L19.3069 20.2215C18.7281 20.3078 18.1224 20.5013 17.6643 20.8233V18.0863C17.6643 17.3772 17.4478 16.6814 17.0491 16.093C16.4975 15.2799 16.176 14.3329 16.1187 13.352C16.0613 12.3712 16.2702 11.3931 16.7233 10.5213C17.3494 9.32095 18.4077 8.40302 19.6845 7.95293C20.9928 7.49212 22.1054 6.5999 22.8393 5.42293C23.5076 4.3462 24.5396 3.54458 25.7481 3.16341C26.9567 2.78224 28.2618 2.84675 29.4269 3.34526C29.8557 3.53289 30.3187 3.62974 30.7868 3.62974C31.2549 3.62974 31.7179 3.53289 32.1467 3.34526C32.7868 3.07693 33.4883 2.91785 34.2263 2.91785C36.1468 2.91785 37.8277 3.95668 38.7592 5.49576C39.467 6.64804 40.5582 7.51399 41.8412 7.94143Z" fill="url(#paint56_radial_1074_378)"/>
<path d="M41.8412 7.94143C43.0644 8.36022 44.0919 9.21251 44.7296 10.3373C45.2368 11.222 45.4833 12.2321 45.4405 13.251C45.3978 14.2698 45.0676 15.2558 44.4881 16.0949C44.0894 16.6814 43.8709 17.3791 43.8709 18.0883V20.7946C43.4122 20.4875 42.8946 20.2792 42.351 20.1832L42.5293 16.5223C42.52 15.6802 42.1895 14.8733 41.6053 14.2666C41.021 13.6599 40.2272 13.2993 39.3859 13.2583H36.1966C35.1284 13.2568 34.0836 12.9455 33.1889 12.3621C32.2941 11.7786 31.5879 10.9481 31.1558 9.97118C31.044 9.69016 30.8506 9.44905 30.6005 9.27893C30.3505 9.10881 30.0552 9.01747 29.7528 9.01668H26.8509C22.6458 9.01668 19.236 12.4648 19.236 16.7178L19.3069 20.2215C18.7281 20.3078 18.1224 20.5013 17.6643 20.8233V18.0863C17.6643 17.3772 17.4478 16.6814 17.0491 16.093C16.4975 15.2799 16.176 14.3329 16.1187 13.352C16.0613 12.3712 16.2702 11.3931 16.7233 10.5213C17.3494 9.32095 18.4077 8.40302 19.6845 7.95293C20.9928 7.49212 22.1054 6.5999 22.8393 5.42293C23.5076 4.3462 24.5396 3.54458 25.7481 3.16341C26.9567 2.78224 28.2618 2.84675 29.4269 3.34526C29.8557 3.53289 30.3187 3.62974 30.7868 3.62974C31.2549 3.62974 31.7179 3.53289 32.1467 3.34526C32.7868 3.07693 33.4883 2.91785 34.2263 2.91785C36.1468 2.91785 37.8277 3.95668 38.7592 5.49576C39.467 6.64804 40.5582 7.51399 41.8412 7.94143Z" fill="url(#paint57_radial_1074_378)"/>
</g>
<g filter="url(#filter16_i_1074_378)">
<path d="M39.2845 16.2904C38.8839 15.9416 38.422 15.5736 37.7166 15.3512C37.0228 15.1346 36.1545 15.0752 34.9528 15.2228C34.794 15.2517 34.6523 15.3402 34.5567 15.4702C34.461 15.6001 34.4187 15.7617 34.4383 15.9219C34.4579 16.082 34.5379 16.2287 34.6621 16.3317C34.7862 16.4348 34.9451 16.4865 35.1061 16.4763C36.2044 16.3421 36.8752 16.4131 37.3371 16.5587C37.7895 16.7006 38.0942 16.9306 38.4526 17.243C38.5795 17.3487 38.7428 17.4006 38.9075 17.3875C39.0722 17.3745 39.2252 17.2975 39.3339 17.1731C39.4426 17.0486 39.4982 16.8866 39.489 16.7217C39.4797 16.5567 39.4063 16.4019 39.2845 16.2904Z" fill="#A06937"/>
</g>
<g filter="url(#filter17_i_1074_378)">
<path d="M23.0026 16.0413C24.1984 15.3414 25.5911 15.0539 26.9663 15.2228C27.0523 15.2283 27.1363 15.2513 27.2131 15.2903C27.2899 15.3294 27.3579 15.3838 27.4129 15.4501C27.468 15.5164 27.5089 15.5932 27.5332 15.6759C27.5574 15.7586 27.5646 15.8453 27.5541 15.9309C27.5436 16.0164 27.5158 16.0989 27.4723 16.1733C27.4288 16.2477 27.3706 16.3124 27.3012 16.3635C27.2318 16.4146 27.1527 16.4509 27.0687 16.4703C26.9848 16.4897 26.8977 16.4918 26.813 16.4763C25.7161 16.3415 24.6053 16.5697 23.6505 17.1261C23.5796 17.1686 23.5106 17.214 23.4435 17.2622L23.4377 17.2679C23.305 17.3706 23.137 17.4164 22.9706 17.3952C22.8042 17.374 22.653 17.2875 22.5503 17.1548C22.4476 17.0222 22.4018 16.8541 22.423 16.6877C22.4443 16.5213 22.5307 16.3701 22.6634 16.2674L23.0026 16.0413Z" fill="#A06937"/>
</g>
<g filter="url(#filter18_f_1074_378)">
<path d="M31.3055 10.2816C31.2525 10.1797 31.2027 10.0761 31.156 9.97113C31.0442 9.6901 30.8509 9.449 30.6008 9.27887C30.3507 9.10875 30.0555 9.01741 29.753 9.01663H26.8512C22.646 9.01663 19.2363 12.4647 19.2363 16.7178V17.3465C18.4619 16.7561 17.4883 15.5122 17.4883 13.4997C17.4883 11.056 19.2708 9.81971 20.4054 9.03388C20.7255 8.81154 20.9958 8.62563 21.1587 8.45696L21.3868 8.21738C22.1822 7.37404 23.6024 5.86754 26.0826 5.20821C27.3002 4.90208 28.5567 4.77934 29.8105 4.84404C30.7171 4.88429 31.3534 5.66821 31.3534 6.57288V10.2529L31.3055 10.2835V10.2816Z" fill="url(#paint58_radial_1074_378)"/>
<path d="M31.3055 10.2816C31.2525 10.1797 31.2027 10.0761 31.156 9.97113C31.0442 9.6901 30.8509 9.449 30.6008 9.27887C30.3507 9.10875 30.0555 9.01741 29.753 9.01663H26.8512C22.646 9.01663 19.2363 12.4647 19.2363 16.7178V17.3465C18.4619 16.7561 17.4883 15.5122 17.4883 13.4997C17.4883 11.056 19.2708 9.81971 20.4054 9.03388C20.7255 8.81154 20.9958 8.62563 21.1587 8.45696L21.3868 8.21738C22.1822 7.37404 23.6024 5.86754 26.0826 5.20821C27.3002 4.90208 28.5567 4.77934 29.8105 4.84404C30.7171 4.88429 31.3534 5.66821 31.3534 6.57288V10.2529L31.3055 10.2835V10.2816Z" fill="url(#paint59_radial_1074_378)"/>
</g>
<g filter="url(#filter19_f_1074_378)">
<path d="M42.6564 17.9675L42.5912 16.53C42.5663 14.7897 41.1288 13.3541 39.3885 13.2813H36.1972C35.2069 13.281 34.2348 13.0143 33.383 12.5092C32.5312 12.004 31.831 11.279 31.3557 10.4101C31.3557 10.4101 31.1161 9.85237 30.9417 8.95345C30.5776 7.06362 32.3371 5.66253 34.2307 5.98837C36.5882 6.3947 39.4249 7.1652 41.47 8.4992C45.4451 11.0944 44.7494 15.7672 42.6583 17.9675H42.6564Z" fill="url(#paint60_radial_1074_378)"/>
<path d="M42.6564 17.9675L42.5912 16.53C42.5663 14.7897 41.1288 13.3541 39.3885 13.2813H36.1972C35.2069 13.281 34.2348 13.0143 33.383 12.5092C32.5312 12.004 31.831 11.279 31.3557 10.4101C31.3557 10.4101 31.1161 9.85237 30.9417 8.95345C30.5776 7.06362 32.3371 5.66253 34.2307 5.98837C36.5882 6.3947 39.4249 7.1652 41.47 8.4992C45.4451 11.0944 44.7494 15.7672 42.6583 17.9675H42.6564Z" fill="url(#paint61_radial_1074_378)"/>
<path d="M42.6564 17.9675L42.5912 16.53C42.5663 14.7897 41.1288 13.3541 39.3885 13.2813H36.1972C35.2069 13.281 34.2348 13.0143 33.383 12.5092C32.5312 12.004 31.831 11.279 31.3557 10.4101C31.3557 10.4101 31.1161 9.85237 30.9417 8.95345C30.5776 7.06362 32.3371 5.66253 34.2307 5.98837C36.5882 6.3947 39.4249 7.1652 41.47 8.4992C45.4451 11.0944 44.7494 15.7672 42.6583 17.9675H42.6564Z" fill="url(#paint62_radial_1074_378)"/>
<path d="M42.6564 17.9675L42.5912 16.53C42.5663 14.7897 41.1288 13.3541 39.3885 13.2813H36.1972C35.2069 13.281 34.2348 13.0143 33.383 12.5092C32.5312 12.004 31.831 11.279 31.3557 10.4101C31.3557 10.4101 31.1161 9.85237 30.9417 8.95345C30.5776 7.06362 32.3371 5.66253 34.2307 5.98837C36.5882 6.3947 39.4249 7.1652 41.47 8.4992C45.4451 11.0944 44.7494 15.7672 42.6583 17.9675H42.6564Z" fill="url(#paint63_radial_1074_378)"/>
<path d="M42.6564 17.9675L42.5912 16.53C42.5663 14.7897 41.1288 13.3541 39.3885 13.2813H36.1972C35.2069 13.281 34.2348 13.0143 33.383 12.5092C32.5312 12.004 31.831 11.279 31.3557 10.4101C31.3557 10.4101 31.1161 9.85237 30.9417 8.95345C30.5776 7.06362 32.3371 5.66253 34.2307 5.98837C36.5882 6.3947 39.4249 7.1652 41.47 8.4992C45.4451 11.0944 44.7494 15.7672 42.6583 17.9675H42.6564Z" fill="url(#paint64_radial_1074_378)"/>
<path d="M42.6564 17.9675L42.5912 16.53C42.5663 14.7897 41.1288 13.3541 39.3885 13.2813H36.1972C35.2069 13.281 34.2348 13.0143 33.383 12.5092C32.5312 12.004 31.831 11.279 31.3557 10.4101C31.3557 10.4101 31.1161 9.85237 30.9417 8.95345C30.5776 7.06362 32.3371 5.66253 34.2307 5.98837C36.5882 6.3947 39.4249 7.1652 41.47 8.4992C45.4451 11.0944 44.7494 15.7672 42.6583 17.9675H42.6564Z" fill="url(#paint65_radial_1074_378)"/>
</g>
<path d="M36.2254 19.2861C36.9356 19.2861 37.6253 19.5236 38.1849 19.9609C38.7444 20.3982 39.1416 21.0101 39.3132 21.6992C39.3362 21.7916 39.3379 21.888 39.318 21.9812C39.2981 22.0743 39.2572 22.1616 39.1984 22.2365C39.1396 22.3114 39.0644 22.3719 38.9787 22.4133C38.893 22.4547 38.7989 22.476 38.7037 22.4755H33.6187C33.5418 22.4756 33.4657 22.4588 33.3959 22.4262C33.3261 22.3937 33.2644 22.3462 33.215 22.2871C33.1656 22.228 33.1298 22.1588 33.1102 22.0844C33.0905 22.01 33.0875 21.9321 33.1012 21.8564C33.3887 20.3959 34.6729 19.288 36.2254 19.288V19.2861Z" fill="white"/>
<path d="M35.754 19.9053C36.0667 19.9054 36.3753 19.9776 36.6556 20.1164C36.9359 20.2552 37.1804 20.4568 37.3701 20.7054C37.5598 20.9541 37.6896 21.2432 37.7493 21.5502C37.8091 21.8572 37.7973 22.1738 37.7147 22.4755H33.7856C33.7045 22.1733 33.6939 21.8565 33.7548 21.5496C33.8156 21.2426 33.9462 20.9538 34.1365 20.7054C34.3267 20.457 34.5715 20.2556 34.852 20.1169C35.1325 19.9782 35.4411 19.9057 35.754 19.9053Z" fill="url(#paint66_radial_1074_378)"/>
<path d="M34.5889 21.9388C34.5889 21.2929 35.1064 20.7754 35.7543 20.7754C35.9548 20.7739 36.1523 20.8243 36.3275 20.9218C36.5027 21.0194 36.6496 21.1607 36.7538 21.332C36.8581 21.5033 36.9162 21.6986 36.9224 21.8991C36.9286 22.0995 36.8827 22.2981 36.7893 22.4755H34.7288C34.6351 22.3123 34.5868 22.127 34.5889 21.9388Z" fill="black"/>
<g filter="url(#filter20_f_1074_378)">
<path d="M35.6047 20.3364C35.7504 20.5281 35.4476 20.7658 35.1026 21.0226C34.7576 21.2814 34.5027 21.4634 34.357 21.2679C34.2132 21.0744 34.3761 20.7083 34.7192 20.4514C35.0642 20.1927 35.4591 20.1409 35.6047 20.3364Z" fill="#C7A7A3"/>
<path d="M35.6047 20.3364C35.7504 20.5281 35.4476 20.7658 35.1026 21.0226C34.7576 21.2814 34.5027 21.4634 34.357 21.2679C34.2132 21.0744 34.3761 20.7083 34.7192 20.4514C35.0642 20.1927 35.4591 20.1409 35.6047 20.3364Z" fill="url(#paint67_radial_1074_378)"/>
</g>
<g filter="url(#filter21_f_1074_378)">
<path d="M37.5656 21.6725C37.5051 21.2744 37.3207 20.9055 37.0385 20.6183L36.4463 21.268L36.7146 21.7875L37.5656 21.6725Z" fill="url(#paint68_linear_1074_378)"/>
</g>
<path d="M25.3257 19.2861C24.6156 19.2866 23.9261 19.5246 23.3669 19.9622C22.8077 20.3999 22.4109 21.012 22.2398 21.7011C22.2171 21.7934 22.2157 21.8896 22.2357 21.9825C22.2558 22.0754 22.2968 22.1624 22.3555 22.2371C22.4143 22.3118 22.4893 22.372 22.5749 22.4133C22.6605 22.4546 22.7543 22.4759 22.8493 22.4755H27.9342C28.0112 22.4756 28.0873 22.4588 28.1571 22.4262C28.2268 22.3937 28.2886 22.3462 28.338 22.2871C28.3874 22.228 28.4231 22.1588 28.4428 22.0844C28.4625 22.01 28.4655 21.9321 28.4517 21.8564C28.3075 21.1335 27.9176 20.4827 27.3481 20.0146C26.7787 19.5464 26.0648 19.2897 25.3276 19.288L25.3257 19.2861Z" fill="white"/>
<path d="M25.7985 19.9053C25.4857 19.9054 25.1772 19.9776 24.8969 20.1164C24.6166 20.2552 24.3721 20.4568 24.1824 20.7054C23.9927 20.9541 23.8629 21.2432 23.8031 21.5502C23.7433 21.8572 23.7552 22.1738 23.8377 22.4755H27.7669C27.8148 22.2992 27.8435 22.1248 27.8435 21.9389C27.839 21.3991 27.6217 20.883 27.2387 20.5025C26.8558 20.1221 26.3382 19.9082 25.7985 19.9072V19.9053Z" fill="url(#paint69_radial_1074_378)"/>
<path d="M26.9639 21.9408C26.9647 21.7875 26.935 21.6356 26.8768 21.4939C26.8185 21.3522 26.7327 21.2234 26.6243 21.115C26.5159 21.0067 26.3872 20.9209 26.2454 20.8626C26.1037 20.8043 25.9518 20.7747 25.7986 20.7754C25.5981 20.7739 25.4006 20.8243 25.2254 20.9218C25.0502 21.0194 24.9033 21.1607 24.799 21.332C24.6947 21.5033 24.6366 21.6986 24.6304 21.8991C24.6242 22.0995 24.6701 22.2981 24.7636 22.4755H26.824C26.9135 22.3106 26.9615 22.1264 26.9639 21.9388V21.9408Z" fill="black"/>
<g filter="url(#filter22_f_1074_378)">
<path d="M27.6581 21.7012C27.6581 21.0437 27.1215 20.6048 26.9777 20.4745L26.3203 21.107L26.7247 21.9312L27.6581 21.7012Z" fill="url(#paint70_linear_1074_378)"/>
</g>
<g filter="url(#filter23_f_1074_378)">
<path d="M25.3955 21.1718C25.8286 20.9423 26.0857 20.5789 25.9697 20.36C25.8537 20.1411 25.4087 20.1497 24.9756 20.3791C24.5425 20.6086 24.2854 20.972 24.4014 21.1909C24.5173 21.4098 24.9624 21.4012 25.3955 21.1718Z" fill="#C7A7A3" fill-opacity="0.9"/>
<path d="M25.3955 21.1718C25.8286 20.9423 26.0857 20.5789 25.9697 20.36C25.8537 20.1411 25.4087 20.1497 24.9756 20.3791C24.5425 20.6086 24.2854 20.972 24.4014 21.1909C24.5173 21.4098 24.9624 21.4012 25.3955 21.1718Z" fill="url(#paint71_radial_1074_378)"/>
</g>
<path d="M41.9951 26.1363C42.1446 23.7118 42.2884 21.2891 42.4168 18.8645C43.2994 19.0234 44.0931 19.5001 44.6482 20.2044C45.2032 20.9088 45.481 21.7921 45.4291 22.6873C45.3772 23.5826 44.9991 24.4278 44.3664 25.0633C43.7337 25.6988 42.8901 26.0805 41.9951 26.1363Z" fill="url(#paint72_linear_1074_378)"/>
<path d="M41.9951 26.1363C42.1446 23.7118 42.2884 21.2891 42.4168 18.8645C43.2994 19.0234 44.0931 19.5001 44.6482 20.2044C45.2032 20.9088 45.481 21.7921 45.4291 22.6873C45.3772 23.5826 44.9991 24.4278 44.3664 25.0633C43.7337 25.6988 42.8901 26.0805 41.9951 26.1363Z" fill="url(#paint73_radial_1074_378)"/>
<path d="M41.9951 26.1363C42.1446 23.7118 42.2884 21.2891 42.4168 18.8645C43.2994 19.0234 44.0931 19.5001 44.6482 20.2044C45.2032 20.9088 45.481 21.7921 45.4291 22.6873C45.3772 23.5826 44.9991 24.4278 44.3664 25.0633C43.7337 25.6988 42.8901 26.0805 41.9951 26.1363Z" fill="url(#paint74_radial_1074_378)"/>
<path d="M19.2569 18.8453C18.3572 18.9759 17.5381 19.4358 16.9583 20.1359C16.3785 20.8361 16.0793 21.7265 16.1187 22.6347C16.1581 23.5429 16.5332 24.4042 17.1715 25.0515C17.8097 25.6988 18.6656 26.0861 19.5731 26.1383C19.4178 23.7097 19.3123 21.2782 19.2569 18.8453Z" fill="url(#paint75_linear_1074_378)"/>
<path d="M19.2569 18.8453C18.3572 18.9759 17.5381 19.4358 16.9583 20.1359C16.3785 20.8361 16.0793 21.7265 16.1187 22.6347C16.1581 23.5429 16.5332 24.4042 17.1715 25.0515C17.8097 25.6988 18.6656 26.0861 19.5731 26.1383C19.4178 23.7097 19.3123 21.2782 19.2569 18.8453Z" fill="url(#paint76_radial_1074_378)"/>
<g filter="url(#filter24_f_1074_378)">
<path d="M19.2957 20.3518C18.7995 20.4666 18.3591 20.7515 18.051 21.1572C17.743 21.5629 17.5868 22.0636 17.6096 22.5725C17.6324 23.0813 17.8327 23.5661 18.1757 23.9427C18.5188 24.3192 18.9829 24.5637 19.4874 24.6336C19.4062 23.2072 19.3423 21.7798 19.2957 20.3518Z" fill="#B57562"/>
</g>
<g filter="url(#filter25_f_1074_378)">
<path d="M42.085 24.6528C42.1731 23.2077 42.2575 21.7606 42.338 20.3154C42.8857 20.3846 43.3867 20.6593 43.7396 21.0839C44.0925 21.5084 44.2709 22.0512 44.2388 22.6024C44.2066 23.1535 43.9663 23.6719 43.5664 24.0526C43.1666 24.4333 42.637 24.6478 42.085 24.6528Z" fill="#E6AA8B"/>
</g>
<g filter="url(#filter26_f_1074_378)">
<path d="M23.0889 16.6795C23.6754 16.2578 25.134 15.5199 26.8609 15.8093" stroke="#B17847" stroke-width="0.25" stroke-linecap="round"/>
</g>
<g filter="url(#filter27_f_1074_378)">
<path d="M38.8921 16.5741C38.3075 16.1524 36.847 15.4145 35.1201 15.7058" stroke="#B17847" stroke-width="0.25" stroke-linecap="round"/>
</g>
<defs>
<filter id="filter0_f_1074_378" x="6.43164" y="20.4351" width="14.3174" height="21.264" filterUnits="userSpaceOnUse" color-interpolation-filters="sRGB">
<feFlood flood-opacity="0" result="BackgroundImageFix"/>
<feBlend mode="normal" in="SourceGraphic" in2="BackgroundImageFix" result="shape"/>
<feGaussianBlur stdDeviation="0.75" result="effect1_foregroundBlur_1074_378"/>
</filter>
<filter id="filter1_f_1074_378" x="2.99375" y="5.65537" width="0.562305" height="4.00286" filterUnits="userSpaceOnUse" color-interpolation-filters="sRGB">
<feFlood flood-opacity="0" result="BackgroundImageFix"/>
<feBlend mode="normal" in="SourceGraphic" in2="BackgroundImageFix" result="shape"/>
<feGaussianBlur stdDeviation="0.05" result="effect1_foregroundBlur_1074_378"/>
</filter>
<filter id="filter2_f_1074_378" x="5.97617" y="4.83115" width="0.408984" height="4.67754" filterUnits="userSpaceOnUse" color-interpolation-filters="sRGB">
<feFlood flood-opacity="0" result="BackgroundImageFix"/>
<feBlend mode="normal" in="SourceGraphic" in2="BackgroundImageFix" result="shape"/>
<feGaussianBlur stdDeviation="0.05" result="effect1_foregroundBlur_1074_378"/>
</filter>
<filter id="filter3_f_1074_378" x="8.8043" y="5.98508" width="0.723438" height="2.96978" filterUnits="userSpaceOnUse" color-interpolation-filters="sRGB">
<feFlood flood-opacity="0" result="BackgroundImageFix"/>
<feBlend mode="normal" in="SourceGraphic" in2="BackgroundImageFix" result="shape"/>
<feGaussianBlur stdDeviation="0.05" result="effect1_foregroundBlur_1074_378"/>
</filter>
<filter id="filter4_f_1074_378" x="1.24258" y="4.67385" width="1.88594" height="5.90083" filterUnits="userSpaceOnUse" color-interpolation-filters="sRGB">
<feFlood flood-opacity="0" result="BackgroundImageFix"/>
<feBlend mode="normal" in="SourceGraphic" in2="BackgroundImageFix" result="shape"/>
<feGaussianBlur stdDeviation="0.2" result="effect1_foregroundBlur_1074_378"/>
</filter>
<filter id="filter5_f_1074_378" x="4.47402" y="2.86855" width="1.20039" height="6.72053" filterUnits="userSpaceOnUse" color-interpolation-filters="sRGB">
<feFlood flood-opacity="0" result="BackgroundImageFix"/>
<feBlend mode="normal" in="SourceGraphic" in2="BackgroundImageFix" result="shape"/>
<feGaussianBlur stdDeviation="0.2" result="effect1_foregroundBlur_1074_378"/>
</filter>
<filter id="filter6_f_1074_378" x="7.43984" y="1.10781" width="1.75215" height="8.38862" filterUnits="userSpaceOnUse" color-interpolation-filters="sRGB">
<feFlood flood-opacity="0" result="BackgroundImageFix"/>
<feBlend mode="normal" in="SourceGraphic" in2="BackgroundImageFix" result="shape"/>
<feGaussianBlur stdDeviation="0.2" result="effect1_foregroundBlur_1074_378"/>
</filter>
<filter id="filter7_f_1074_378" x="10.1264" y="3.08291" width="2.74531" height="7.42097" filterUnits="userSpaceOnUse" color-interpolation-filters="sRGB">
<feFlood flood-opacity="0" result="BackgroundImageFix"/>
<feBlend mode="normal" in="SourceGraphic" in2="BackgroundImageFix" result="shape"/>
<feGaussianBlur stdDeviation="0.2" result="effect1_foregroundBlur_1074_378"/>
</filter>
<filter id="filter8_f_1074_378" x="1.52559" y="9.38374" width="2.15781" height="2.05283" filterUnits="userSpaceOnUse" color-interpolation-filters="sRGB">
<feFlood flood-opacity="0" result="BackgroundImageFix"/>
<feBlend mode="normal" in="SourceGraphic" in2="BackgroundImageFix" result="shape"/>
<feGaussianBlur stdDeviation="0.1" result="effect1_foregroundBlur_1074_378"/>
</filter>
<filter id="filter9_f_1074_378" x="4.68574" y="8.98506" width="1.59238" height="1.36667" filterUnits="userSpaceOnUse" color-interpolation-filters="sRGB">
<feFlood flood-opacity="0" result="BackgroundImageFix"/>
<feBlend mode="normal" in="SourceGraphic" in2="BackgroundImageFix" result="shape"/>
<feGaussianBlur stdDeviation="0.1" result="effect1_foregroundBlur_1074_378"/>
</filter>
<filter id="filter10_f_1074_378" x="7.11055" y="8.61897" width="1.96445" height="1.40879" filterUnits="userSpaceOnUse" color-interpolation-filters="sRGB">
<feFlood flood-opacity="0" result="BackgroundImageFix"/>
<feBlend mode="normal" in="SourceGraphic" in2="BackgroundImageFix" result="shape"/>
<feGaussianBlur stdDeviation="0.1" result="effect1_foregroundBlur_1074_378"/>
</filter>
<filter id="filter11_ii_1074_378" x="19.2363" y="9.01672" width="24.043" height="28.329" filterUnits="userSpaceOnUse" color-interpolation-filters="sRGB">
<feFlood flood-opacity="0" result="BackgroundImageFix"/>
<feBlend mode="normal" in="SourceGraphic" in2="BackgroundImageFix" result="shape"/>
<feColorMatrix in="SourceAlpha" type="matrix" values="0 0 0 0 0 0 0 0 0 0 0 0 0 0 0 0 0 0 127 0" result="hardAlpha"/>
<feOffset dx="0.75"/>
<feGaussianBlur stdDeviation="0.6"/>
<feComposite in2="hardAlpha" operator="arithmetic" k2="-1" k3="1"/>
<feColorMatrix type="matrix" values="0 0 0 0 0.843137 0 0 0 0 0.611765 0 0 0 0 0.498039 0 0 0 1 0"/>
<feBlend mode="normal" in2="shape" result="effect1_innerShadow_1074_378"/>
<feColorMatrix in="SourceAlpha" type="matrix" values="0 0 0 0 0 0 0 0 0 0 0 0 0 0 0 0 0 0 127 0" result="hardAlpha"/>
<feOffset dy="0.2"/>
<feGaussianBlur stdDeviation="0.375"/>
<feComposite in2="hardAlpha" operator="arithmetic" k2="-1" k3="1"/>
<feColorMatrix type="matrix" values="0 0 0 0 0.776471 0 0 0 0 0.54902 0 0 0 0 0.423529 0 0 0 1 0"/>
<feBlend mode="normal" in2="effect1_innerShadow_1074_378" result="effect2_innerShadow_1074_378"/>
</filter>
<filter id="filter12_f_1074_378" x="27.165" y="20.377" width="5.99805" height="8.43652" filterUnits="userSpaceOnUse" color-interpolation-filters="sRGB">
<feFlood flood-opacity="0" result="BackgroundImageFix"/>
<feBlend mode="normal" in="SourceGraphic" in2="BackgroundImageFix" result="shape"/>
<feGaussianBlur stdDeviation="0.5" result="effect1_foregroundBlur_1074_378"/>
</filter>
<filter id="filter13_f_1074_378" x="28.5367" y="20.6562" width="4.4793" height="6.8106" filterUnits="userSpaceOnUse" color-interpolation-filters="sRGB">
<feFlood flood-opacity="0" result="BackgroundImageFix"/>
<feBlend mode="normal" in="SourceGraphic" in2="BackgroundImageFix" result="shape"/>
<feGaussianBlur stdDeviation="0.05" result="effect1_foregroundBlur_1074_378"/>
</filter>
<filter id="filter14_f_1074_378" x="26.7906" y="28.5748" width="7.97246" height="3.08403" filterUnits="userSpaceOnUse" color-interpolation-filters="sRGB">
<feFlood flood-opacity="0" result="BackgroundImageFix"/>
<feBlend mode="normal" in="SourceGraphic" in2="BackgroundImageFix" result="shape"/>
<feGaussianBlur stdDeviation="0.05" result="effect1_foregroundBlur_1074_378"/>
</filter>
<filter id="filter15_ii_1074_378" x="16.1094" y="2.41785" width="29.3359" height="18.4055" filterUnits="userSpaceOnUse" color-interpolation-filters="sRGB">
<feFlood flood-opacity="0" result="BackgroundImageFix"/>
<feBlend mode="normal" in="SourceGraphic" in2="BackgroundImageFix" result="shape"/>
<feColorMatrix in="SourceAlpha" type="matrix" values="0 0 0 0 0 0 0 0 0 0 0 0 0 0 0 0 0 0 127 0" result="hardAlpha"/>
<feOffset dy="-0.5"/>
<feGaussianBlur stdDeviation="0.625"/>
<feComposite in2="hardAlpha" operator="arithmetic" k2="-1" k3="1"/>
<feColorMatrix type="matrix" values="0 0 0 0 0.913725 0 0 0 0 0.733333 0 0 0 0 0.592157 0 0 0 1 0"/>
<feBlend mode="normal" in2="shape" result="effect1_innerShadow_1074_378"/>
<feColorMatrix in="SourceAlpha" type="matrix" values="0 0 0 0 0 0 0 0 0 0 0 0 0 0 0 0 0 0 127 0" result="hardAlpha"/>
<feOffset dy="-0.2"/>
<feGaussianBlur stdDeviation="0.2"/>
<feComposite in2="hardAlpha" operator="arithmetic" k2="-1" k3="1"/>
<feColorMatrix type="matrix" values="0 0 0 0 0.87451 0 0 0 0 0.678431 0 0 0 0 0.556863 0 0 0 1 0"/>
<feBlend mode="normal" in2="effect1_innerShadow_1074_378" result="effect2_innerShadow_1074_378"/>
</filter>
<filter id="filter16_i_1074_378" x="34.4336" y="14.9415" width="5.15664" height="2.44805" filterUnits="userSpaceOnUse" color-interpolation-filters="sRGB">
<feFlood flood-opacity="0" result="BackgroundImageFix"/>
<feBlend mode="normal" in="SourceGraphic" in2="BackgroundImageFix" result="shape"/>
<feColorMatrix in="SourceAlpha" type="matrix" values="0 0 0 0 0 0 0 0 0 0 0 0 0 0 0 0 0 0 127 0" result="hardAlpha"/>
<feOffset dx="0.1" dy="-0.2"/>
<feGaussianBlur stdDeviation="0.125"/>
<feComposite in2="hardAlpha" operator="arithmetic" k2="-1" k3="1"/>
<feColorMatrix type="matrix" values="0 0 0 0 0.470588 0 0 0 0 0.270588 0 0 0 0 0.160784 0 0 0 1 0"/>
<feBlend mode="normal" in2="shape" result="effect1_innerShadow_1074_378"/>
</filter>
<filter id="filter17_i_1074_378" x="22.418" y="14.9757" width="5.24063" height="2.42461" filterUnits="userSpaceOnUse" color-interpolation-filters="sRGB">
<feFlood flood-opacity="0" result="BackgroundImageFix"/>
<feBlend mode="normal" in="SourceGraphic" in2="BackgroundImageFix" result="shape"/>
<feColorMatrix in="SourceAlpha" type="matrix" values="0 0 0 0 0 0 0 0 0 0 0 0 0 0 0 0 0 0 127 0" result="hardAlpha"/>
<feOffset dx="0.1" dy="-0.2"/>
<feGaussianBlur stdDeviation="0.125"/>
<feComposite in2="hardAlpha" operator="arithmetic" k2="-1" k3="1"/>
<feColorMatrix type="matrix" values="0 0 0 0 0.470588 0 0 0 0 0.270588 0 0 0 0 0.160784 0 0 0 1 0"/>
<feBlend mode="normal" in2="shape" result="effect1_innerShadow_1074_378"/>
</filter>
<filter id="filter18_f_1074_378" x="16.9883" y="4.32727" width="14.8652" height="13.5192" filterUnits="userSpaceOnUse" color-interpolation-filters="sRGB">
<feFlood flood-opacity="0" result="BackgroundImageFix"/>
<feBlend mode="normal" in="SourceGraphic" in2="BackgroundImageFix" result="shape"/>
<feGaussianBlur stdDeviation="0.25" result="effect1_foregroundBlur_1074_378"/>
</filter>
<filter id="filter19_f_1074_378" x="30.3936" y="5.44116" width="14.4492" height="13.0264" filterUnits="userSpaceOnUse" color-interpolation-filters="sRGB">
<feFlood flood-opacity="0" result="BackgroundImageFix"/>
<feBlend mode="normal" in="SourceGraphic" in2="BackgroundImageFix" result="shape"/>
<feGaussianBlur stdDeviation="0.25" result="effect1_foregroundBlur_1074_378"/>
</filter>
<filter id="filter20_f_1074_378" x="34.2047" y="20.1179" width="1.53789" height="1.3322" filterUnits="userSpaceOnUse" color-interpolation-filters="sRGB">
<feFlood flood-opacity="0" result="BackgroundImageFix"/>
<feBlend mode="normal" in="SourceGraphic" in2="BackgroundImageFix" result="shape"/>
<feGaussianBlur stdDeviation="0.05" result="effect1_foregroundBlur_1074_378"/>
</filter>
<filter id="filter21_f_1074_378" x="36.2463" y="20.4183" width="1.51914" height="1.56919" filterUnits="userSpaceOnUse" color-interpolation-filters="sRGB">
<feFlood flood-opacity="0" result="BackgroundImageFix"/>
<feBlend mode="normal" in="SourceGraphic" in2="BackgroundImageFix" result="shape"/>
<feGaussianBlur stdDeviation="0.1" result="effect1_foregroundBlur_1074_378"/>
</filter>
<filter id="filter22_f_1074_378" x="26.1203" y="20.2745" width="1.73789" height="1.85667" filterUnits="userSpaceOnUse" color-interpolation-filters="sRGB">
<feFlood flood-opacity="0" result="BackgroundImageFix"/>
<feBlend mode="normal" in="SourceGraphic" in2="BackgroundImageFix" result="shape"/>
<feGaussianBlur stdDeviation="0.1" result="effect1_foregroundBlur_1074_378"/>
</filter>
<filter id="filter23_f_1074_378" x="24.274" y="20.1013" width="1.82305" height="1.34832" filterUnits="userSpaceOnUse" color-interpolation-filters="sRGB">
<feFlood flood-opacity="0" result="BackgroundImageFix"/>
<feBlend mode="normal" in="SourceGraphic" in2="BackgroundImageFix" result="shape"/>
<feGaussianBlur stdDeviation="0.05" result="effect1_foregroundBlur_1074_378"/>
</filter>
<filter id="filter24_f_1074_378" x="17.3574" y="20.1018" width="2.37988" height="4.78186" filterUnits="userSpaceOnUse" color-interpolation-filters="sRGB">
<feFlood flood-opacity="0" result="BackgroundImageFix"/>
<feBlend mode="normal" in="SourceGraphic" in2="BackgroundImageFix" result="shape"/>
<feGaussianBlur stdDeviation="0.125" result="effect1_foregroundBlur_1074_378"/>
</filter>
<filter id="filter25_f_1074_378" x="41.835" y="20.0654" width="2.65723" height="4.8374" filterUnits="userSpaceOnUse" color-interpolation-filters="sRGB">
<feFlood flood-opacity="0" result="BackgroundImageFix"/>
<feBlend mode="normal" in="SourceGraphic" in2="BackgroundImageFix" result="shape"/>
<feGaussianBlur stdDeviation="0.125" result="effect1_foregroundBlur_1074_378"/>
</filter>
<filter id="filter26_f_1074_378" x="22.7139" y="15.3688" width="4.52246" height="1.68567" filterUnits="userSpaceOnUse" color-interpolation-filters="sRGB">
<feFlood flood-opacity="0" result="BackgroundImageFix"/>
<feBlend mode="normal" in="SourceGraphic" in2="BackgroundImageFix" result="shape"/>
<feGaussianBlur stdDeviation="0.125" result="effect1_foregroundBlur_1074_378"/>
</filter>
<filter id="filter27_f_1074_378" x="34.7451" y="15.2645" width="4.52246" height="1.68457" filterUnits="userSpaceOnUse" color-interpolation-filters="sRGB">
<feFlood flood-opacity="0" result="BackgroundImageFix"/>
<feBlend mode="normal" in="SourceGraphic" in2="BackgroundImageFix" result="shape"/>
<feGaussianBlur stdDeviation="0.125" result="effect1_foregroundBlur_1074_378"/>
</filter>
<radialGradient id="paint0_radial_1074_378" cx="0" cy="0" r="1" gradientUnits="userSpaceOnUse" gradientTransform="translate(5.58958 18.5348) rotate(-68.885) scale(12.4146 14.8519)">
<stop offset="0.475" stop-color="#E1A88D"/>
<stop offset="1" stop-color="#E5B38F"/>
</radialGradient>
<radialGradient id="paint1_radial_1074_378" cx="0" cy="0" r="1" gradientUnits="userSpaceOnUse" gradientTransform="translate(13.763 14.9217) rotate(130.764) scale(18.3465 4.41633)">
<stop offset="0.147" stop-color="#C3806D"/>
<stop offset="1" stop-color="#CF9271" stop-opacity="0"/>
</radialGradient>
<linearGradient id="paint2_linear_1074_378" x1="6.51533" y1="19.8017" x2="6.51533" y2="16.5377" gradientUnits="userSpaceOnUse">
<stop stop-color="#CF8A62"/>
<stop offset="1" stop-color="#CF8A62" stop-opacity="0"/>
</linearGradient>
<radialGradient id="paint3_radial_1074_378" cx="0" cy="0" r="1" gradientUnits="userSpaceOnUse" gradientTransform="translate(3.14583 5.4785) rotate(85.056) scale(4.34361 0.520856)">
<stop offset="0.077" stop-color="#CD8D5E"/>
<stop offset="1" stop-color="#CD8D5E" stop-opacity="0"/>
</radialGradient>
<radialGradient id="paint4_radial_1074_378" cx="0" cy="0" r="1" gradientUnits="userSpaceOnUse" gradientTransform="translate(6.30641 3.2475) rotate(90.788) scale(6.52926 0.509882)">
<stop stop-color="#CD8D5E"/>
<stop offset="1" stop-color="#CD8D5E" stop-opacity="0"/>
</radialGradient>
<radialGradient id="paint5_radial_1074_378" cx="0" cy="0" r="1" gradientUnits="userSpaceOnUse" gradientTransform="translate(10.0799 1.7798) rotate(99.609) scale(7.71501 0.956743)">
<stop offset="0.202" stop-color="#CD8D5E"/>
<stop offset="1" stop-color="#CD8D5E" stop-opacity="0"/>
</radialGradient>
<radialGradient id="paint6_radial_1074_378" cx="0" cy="0" r="1" gradientUnits="userSpaceOnUse" gradientTransform="translate(12.9515 2.46933) rotate(131.934) scale(1.90125 1.67018)">
<stop stop-color="#F2C4A1"/>
<stop offset="1" stop-color="#F2C4A1" stop-opacity="0"/>
</radialGradient>
<radialGradient id="paint7_radial_1074_378" cx="0" cy="0" r="1" gradientUnits="userSpaceOnUse" gradientTransform="translate(9.25999 0.500917) rotate(121.412) scale(2.39182 1.47774)">
<stop stop-color="#F2C4A1"/>
<stop offset="1" stop-color="#F2C4A1" stop-opacity="0"/>
</radialGradient>
<radialGradient id="paint8_radial_1074_378" cx="0" cy="0" r="1" gradientUnits="userSpaceOnUse" gradientTransform="translate(5.30435 1.6323) rotate(99.841) scale(2.38437 1.82967)">
<stop stop-color="#F2C4A1"/>
<stop offset="1" stop-color="#F2C4A1" stop-opacity="0"/>
</radialGradient>
<radialGradient id="paint9_radial_1074_378" cx="0" cy="0" r="1" gradientUnits="userSpaceOnUse" gradientTransform="translate(1.94983 3.98158) rotate(98.1301) scale(1.86461 1.32557)">
<stop stop-color="#F2C4A1"/>
<stop offset="1" stop-color="#F2C4A1" stop-opacity="0"/>
</radialGradient>
<radialGradient id="paint10_radial_1074_378" cx="0" cy="0" r="1" gradientUnits="userSpaceOnUse" gradientTransform="translate(17.3522 8.73683) rotate(135) scale(2.95792 2.31467)">
<stop stop-color="#F2C4A1"/>
<stop offset="1" stop-color="#F2C4A1" stop-opacity="0"/>
</radialGradient>
<linearGradient id="paint11_linear_1074_378" x1="0.00249174" y1="13.8294" x2="1.55499" y2="13.6799" gradientUnits="userSpaceOnUse">
<stop stop-color="#FFC3A0"/>
<stop offset="1" stop-color="#FFC3A0" stop-opacity="0"/>
</linearGradient>
<linearGradient id="paint12_linear_1074_378" x1="2.38293" y1="19.8381" x2="10.7684" y2="19.8381" gradientUnits="userSpaceOnUse">
<stop stop-color="#E6724B"/>
<stop offset="0.743" stop-color="#D64D18"/>
</linearGradient>
<linearGradient id="paint13_linear_1074_378" x1="6.73377" y1="18.715" x2="6.73377" y2="19.2095" gradientUnits="userSpaceOnUse">
<stop stop-color="#DD6422"/>
<stop offset="1" stop-color="#DD6422" stop-opacity="0"/>
</linearGradient>
<radialGradient id="paint14_radial_1074_378" cx="0" cy="0" r="1" gradientUnits="userSpaceOnUse" gradientTransform="translate(44.523 47.8963) rotate(162.199) scale(17.5445 18.7079)">
<stop stop-color="#FF8045"/>
<stop offset="1" stop-color="#FF8045" stop-opacity="0"/>
</radialGradient>
<radialGradient id="paint15_radial_1074_378" cx="0" cy="0" r="1" gradientUnits="userSpaceOnUse" gradientTransform="translate(15.2613 53.2591) rotate(-90) scale(8.86462 5.1102)">
<stop stop-color="#FF6E45"/>
<stop offset="1" stop-color="#FF6E45" stop-opacity="0"/>
</radialGradient>
<linearGradient id="paint16_linear_1074_378" x1="12.4764" y1="46.8728" x2="16.2273" y2="34.8285" gradientUnits="userSpaceOnUse">
<stop stop-color="#FF4B54"/>
<stop offset="1" stop-color="#FF4B54" stop-opacity="0"/>
</linearGradient>
<radialGradient id="paint17_radial_1074_378" cx="0" cy="0" r="1" gradientUnits="userSpaceOnUse" gradientTransform="translate(0.0467759 20.6758) rotate(90) scale(16.8906 10.4219)">
<stop stop-color="#FF7C1F"/>
<stop offset="1" stop-color="#FF7C1F" stop-opacity="0"/>
</radialGradient>
<radialGradient id="paint18_radial_1074_378" cx="0" cy="0" r="1" gradientUnits="userSpaceOnUse" gradientTransform="translate(26.9089 36.5899) rotate(-166.974) scale(15.6294 5.2638)">
<stop stop-color="#D93F13"/>
<stop offset="1" stop-color="#D93F13" stop-opacity="0"/>
</radialGradient>
<linearGradient id="paint19_linear_1074_378" x1="20.3213" y1="42.4491" x2="19.2441" y2="40.4117" gradientUnits="userSpaceOnUse">
<stop offset="0.133" stop-color="#FF611D"/>
<stop offset="1" stop-color="#FF611D" stop-opacity="0"/>
</linearGradient>
<linearGradient id="paint20_linear_1074_378" x1="27.4608" y1="36.172" x2="34.6962" y2="42.1271" gradientUnits="userSpaceOnUse">
<stop stop-color="#B56860"/>
<stop offset="1" stop-color="#F3AE8E"/>
</linearGradient>
<radialGradient id="paint21_radial_1074_378" cx="0" cy="0" r="1" gradientUnits="userSpaceOnUse" gradientTransform="translate(30.7766 35.0507) rotate(90) scale(4.86515 5.26307)">
<stop stop-color="#BD6D6D"/>
<stop offset="1" stop-color="#BD6D6D" stop-opacity="0"/>
</radialGradient>
<linearGradient id="paint22_linear_1074_378" x1="7.77422" y1="25.0496" x2="18.7951" y2="40.9216" gradientUnits="userSpaceOnUse">
<stop stop-color="#FF7636"/>
<stop offset="1" stop-color="#FF7636" stop-opacity="0"/>
</linearGradient>
<linearGradient id="paint23_linear_1074_378" x1="3.62152" y1="5.7986" x2="1.79877" y2="9.22176" gradientUnits="userSpaceOnUse">
<stop stop-color="#CA895A"/>
<stop offset="1" stop-color="#CA895A" stop-opacity="0"/>
</linearGradient>
<linearGradient id="paint24_linear_1074_378" x1="6.34328" y1="4.97629" x2="3.85161" y2="6.85272" gradientUnits="userSpaceOnUse">
<stop stop-color="#CA895A"/>
<stop offset="1" stop-color="#CA895A" stop-opacity="0"/>
</linearGradient>
<linearGradient id="paint25_linear_1074_378" x1="9.71574" y1="6.12639" x2="8.98357" y2="9.12406" gradientUnits="userSpaceOnUse">
<stop stop-color="#CA895A"/>
<stop offset="1" stop-color="#CA895A" stop-opacity="0"/>
</linearGradient>
<linearGradient id="paint26_linear_1074_378" x1="1.25624" y1="6.0152" x2="2.06124" y2="11.012" gradientUnits="userSpaceOnUse">
<stop stop-color="#F1BEA1"/>
<stop offset="1" stop-color="#F1BEA1" stop-opacity="0"/>
</linearGradient>
<linearGradient id="paint27_linear_1074_378" x1="-nan" y1="-nan" x2="-nan" y2="-nan" gradientUnits="userSpaceOnUse">
<stop stop-color="#F1BEA1"/>
<stop offset="1" stop-color="#F1BEA1" stop-opacity="0"/>
</linearGradient>
<linearGradient id="paint28_linear_1074_378" x1="7.56948" y1="2.89096" x2="9.68165" y2="9.93663" gradientUnits="userSpaceOnUse">
<stop stop-color="#F1BEA1"/>
<stop offset="1" stop-color="#F1BEA1" stop-opacity="0"/>
</linearGradient>
<linearGradient id="paint29_linear_1074_378" x1="9.40012" y1="4.70996" x2="10.0058" y2="11.288" gradientUnits="userSpaceOnUse">
<stop stop-color="#F1BEA1"/>
<stop offset="1" stop-color="#F1BEA1" stop-opacity="0"/>
</linearGradient>
<linearGradient id="paint30_linear_1074_378" x1="3.73803" y1="9.59363" x2="1.64503" y2="9.4633" gradientUnits="userSpaceOnUse">
<stop stop-color="#EFB99B"/>
<stop offset="1" stop-color="#EFB99B" stop-opacity="0"/>
</linearGradient>
<linearGradient id="paint31_linear_1074_378" x1="6.1756" y1="9.26395" x2="5.09268" y2="8.9937" gradientUnits="userSpaceOnUse">
<stop stop-color="#EFB99B"/>
<stop offset="1" stop-color="#EFB99B" stop-opacity="0"/>
</linearGradient>
<linearGradient id="paint32_linear_1074_378" x1="9.05274" y1="8.90553" x2="7.51366" y2="8.49728" gradientUnits="userSpaceOnUse">
<stop stop-color="#EFB99B"/>
<stop offset="1" stop-color="#EFB99B" stop-opacity="0"/>
</linearGradient>
<radialGradient id="paint33_radial_1074_378" cx="0" cy="0" r="1" gradientUnits="userSpaceOnUse" gradientTransform="translate(43.2179 24.8484) rotate(98.7274) scale(6.50892 7.73211)">
<stop offset="0.28" stop-color="#F7BF94"/>
<stop offset="1" stop-color="#DA8F78"/>
</radialGradient>
<radialGradient id="paint34_radial_1074_378" cx="0" cy="0" r="1" gradientUnits="userSpaceOnUse" gradientTransform="translate(18.1309 25.4928) rotate(64.592) scale(6.76656 3.07571)">
<stop stop-color="#F8BF95"/>
<stop offset="1" stop-color="#DC998E"/>
</radialGradient>
<radialGradient id="paint35_radial_1074_378" cx="0" cy="0" r="1" gradientUnits="userSpaceOnUse" gradientTransform="translate(19.9568 25.0266) rotate(81.457) scale(2.75092 2.41312)">
<stop offset="0.263" stop-color="#D79B77"/>
<stop offset="1" stop-color="#D79B77" stop-opacity="0"/>
</radialGradient>
<radialGradient id="paint36_radial_1074_378" cx="0" cy="0" r="1" gradientUnits="userSpaceOnUse" gradientTransform="translate(37.1763 23.0812) rotate(180) scale(11.9147 21.077)">
<stop stop-color="#FFC59F"/>
<stop offset="1" stop-color="#C8917D"/>
</radialGradient>
<linearGradient id="paint37_linear_1074_378" x1="42.5296" y1="26.9222" x2="32.6108" y2="26.9222" gradientUnits="userSpaceOnUse">
<stop stop-color="#F7C29D"/>
<stop offset="1" stop-color="#F7C29D" stop-opacity="0"/>
</linearGradient>
<radialGradient id="paint38_radial_1074_378" cx="0" cy="0" r="1" gradientUnits="userSpaceOnUse" gradientTransform="translate(34.3818 9.60322) rotate(95.039) scale(29.6585 24.5607)">
<stop offset="0.778" stop-color="#B36E91" stop-opacity="0"/>
<stop offset="1" stop-color="#B36E91"/>
</radialGradient>
<radialGradient id="paint39_radial_1074_378" cx="0" cy="0" r="1" gradientUnits="userSpaceOnUse" gradientTransform="translate(36.3541 20.5282) rotate(-90) scale(3.05605 3.78185)">
<stop offset="0.325" stop-color="#E4A38D"/>
<stop offset="1" stop-color="#E4A38D" stop-opacity="0"/>
</radialGradient>
<radialGradient id="paint40_radial_1074_378" cx="0" cy="0" r="1" gradientUnits="userSpaceOnUse" gradientTransform="translate(25.6763 20.2158) rotate(-93.0121) scale(2.51822 2.7404)">
<stop offset="0.378" stop-color="#C2847C"/>
<stop offset="1" stop-color="#C2847C" stop-opacity="0"/>
</radialGradient>
<radialGradient id="paint41_radial_1074_378" cx="0" cy="0" r="1" gradientUnits="userSpaceOnUse" gradientTransform="translate(19.6522 23.9571) scale(2.75044 13.9799)">
<stop stop-color="#DBA085"/>
<stop offset="1" stop-color="#DBA085" stop-opacity="0"/>
</radialGradient>
<radialGradient id="paint42_radial_1074_378" cx="0" cy="0" r="1" gradientUnits="userSpaceOnUse" gradientTransform="translate(17.4366 16.2426) rotate(-54.4126) scale(10.2403 2.31943)">
<stop offset="0.451" stop-color="#B67459"/>
<stop offset="1" stop-color="#B67459" stop-opacity="0"/>
</radialGradient>
<radialGradient id="paint43_radial_1074_378" cx="0" cy="0" r="1" gradientUnits="userSpaceOnUse" gradientTransform="translate(30.4239 32.3617) rotate(-103.259) scale(23.984 26.4192)">
<stop offset="0.924" stop-color="#C17F5F" stop-opacity="0"/>
<stop offset="1" stop-color="#C17F5F"/>
</radialGradient>
<radialGradient id="paint44_radial_1074_378" cx="0" cy="0" r="1" gradientUnits="userSpaceOnUse" gradientTransform="translate(35.2386 10.8165) rotate(19.415) scale(4.94146 2.96435)">
<stop offset="0.258" stop-color="#C17F5F"/>
<stop offset="1" stop-color="#C17F5F" stop-opacity="0"/>
</radialGradient>
<linearGradient id="paint45_linear_1074_378" x1="30.7768" y1="24.9691" x2="32.7241" y2="24.9691" gradientUnits="userSpaceOnUse">
<stop stop-color="#E1AA8C"/>
<stop offset="1" stop-color="#FECAA8"/>
</linearGradient>
<linearGradient id="paint46_linear_1074_378" x1="28.3311" y1="24.6145" x2="30.7806" y2="24.7506" gradientUnits="userSpaceOnUse">
<stop stop-color="#D29879" stop-opacity="0.915"/>
<stop offset="0.203" stop-color="#D29879"/>
<stop offset="1" stop-color="#D29879" stop-opacity="0"/>
</linearGradient>
<linearGradient id="paint47_linear_1074_378" x1="30.7768" y1="25.8776" x2="30.7768" y2="27.8191" gradientUnits="userSpaceOnUse">
<stop stop-color="#CB8685" stop-opacity="0"/>
<stop offset="0.845" stop-color="#CB8685"/>
</linearGradient>
<linearGradient id="paint48_linear_1074_378" x1="30.7768" y1="20.7562" x2="30.7768" y2="21.7126" gradientUnits="userSpaceOnUse">
<stop stop-color="#E0A78C"/>
<stop offset="1" stop-color="#E0A78C" stop-opacity="0"/>
</linearGradient>
<linearGradient id="paint49_linear_1074_378" x1="31.0739" y1="27.4147" x2="31.0739" y2="27.2806" gradientUnits="userSpaceOnUse">
<stop stop-color="#C27B78"/>
<stop offset="1" stop-color="#C27B78" stop-opacity="0"/>
</linearGradient>
<radialGradient id="paint50_radial_1074_378" cx="0" cy="0" r="1" gradientUnits="userSpaceOnUse" gradientTransform="translate(33.0998 22.9067) rotate(135.131) scale(5.91562 3.75999)">
<stop offset="0.94" stop-color="#C27B78" stop-opacity="0"/>
<stop offset="1" stop-color="#C27B78"/>
</radialGradient>
<radialGradient id="paint51_radial_1074_378" cx="0" cy="0" r="1" gradientUnits="userSpaceOnUse" gradientTransform="translate(28.2078 30.5772) rotate(-60.7325) scale(1.61837 4.70952)">
<stop stop-color="#D0978E"/>
<stop offset="1" stop-color="#D0978E" stop-opacity="0"/>
</radialGradient>
<radialGradient id="paint52_radial_1074_378" cx="0" cy="0" r="1" gradientUnits="userSpaceOnUse" gradientTransform="translate(30.7765 31.1465) rotate(-90) scale(1.64262 6.60868)">
<stop stop-color="#89024E"/>
<stop offset="1" stop-color="#87004D"/>
</radialGradient>
<linearGradient id="paint53_linear_1074_378" x1="43.0008" y1="10.1743" x2="19.9279" y2="10.1743" gradientUnits="userSpaceOnUse">
<stop stop-color="#FFF6B9"/>
<stop offset="1" stop-color="#E7C991"/>
</linearGradient>
<radialGradient id="paint54_radial_1074_378" cx="0" cy="0" r="1" gradientUnits="userSpaceOnUse" gradientTransform="translate(18.8584 19.4759) rotate(-90) scale(8.27914 14.669)">
<stop stop-color="#E7B286"/>
<stop offset="1" stop-color="#E7B286" stop-opacity="0"/>
</radialGradient>
<radialGradient id="paint55_radial_1074_378" cx="0" cy="0" r="1" gradientUnits="userSpaceOnUse" gradientTransform="translate(41.8546 19.4759) rotate(-90) scale(8.27914 14.669)">
<stop stop-color="#F6CB9C"/>
<stop offset="1" stop-color="#F6CB9C" stop-opacity="0"/>
</radialGradient>
<radialGradient id="paint56_radial_1074_378" cx="0" cy="0" r="1" gradientUnits="userSpaceOnUse" gradientTransform="translate(40.1381 5.17035) rotate(-159.121) scale(7.93174 4.22418)">
<stop stop-color="#FFFFC1"/>
<stop offset="1" stop-color="#FFFFC1" stop-opacity="0"/>
</radialGradient>
<radialGradient id="paint57_radial_1074_378" cx="0" cy="0" r="1" gradientUnits="userSpaceOnUse" gradientTransform="translate(28.7139 1.54168) rotate(58.4651) scale(3.9441 9.13269)">
<stop offset="0.287" stop-color="#DDCA94"/>
<stop offset="1" stop-color="#DDCA94" stop-opacity="0"/>
</radialGradient>
<radialGradient id="paint58_radial_1074_378" cx="0" cy="0" r="1" gradientUnits="userSpaceOnUse" gradientTransform="translate(31.353 4.83078) rotate(160.16) scale(9.22379 2.5672)">
<stop stop-color="#FFFCBE"/>
<stop offset="1" stop-color="#FFFCBE" stop-opacity="0"/>
</radialGradient>
<radialGradient id="paint59_radial_1074_378" cx="0" cy="0" r="1" gradientUnits="userSpaceOnUse" gradientTransform="translate(18.3987 15.677) rotate(-57.724) scale(13.7352 15.2172)">
<stop offset="0.093" stop-color="#D5A088"/>
<stop offset="0.233" stop-color="#E4B99B"/>
<stop offset="1" stop-color="#E4B99B" stop-opacity="0"/>
</radialGradient>
<radialGradient id="paint60_radial_1074_378" cx="0" cy="0" r="1" gradientUnits="userSpaceOnUse" gradientTransform="translate(39.0281 7.47378) rotate(13.3075) scale(7.92941 4.43466)">
<stop stop-color="#FFFFC7"/>
<stop offset="1" stop-color="#FFFFC7" stop-opacity="0"/>
</radialGradient>
<radialGradient id="paint61_radial_1074_378" cx="0" cy="0" r="1" gradientUnits="userSpaceOnUse" gradientTransform="translate(42.4651 17.9671) rotate(-120.119) scale(9.75863 5.44232)">
<stop stop-color="#E3B593"/>
<stop offset="1" stop-color="#E4B78D" stop-opacity="0"/>
</radialGradient>
<radialGradient id="paint62_radial_1074_378" cx="0" cy="0" r="1" gradientUnits="userSpaceOnUse" gradientTransform="translate(41.0548 17.2838) rotate(-120.695) scale(5.837 4.18081)">
<stop offset="0.057" stop-color="#DFB086"/>
<stop offset="1" stop-color="#DFB086" stop-opacity="0"/>
</radialGradient>
<radialGradient id="paint63_radial_1074_378" cx="0" cy="0" r="1" gradientUnits="userSpaceOnUse" gradientTransform="translate(41.703 7.20891) rotate(166.509) scale(11.2464 12.1578)">
<stop offset="0.652" stop-color="#EBCD93" stop-opacity="0"/>
<stop offset="1" stop-color="#EBCD93"/>
</radialGradient>
<radialGradient id="paint64_radial_1074_378" cx="0" cy="0" r="1" gradientUnits="userSpaceOnUse" gradientTransform="translate(38.6467 6.92178) rotate(107.002) scale(0.914526 4.18109)">
<stop offset="0.461" stop-color="#FFED93"/>
<stop offset="1" stop-color="#FFED93" stop-opacity="0"/>
</radialGradient>
<radialGradient id="paint65_radial_1074_378" cx="0" cy="0" r="1" gradientUnits="userSpaceOnUse" gradientTransform="translate(38.6391 5.0492) rotate(117.979) scale(9.68947 24.9864)">
<stop offset="0.651" stop-color="#E1B395" stop-opacity="0"/>
<stop offset="1" stop-color="#E1B395"/>
</radialGradient>
<radialGradient id="paint66_radial_1074_378" cx="0" cy="0" r="1" gradientUnits="userSpaceOnUse" gradientTransform="translate(35.7501 20.9939) rotate(90) scale(1.84907 2.94114)">
<stop offset="0.802" stop-color="#925C51"/>
<stop offset="1" stop-color="#85534D"/>
</radialGradient>
<radialGradient id="paint67_radial_1074_378" cx="0" cy="0" r="1" gradientUnits="userSpaceOnUse" gradientTransform="translate(35.2291 21.1836) rotate(-127.812) scale(0.862153 1.18698)">
<stop offset="0.766" stop-color="#FFE6E2" stop-opacity="0"/>
<stop offset="0.966" stop-color="#FFE6E2"/>
</radialGradient>
<linearGradient id="paint68_linear_1074_378" x1="37.5235" y1="21.1166" x2="36.8085" y2="21.5575" gradientUnits="userSpaceOnUse">
<stop stop-color="#B4948D"/>
<stop offset="1" stop-color="#B4948D" stop-opacity="0"/>
</linearGradient>
<radialGradient id="paint69_radial_1074_378" cx="0" cy="0" r="1" gradientUnits="userSpaceOnUse" gradientTransform="translate(25.8042 20.992) rotate(90) scale(1.84916 2.9413)">
<stop offset="0.802" stop-color="#925C51"/>
<stop offset="1" stop-color="#85534D"/>
</radialGradient>
<linearGradient id="paint70_linear_1074_378" x1="27.4991" y1="21.1166" x2="26.7841" y2="21.5574" gradientUnits="userSpaceOnUse">
<stop stop-color="#B4948D"/>
<stop offset="1" stop-color="#B4948D" stop-opacity="0"/>
</linearGradient>
<radialGradient id="paint71_radial_1074_378" cx="0" cy="0" r="1" gradientUnits="userSpaceOnUse" gradientTransform="translate(25.4915 21.4267) rotate(-118.811) scale(1.12618 1.35373)">
<stop offset="0.766" stop-color="#FFE6E2" stop-opacity="0"/>
<stop offset="0.966" stop-color="#FFE6E2"/>
</radialGradient>
<linearGradient id="paint72_linear_1074_378" x1="45.4451" y1="21.1779" x2="42.6947" y2="26.1363" gradientUnits="userSpaceOnUse">
<stop stop-color="#F8C5A2"/>
<stop offset="1" stop-color="#E0A48C"/>
</linearGradient>
<radialGradient id="paint73_radial_1074_378" cx="0" cy="0" r="1" gradientUnits="userSpaceOnUse" gradientTransform="translate(41.3013 21.0246) rotate(74.3476) scale(5.30953 5.06569)">
<stop offset="0.856" stop-color="#CE8D79" stop-opacity="0"/>
<stop offset="1" stop-color="#CE8D79"/>
</radialGradient>
<radialGradient id="paint74_radial_1074_378" cx="0" cy="0" r="1" gradientUnits="userSpaceOnUse" gradientTransform="translate(42.1216 22.2666) rotate(-53.9199) scale(3.04869 2.55541)">
<stop offset="0.664" stop-color="#E3A17B"/>
<stop offset="1" stop-color="#E3A17B" stop-opacity="0"/>
</radialGradient>
<linearGradient id="paint75_linear_1074_378" x1="17.4437" y1="22.7822" x2="20.7672" y2="22.4908" gradientUnits="userSpaceOnUse">
<stop stop-color="#C48874"/>
<stop offset="1" stop-color="#BD776C"/>
</linearGradient>
<radialGradient id="paint76_radial_1074_378" cx="0" cy="0" r="1" gradientUnits="userSpaceOnUse" gradientTransform="translate(19.5731 22.4908) rotate(-171.68) scale(3.85811 3.79287)">
<stop offset="0.775" stop-color="#DCA187" stop-opacity="0"/>
<stop offset="1" stop-color="#DCA187"/>
</radialGradient>
</defs>
</svg>
