<svg xmlns="http://www.w3.org/2000/svg" width="20" height="20" fill="none" viewBox="0 0 20 20"><path fill="url(#paint0_linear_1160_2066)" d="M16.4588 13.7764L13.0627 12.2677C12.7098 12.1098 12.3146 12.0733 11.9388 12.1638C11.5629 12.2542 11.2276 12.4666 10.9852 12.7677L10.0065 13.9914C8.4019 12.9618 7.03599 11.6009 6.00033 10.0001L7.22405 9.02139C7.52486 8.77903 7.73703 8.44394 7.82747 8.06837C7.91791 7.6928 7.88154 7.29786 7.72404 6.94512L6.22408 3.5401C6.05581 3.16094 5.75833 2.85389 5.3847 2.67371C5.01107 2.49353 4.58558 2.45193 4.18413 2.55634L1.3092 3.30635C0.892574 3.41478 0.530539 3.67299 0.292325 4.03159C0.0541114 4.39019 -0.043564 4.82402 0.0179779 5.25011C0.553715 8.96853 2.27925 12.4134 4.93631 15.0692C7.59337 17.725 11.0391 19.4489 14.7576 19.9827C15.1838 20.0431 15.6173 19.9442 15.9751 19.7051C16.333 19.4659 16.5902 19.1033 16.6976 18.6865L17.4476 15.8114C17.5519 15.4101 17.5096 14.9846 17.3284 14.6116C17.1472 14.2386 16.8388 13.9425 16.4588 13.7764Z"/><path fill="url(#paint1_linear_1160_2066)" d="M12.4999 10C12.4999 10.3316 12.6316 10.6495 12.866 10.8839C13.1004 11.1184 13.4184 11.25 13.7499 11.25C14.0814 11.25 14.3993 11.1184 14.6337 10.8839C14.8682 10.6495 14.9998 10.3316 14.9998 10C14.9998 8.67395 14.4731 7.40217 13.5354 6.46448C12.5978 5.52679 11.326 5 9.99997 5C9.66846 5 9.35052 5.1317 9.11611 5.36612C8.88169 5.60054 8.75 5.91849 8.75 6.25001C8.75 6.58153 8.88169 6.89948 9.11611 7.1339C9.35052 7.36832 9.66846 7.50002 9.99997 7.50002C10.663 7.50002 11.2989 7.76341 11.7677 8.23226C12.2365 8.7011 12.4999 9.33699 12.4999 10Z"/><path fill="url(#paint2_linear_1160_2066)" d="M9.99997 0C9.66846 0 9.35052 0.131697 9.11611 0.366119C8.88169 0.600542 8.75 0.918487 8.75 1.25001C8.75 1.58153 8.88169 1.89948 9.11611 2.1339C9.35052 2.36832 9.66846 2.50002 9.99997 2.50002C11.9884 2.50201 13.8949 3.29283 15.301 4.69893C16.707 6.10503 17.4978 8.01155 17.4998 10.0001C17.4998 10.3316 17.6315 10.6495 17.8659 10.884C18.1003 11.1184 18.4182 11.2501 18.7498 11.2501C19.0813 11.2501 19.3992 11.1184 19.6336 10.884C19.868 10.6495 19.9997 10.3316 19.9997 10.0001C19.9968 7.34881 18.9423 4.80698 17.0676 2.93224C15.1929 1.05751 12.6512 0.00297766 9.99997 0V0Z"/><defs><linearGradient id="paint0_linear_1160_2066" x1="3.428" x2="18.561" y1="-5.075" y2=".473" gradientUnits="userSpaceOnUse"><stop offset=".02" stop-color="#B91DFF"/><stop offset="1" stop-color="#2E3DFF"/></linearGradient><linearGradient id="paint1_linear_1160_2066" x1="9.974" x2="15.378" y1="2.295" y2="4.275" gradientUnits="userSpaceOnUse"><stop offset=".02" stop-color="#B91DFF"/><stop offset="1" stop-color="#2E3DFF"/></linearGradient><linearGradient id="paint2_linear_1160_2066" x1="10.953" x2="20.68" y1="-4.869" y2="-1.305" gradientUnits="userSpaceOnUse"><stop offset=".02" stop-color="#B91DFF"/><stop offset="1" stop-color="#2E3DFF"/></linearGradient></defs></svg>