<svg xmlns="http://www.w3.org/2000/svg" width="32" height="28" fill="none" viewBox="0 0 32 28"><path fill="url(#paint0_linear_1074_762)" d="M16.3065 24.9215C16.0561 25.1719 15.6109 25.2136 15.3187 24.9215C15.1884 24.7901 15.1152 24.6126 15.1152 24.4276C15.1152 24.2425 15.1884 24.065 15.3187 23.9336L20.0352 19.2171L18.0735 17.2554L13.357 21.9719C13.0926 22.2502 12.6474 22.2363 12.3691 21.9719C12.2388 21.8406 12.1657 21.663 12.1657 21.478C12.1657 21.293 12.2388 21.1154 12.3691 20.9841L17.0857 16.2676L15.1239 14.3058L10.4074 19.0223C10.157 19.2728 9.71174 19.3145 9.41957 19.0223C9.29219 18.8895 9.22107 18.7125 9.22107 18.5284C9.22107 18.3444 9.29219 18.1674 9.41957 18.0345L14.1361 13.318L12.1604 11.3563L7.44392 16.0728C7.19348 16.3232 6.74827 16.3649 6.45609 16.0728C6.32871 15.9399 6.25759 15.7629 6.25759 15.5789C6.25759 15.3948 6.32871 15.2178 6.45609 15.0849L12.55 8.99104L15.1517 11.5789C16.4735 12.9006 18.7552 12.8867 20.077 11.5789C21.4404 10.2154 21.4404 8.01712 20.077 6.65364L17.4891 4.06582L17.8787 3.67625C18.9639 2.59104 20.7309 2.59104 21.8161 3.67625L27.7152 9.57538C28.8004 10.6606 28.8004 12.4276 27.7152 13.5128L16.3065 24.9215ZM29.677 15.4884C30.7193 14.4431 31.3046 13.0272 31.3046 11.551C31.3046 10.0749 30.7193 8.65895 29.677 7.61364L23.7778 1.71451C22.7325 0.672218 21.3166 0.0869141 19.8404 0.0869141C18.3643 0.0869141 16.9484 0.672218 15.903 1.71451L15.5135 2.10408L15.1239 1.71451C14.0786 0.672218 12.6627 0.0869141 11.1865 0.0869141C9.71037 0.0869141 8.29444 0.672218 7.24914 1.71451L2.32392 6.63973C1.3827 7.57773 0.80897 8.8221 0.70686 10.147C0.60475 11.4719 0.981026 12.7895 1.7674 13.8606L3.78479 11.8432C3.51584 11.3181 3.42076 10.7211 3.51329 10.1384C3.60582 9.55566 3.88117 9.01745 4.29957 8.60147L9.22479 3.67625C10.31 2.59104 12.077 2.59104 13.1622 3.67625L18.1152 8.6293C18.3657 8.87973 18.4074 9.32495 18.1152 9.61712C17.823 9.9093 17.3778 9.86756 17.1274 9.61712L12.55 5.05365L4.48044 13.1093C3.11696 14.4589 3.11696 16.671 4.48044 18.0345C5.02305 18.5771 5.7187 18.911 6.45609 19.0084C6.55352 19.7566 6.89562 20.4515 7.4291 20.985C7.96259 21.5185 8.65751 21.8606 9.40566 21.958C9.50309 22.7061 9.84518 23.4011 10.3787 23.9345C10.9122 24.468 11.6071 24.8101 12.3552 24.9076C12.4526 25.6589 12.7865 26.3406 13.3291 26.8832C13.983 27.5371 14.8596 27.8989 15.7917 27.8989C16.7239 27.8989 17.6004 27.5371 18.2544 26.8832L29.677 15.4884Z"/><defs><linearGradient id="paint0_linear_1074_762" x1="-6.434" x2="32.997" y1=".087" y2=".409" gradientUnits="userSpaceOnUse"><stop offset=".02" stop-color="#B91DFF"/><stop offset="1" stop-color="#2E3DFF"/></linearGradient></defs></svg>