<svg xmlns="http://www.w3.org/2000/svg" width="30" height="29" fill="none" viewBox="0 0 30 29"><path fill="url(#paint0_linear_1074_784)" d="M24.5981 21.2425C25.1575 20.2636 25.577 19.1449 25.577 17.8864C25.577 14.3905 22.7802 11.5937 19.2843 11.5937C15.7884 11.5937 12.9916 14.3905 12.9916 17.8864C12.9916 21.3823 15.7884 24.1791 19.2843 24.1791C20.5428 24.1791 21.6615 23.7596 22.6404 23.2002L27.1152 27.675L29.0729 25.7173L24.5981 21.2425ZM19.2843 21.3823C17.3266 21.3823 15.7884 19.8441 15.7884 17.8864C15.7884 15.9287 17.3266 14.3905 19.2843 14.3905C21.242 14.3905 22.7802 15.9287 22.7802 17.8864C22.7802 19.8441 21.242 21.3823 19.2843 21.3823ZM14.39 25.5775V28.3742C6.67097 28.3742 0.40625 22.1095 0.40625 14.3905C0.40625 6.67145 6.67097 0.406738 14.39 0.406738C21.1581 0.406738 26.7936 5.21714 28.0941 11.5937H25.1994C24.7633 9.90427 23.938 8.34025 22.7895 7.02666C21.641 5.71307 20.2012 4.68635 18.5851 4.02853V4.60186C18.5851 6.14007 17.3266 7.39861 15.7884 7.39861H12.9916V10.1954C12.9916 10.9645 12.3623 11.5937 11.5932 11.5937H8.79649V14.3905H11.5932V18.5856H10.1949L3.49666 11.8874C3.31487 12.6984 3.203 13.5235 3.203 14.3905C3.203 20.5573 8.22316 25.5775 14.39 25.5775Z"/><defs><linearGradient id="paint0_linear_1074_784" x1="-6.265" x2="30.658" y1=".407" y2=".687" gradientUnits="userSpaceOnUse"><stop offset=".02" stop-color="#B91DFF"/><stop offset="1" stop-color="#2E3DFF"/></linearGradient></defs></svg>