<svg width="34" height="35" viewBox="0 0 34 35" fill="none" xmlns="http://www.w3.org/2000/svg">
<g clip-path="url(#clip0_1074_769)">
<path d="M5.76452 22.9836C7.30912 22.9836 8.56127 21.7315 8.56127 20.1869C8.56127 18.6423 7.30912 17.3901 5.76452 17.3901C4.21992 17.3901 2.96777 18.6423 2.96777 20.1869C2.96777 21.7315 4.21992 22.9836 5.76452 22.9836Z" fill="url(#paint0_linear_1074_769)"/>
<path d="M1.87692 25.1934C1.3703 25.4099 0.938499 25.7706 0.635184 26.2305C0.331869 26.6905 0.170418 27.2294 0.1709 27.7804V28.5774C0.1709 29.3466 0.800168 29.9758 1.56927 29.9758H6.46358V27.7244C6.46358 26.5638 6.78521 25.4731 7.34456 24.5222C6.82716 24.4383 6.30976 24.3823 5.7644 24.3823C4.38001 24.3823 3.06553 24.676 1.87692 25.1934Z" fill="url(#paint1_linear_1074_769)"/>
<path d="M28.1385 22.9836C29.6831 22.9836 30.9353 21.7315 30.9353 20.1869C30.9353 18.6423 29.6831 17.3901 28.1385 17.3901C26.5939 17.3901 25.3418 18.6423 25.3418 20.1869C25.3418 21.7315 26.5939 22.9836 28.1385 22.9836Z" fill="url(#paint2_linear_1074_769)"/>
<path d="M32.0263 25.1934C30.8001 24.6583 29.4767 24.3822 28.1388 24.3823C27.5935 24.3823 27.0761 24.4382 26.5587 24.5221C27.118 25.473 27.4396 26.5638 27.4396 27.7244V29.9758H32.3339C33.103 29.9758 33.7323 29.3465 33.7323 28.5774V27.7804C33.7323 26.6477 33.0611 25.6408 32.0263 25.1934ZM22.8809 23.8929C21.2448 23.1657 19.2312 22.6343 16.9518 22.6343C14.6725 22.6343 12.6588 23.1797 11.0227 23.8929C10.2858 24.225 9.66114 24.7638 9.2243 25.4439C8.78747 26.124 8.55726 26.9161 8.56158 27.7244V28.5774C8.56158 29.3465 9.19085 29.9758 9.95996 29.9758H23.9437C24.7128 29.9758 25.3421 29.3465 25.3421 28.5774V27.7244C25.3421 26.0743 24.3912 24.5641 22.8809 23.8929ZM12.7567 17.3904C12.7567 19.7117 14.6305 21.5856 16.9518 21.5856C19.2731 21.5856 21.1469 19.7117 21.1469 17.3904C21.1469 15.0691 19.2731 13.1953 16.9518 13.1953C14.6305 13.1953 12.7567 15.0691 12.7567 17.3904Z" fill="url(#paint3_linear_1074_769)"/>
<path d="M3.63887 15.7963C3.20537 14.7336 2.96765 13.6988 2.96765 12.636C2.96765 9.0282 5.79236 6.20349 9.40017 6.20349C13.1478 6.20349 14.742 8.63666 16.9514 11.2236C19.1468 8.66462 20.727 6.20349 24.5026 6.20349C28.1104 6.20349 30.9351 9.0282 30.9351 12.636C30.9351 13.6988 30.6974 14.7336 30.2639 15.7963C31.1728 16.2298 31.914 16.943 32.4034 17.81C33.2424 16.1319 33.7319 14.4259 33.7319 12.636C33.7319 7.46202 29.6766 3.40674 24.5026 3.40674C21.58 3.40674 18.7833 4.76316 16.9514 6.91666C15.1195 4.76316 12.3228 3.40674 9.40017 3.40674C4.22618 3.40674 0.170898 7.46202 0.170898 12.636C0.170898 14.4259 0.660329 16.1319 1.51334 17.81C2.00277 16.943 2.74391 16.2298 3.63887 15.7963Z" fill="url(#paint4_linear_1074_769)"/>
</g>
<defs>
<linearGradient id="paint0_linear_1074_769" x1="1.66614" y1="17.3901" x2="8.87064" y2="17.4435" gradientUnits="userSpaceOnUse">
<stop offset="0.0195289" stop-color="#B91DFF"/>
<stop offset="1" stop-color="#2E3DFF"/>
</linearGradient>
<linearGradient id="paint1_linear_1074_769" x1="-1.49844" y1="24.3823" x2="7.741" y2="24.4701" gradientUnits="userSpaceOnUse">
<stop offset="0.0195289" stop-color="#B91DFF"/>
<stop offset="1" stop-color="#2E3DFF"/>
</linearGradient>
<linearGradient id="paint2_linear_1074_769" x1="24.0402" y1="17.3901" x2="31.2447" y2="17.4435" gradientUnits="userSpaceOnUse">
<stop offset="0.0195289" stop-color="#B91DFF"/>
<stop offset="1" stop-color="#2E3DFF"/>
</linearGradient>
<linearGradient id="paint3_linear_1074_769" x1="2.70417" y1="13.1953" x2="35.1223" y2="13.5557" gradientUnits="userSpaceOnUse">
<stop offset="0.0195289" stop-color="#B91DFF"/>
<stop offset="1" stop-color="#2E3DFF"/>
</linearGradient>
<linearGradient id="paint4_linear_1074_769" x1="-7.63889" y1="3.40674" x2="35.5776" y2="4.15299" gradientUnits="userSpaceOnUse">
<stop offset="0.0195289" stop-color="#B91DFF"/>
<stop offset="1" stop-color="#2E3DFF"/>
</linearGradient>
<clipPath id="clip0_1074_769">
<rect width="33.561" height="33.561" fill="white" transform="translate(0.170898 0.609863)"/>
</clipPath>
</defs>
</svg>
