<svg xmlns="http://www.w3.org/2000/svg" width="22" height="22" fill="none" viewBox="0 0 22 22"><path fill="url(#paint0_linear_1411_495)" d="M15.4046 0.916504C14.5977 0.922426 13.7952 1.0365 13.0185 1.25567L12.9635 1.27217C12.4743 1.18839 11.9794 1.14212 11.4831 1.13375C10.4629 1.11634 9.58563 1.3565 8.8798 1.75709C8.18313 1.52242 6.73846 1.11817 5.21588 1.19884C4.15529 1.25475 2.99846 1.56734 2.14138 2.4455C1.28613 3.32367 0.834211 4.68217 0.929545 6.53109C0.955211 7.04167 1.10463 7.87309 1.35396 8.95109C1.60146 10.0282 1.95163 11.2886 2.38704 12.439C2.82246 13.5903 3.30004 14.6243 4.04621 15.3265C4.41838 15.6785 4.93079 15.9746 5.53488 15.9498C5.95929 15.9333 6.34338 15.7528 6.67429 15.486C6.83563 15.6923 7.00796 15.7821 7.16471 15.8655C7.36179 15.97 7.5543 16.0415 7.75321 16.0892C8.3041 16.2302 8.87777 16.2585 9.43988 16.1726C9.68463 16.1332 9.94221 16.0562 10.1989 15.9462C10.208 16.223 10.219 16.4943 10.231 16.7693C10.2658 17.6402 10.2887 18.4441 10.5582 19.149C10.6013 19.2645 10.7195 19.8576 11.188 20.381C11.6555 20.9053 12.5721 21.2317 13.6153 21.0153C14.3514 20.8623 15.2882 20.5863 15.9097 19.7283C16.5239 18.8795 16.8016 17.6613 16.8566 15.6868C16.8704 15.5804 16.8869 15.4897 16.9043 15.4044L17.051 15.4173H17.0675C17.853 15.4521 18.7055 15.3439 19.4178 15.0231C20.0485 14.7389 20.5251 14.4529 20.8725 13.9442C20.9596 13.8186 21.055 13.6664 21.0806 13.4033C21.1063 13.1421 20.9523 12.7314 20.6947 12.5426C20.1786 12.1631 19.855 12.307 19.5076 12.3776C19.1657 12.4509 18.8174 12.4913 18.4663 12.4995C19.4682 10.8642 20.186 9.12617 20.5957 7.588C20.8377 6.6805 20.9743 5.84359 20.9853 5.11209C20.9963 4.38059 20.9349 3.7325 20.483 3.1715C19.0704 1.42067 17.084 0.936671 15.5476 0.920171C15.5 0.919254 15.4523 0.918337 15.4046 0.919254V0.916504ZM15.3643 1.45459C16.8172 1.44084 18.6744 1.83684 20.0072 3.48959C20.307 3.86084 20.3959 4.4035 20.3858 5.07267C20.3748 5.74092 20.2474 6.54025 20.0145 7.41659C19.5626 9.11425 18.7083 11.0924 17.5047 12.8689C17.5476 12.8984 17.5937 12.9227 17.6422 12.9413C17.8934 13.0422 18.4654 13.1283 19.6085 12.901C19.8954 12.8414 20.1062 12.802 20.3244 12.9633C20.3767 13.0066 20.4183 13.0614 20.4458 13.1234C20.4733 13.1855 20.486 13.253 20.483 13.3208C20.4711 13.4233 20.4321 13.5207 20.3702 13.6032C20.1502 13.9249 19.7139 14.2302 19.1547 14.4813C18.6606 14.705 17.9511 14.8214 17.3223 14.8288C17.007 14.8315 16.7164 14.8077 16.4698 14.7334L16.4533 14.7279C16.358 15.618 16.1389 17.3771 15.9968 18.1792C15.8822 18.8263 15.6824 19.3406 15.3001 19.7256C14.9188 20.1106 14.3798 20.3425 13.6538 20.4938C12.7545 20.6808 12.0991 20.4791 11.6765 20.1335C11.2549 19.7898 11.0615 19.3323 10.945 19.0518C10.8653 18.8593 10.824 18.6091 10.7837 18.2745C10.7394 17.8739 10.7098 17.4718 10.6948 17.0691C10.6684 16.3627 10.6598 15.6557 10.6691 14.9488C10.2933 15.2825 9.8258 15.5043 9.32438 15.5878C8.72855 15.6858 8.19505 15.5896 7.87696 15.5126C7.721 15.4742 7.57019 15.4173 7.42779 15.343C7.27929 15.2669 7.13905 15.1808 7.04555 15.0103C6.99046 14.9129 6.97285 14.7988 6.99605 14.6894C7.026 14.5783 7.09252 14.4804 7.18488 14.4117C7.35721 14.276 7.58363 14.2008 7.92555 14.1312C8.54888 14.0074 8.76613 13.9222 8.89813 13.8204C9.01088 13.7333 9.1383 13.5573 9.3638 13.2979C9.3627 13.2866 9.36178 13.2753 9.36105 13.264C8.95893 13.2531 8.5647 13.1499 8.2088 12.9624C8.07955 13.0953 7.41588 13.7764 6.60646 14.7206C6.26638 15.1157 5.89054 15.3421 5.49363 15.3586C5.09671 15.3751 4.73829 15.1808 4.43396 14.8948C3.82438 14.3209 3.33854 13.3337 2.91504 12.2181C2.49338 11.1016 2.14871 9.85859 1.90488 8.79984C1.65921 7.74109 1.51438 6.88767 1.49421 6.47609C1.40254 4.72617 1.82421 3.54734 2.54838 2.80392C3.27254 2.0605 4.26438 1.77909 5.23238 1.725C6.96855 1.62784 8.61763 2.21542 8.9513 2.34192C9.59388 1.91842 10.4216 1.65442 11.4565 1.67092C11.9471 1.67763 12.4353 1.73912 12.9122 1.85425L12.9296 1.84692C13.1395 1.77542 13.3531 1.71492 13.5695 1.66725C14.1584 1.53407 14.7597 1.4634 15.3634 1.45642L15.3643 1.45459ZM15.4954 2.01742H15.3698C14.8738 2.02411 14.3797 2.07814 13.894 2.17875C14.8581 2.5986 15.7052 3.24743 16.3616 4.06892C16.7592 4.56047 17.089 5.10308 17.3425 5.68225C17.4378 5.90409 17.502 6.092 17.5377 6.23684C17.556 6.31017 17.5689 6.37159 17.5725 6.43575C17.5761 6.47637 17.5727 6.51728 17.5625 6.55675L17.557 6.56775C17.5835 7.30384 17.3956 7.8025 17.3727 8.50467C17.3553 9.01434 17.4891 9.61292 17.5221 10.2647C17.5533 10.8788 17.4772 11.5526 17.0665 12.2144C17.1014 12.2548 17.1325 12.2951 17.1655 12.3354C18.2518 10.6763 19.0355 8.83925 19.4526 7.2745C19.6754 6.43117 19.7945 5.66759 19.8046 5.06259C19.8138 4.45759 19.6974 4.0185 19.5489 3.83609C18.3865 2.39417 16.8145 2.0275 15.4954 2.01742ZM11.3475 2.23284C10.3235 2.23467 9.58838 2.53534 9.03196 2.9845C8.45721 3.44925 8.07221 4.0845 7.81921 4.73625C7.5743 5.38757 7.42457 6.07079 7.37463 6.76484L7.38654 6.75842C7.69546 6.58975 8.10155 6.422 8.53605 6.32484C8.97146 6.22767 9.43988 6.19742 9.8643 6.35692C10.2887 6.51734 10.6398 6.89225 10.7672 7.46242C11.3768 10.1996 10.5775 11.2171 10.2823 11.9843C10.1706 12.2625 10.0748 12.5469 9.99538 12.8359C10.033 12.8268 10.0705 12.8176 10.1072 12.8139C10.2682 12.8052 10.4289 12.8367 10.5747 12.9056C10.8717 13.0248 11.0752 13.2741 11.1852 13.5601C11.2136 13.6353 11.2347 13.7159 11.2466 13.7984C11.2595 13.8333 11.265 13.869 11.264 13.9057C11.2311 14.9523 11.2348 15.9998 11.275 17.0462C11.2952 17.499 11.3245 17.8968 11.3621 18.2113C11.3988 18.5248 11.452 18.7631 11.4859 18.8438C11.5959 19.1133 11.7581 19.4653 12.0515 19.7045C12.3448 19.9428 12.7637 20.1023 13.531 19.9428C14.1965 19.8044 14.6071 19.6128 14.8821 19.3351C15.1553 19.0592 15.3194 18.6751 15.4239 18.0857C15.5806 17.2029 15.896 14.6445 15.9335 14.1623C15.917 13.8003 15.972 13.5207 16.0912 13.308C16.215 13.0898 16.4056 12.956 16.5697 12.8836C16.6522 12.8469 16.7292 12.8231 16.7925 12.8057C16.7253 12.7122 16.655 12.6211 16.5816 12.5325C16.3453 12.2547 16.151 11.9437 16.005 11.6094C15.9353 11.4716 15.861 11.3362 15.7823 11.2033C15.6677 11.0017 15.522 10.7496 15.3698 10.4663C15.0645 9.89892 14.7327 9.21142 14.5604 8.54134C14.389 7.87309 14.3633 7.181 14.8033 6.69242C15.1938 6.25884 15.8776 6.07917 16.9052 6.18C16.875 6.092 16.8566 6.01867 16.8053 5.90134C16.5722 5.36939 16.2691 4.87091 15.9042 4.41909C15.0334 3.33925 13.6245 2.26859 11.4465 2.23375L11.3475 2.23284ZM5.59446 2.27592C5.48446 2.27592 5.37446 2.27959 5.26446 2.28509C4.38996 2.33367 3.56313 2.58025 2.97188 3.18892C2.37879 3.79667 1.98921 4.794 2.07354 6.44584C2.09096 6.7575 2.23121 7.63384 2.47138 8.67334C2.71154 9.71467 3.05254 10.9384 3.46138 12.0192C3.87021 13.1008 4.36704 14.0423 4.83821 14.4878C5.07563 14.7105 5.28188 14.8003 5.46888 14.793C5.65679 14.7838 5.88229 14.6793 6.15913 14.3576C6.6633 13.7676 7.18607 13.1938 7.72663 12.637C7.34486 12.3166 7.05087 11.9043 6.8723 11.4389C6.69605 10.9777 6.64236 10.4787 6.71646 9.99059C6.80538 9.36909 6.8173 8.78792 6.80721 8.32959C6.79621 7.88225 6.76321 7.58525 6.76321 7.39917V7.3735C6.76239 6.40472 6.93596 5.4437 7.27563 4.53642C7.51763 3.91125 7.8788 3.276 8.42055 2.76175C7.88888 2.59217 6.94471 2.33367 5.92263 2.28509C5.81272 2.27936 5.70269 2.2763 5.59263 2.27592H5.59446ZM16.3323 6.71442C15.7447 6.72175 15.4147 6.86934 15.2415 7.06184C14.9958 7.335 14.9729 7.8135 15.125 8.40384C15.2763 8.99417 15.5898 9.65509 15.885 10.2033C16.0316 10.4783 16.1746 10.7258 16.2901 10.9256C16.4065 11.1273 16.4918 11.2703 16.5431 11.3931C16.5908 11.5049 16.644 11.6039 16.6971 11.6965C16.9245 11.2299 16.9657 10.7725 16.9419 10.2949C16.9116 9.70459 16.7705 9.1005 16.7915 8.48909C16.8145 7.77409 16.9602 7.3075 16.973 6.75475C16.7605 6.72805 16.5465 6.71458 16.3323 6.71442ZM9.20063 6.81067C9.02108 6.81234 8.84223 6.83324 8.66713 6.873C8.31908 6.95496 7.9832 7.08191 7.66796 7.25067C7.56254 7.30567 7.46079 7.36984 7.36546 7.44225L7.34713 7.45875C7.35263 7.58159 7.37738 7.8795 7.38838 8.31675C7.39755 8.79617 7.38654 9.40759 7.29121 10.0676C7.08404 11.5049 8.15838 12.6948 9.42155 12.6966C9.49488 12.4014 9.6168 12.1026 9.7378 11.7873C10.0898 10.8678 10.7819 10.1978 10.1989 7.58067C10.1035 7.15259 9.91471 6.97934 9.65438 6.88125C9.50846 6.83123 9.35485 6.80733 9.20063 6.81067ZM16.0573 6.98209H16.1013C16.1581 6.98392 16.2113 6.99034 16.2571 7.00042C16.2993 7.00882 16.3397 7.02465 16.3763 7.04717C16.3929 7.05713 16.4072 7.07042 16.4184 7.0862C16.4296 7.10197 16.4374 7.11989 16.4414 7.13884V7.14617C16.4428 7.18635 16.432 7.22601 16.4102 7.25984C16.3845 7.30596 16.3524 7.34824 16.3149 7.38542C16.2262 7.4799 16.109 7.5427 15.9812 7.56417C15.856 7.579 15.7297 7.54807 15.6255 7.47709C15.5834 7.44969 15.5454 7.41635 15.5128 7.37809C15.4848 7.34855 15.4657 7.31168 15.4578 7.27175C15.4559 7.25215 15.4581 7.23237 15.4645 7.21371C15.4708 7.19506 15.481 7.17797 15.4945 7.16359C15.5232 7.13222 15.5578 7.1067 15.5962 7.08842C15.741 7.02068 15.8984 6.98384 16.0582 6.98025L16.0573 6.98209ZM9.28496 7.12325C9.3308 7.12325 9.37938 7.12784 9.42888 7.13425C9.56088 7.15259 9.67913 7.1865 9.76896 7.23692C9.81296 7.25984 9.85146 7.28917 9.88446 7.32584C9.9016 7.34537 9.91469 7.36812 9.92296 7.39275C9.93117 7.41722 9.93399 7.44318 9.93121 7.46884C9.92267 7.51737 9.90003 7.56232 9.86613 7.59809C9.83059 7.64071 9.78888 7.67779 9.74238 7.70809C9.62858 7.78569 9.49043 7.81925 9.35371 7.8025C9.21487 7.7805 9.08722 7.71313 8.99071 7.61092C8.95005 7.57026 8.91548 7.52395 8.88805 7.47342C8.8595 7.42946 8.84688 7.37705 8.8523 7.32492C8.86513 7.23325 8.94305 7.18742 9.0173 7.15992C9.10331 7.13351 9.19327 7.12234 9.28313 7.12692L9.28496 7.12325ZM17.1316 13.2943H17.1289C17.0015 13.3401 16.897 13.3584 16.808 13.3951C16.7196 13.4282 16.6463 13.4924 16.6018 13.5757C16.5468 13.6719 16.501 13.8433 16.5147 14.1348C16.5541 14.161 16.5974 14.1808 16.643 14.1935C16.7906 14.2375 17.039 14.2668 17.3168 14.2623C17.8686 14.2558 18.5488 14.1312 18.91 13.968C19.206 13.8342 19.481 13.66 19.7267 13.451C18.5195 13.693 17.8384 13.6288 17.4195 13.4611C17.3158 13.4195 17.2189 13.3639 17.1316 13.2943ZM10.176 13.3731H10.1576C10.1118 13.3768 10.0449 13.3914 9.91655 13.5308C9.61405 13.8589 9.50955 14.0643 9.26021 14.2568C9.01271 14.4493 8.68913 14.551 8.04379 14.6793C7.83938 14.7197 7.72296 14.7646 7.64413 14.8003C7.66979 14.8205 7.66704 14.826 7.70463 14.8453C7.79904 14.8957 7.92096 14.9397 8.01813 14.9644C8.29588 15.0313 8.75146 15.1102 9.22721 15.0313C9.70205 14.9525 10.197 14.7316 10.6187 14.1578C10.692 14.0588 10.6994 13.9121 10.6398 13.7544C10.5784 13.5986 10.4464 13.4629 10.3529 13.4244C10.2969 13.3986 10.2372 13.3819 10.176 13.3749V13.3731Z"/><defs><linearGradient id="paint0_linear_1411_495" x1="-3.776" x2="22.199" y1=".917" y2="1.109" gradientUnits="userSpaceOnUse"><stop offset=".02" stop-color="#B91DFF"/><stop offset="1" stop-color="#2E3DFF"/></linearGradient></defs></svg>