<svg width="52" height="56" viewBox="0 0 52 56" fill="none" xmlns="http://www.w3.org/2000/svg">
<path d="M1.3794 14.0673C1.13232 10.2683 0.823981 8.21864 0.731083 6.8726C0.661903 5.85863 0.77852 4.76361 2.13642 4.51654C3.3184 4.37027 3.88172 5.40995 3.92718 5.82107C3.92323 5.42576 3.92718 4.47701 3.92718 4.22994C3.92718 3.81486 3.943 2.30081 5.62703 2.30081C6.81494 2.30081 7.2399 3.46105 7.20828 4.00659C7.22804 3.80498 7.25374 3.19027 7.27943 2.60916C7.31501 1.7533 7.77555 0.652359 9.14729 0.678054C10.3293 0.757116 10.7147 1.89166 10.6613 2.60916L10.4281 6.2994C10.4755 5.92978 10.6317 4.98498 10.9776 3.6508C11.3235 2.31662 12.3632 2.22768 12.8692 2.30081C13.5135 2.39173 14.6085 3.01237 14.15 4.81698C13.6064 7.10188 13.2368 10.047 13.1083 11.312C13.7487 11.0491 14.3773 10.4976 15.0888 9.75641C15.7984 9.0152 16.8401 8.99938 17.4271 9.44016C18.0991 10.0173 18.4589 11.3515 17.6643 12.148C16.7491 12.9861 13.4542 16.8997 11.8196 18.8565C11.365 19.4317 9.84897 20.586 7.40198 20.586C3.04761 20.4002 1.58891 17.2733 1.3794 14.0693V14.0673Z" fill="url(#paint0_radial_1074_623)"/>
<path d="M1.3794 14.0673C1.13232 10.2683 0.823981 8.21864 0.731083 6.8726C0.661903 5.85863 0.77852 4.76361 2.13642 4.51654C3.3184 4.37027 3.88172 5.40995 3.92718 5.82107C3.92323 5.42576 3.92718 4.47701 3.92718 4.22994C3.92718 3.81486 3.943 2.30081 5.62703 2.30081C6.81494 2.30081 7.2399 3.46105 7.20828 4.00659C7.22804 3.80498 7.25374 3.19027 7.27943 2.60916C7.31501 1.7533 7.77555 0.652359 9.14729 0.678054C10.3293 0.757116 10.7147 1.89166 10.6613 2.60916L10.4281 6.2994C10.4755 5.92978 10.6317 4.98498 10.9776 3.6508C11.3235 2.31662 12.3632 2.22768 12.8692 2.30081C13.5135 2.39173 14.6085 3.01237 14.15 4.81698C13.6064 7.10188 13.2368 10.047 13.1083 11.312C13.7487 11.0491 14.3773 10.4976 15.0888 9.75641C15.7984 9.0152 16.8401 8.99938 17.4271 9.44016C18.0991 10.0173 18.4589 11.3515 17.6643 12.148C16.7491 12.9861 13.4542 16.8997 11.8196 18.8565C11.365 19.4317 9.84897 20.586 7.40198 20.586C3.04761 20.4002 1.58891 17.2733 1.3794 14.0693V14.0673Z" fill="url(#paint1_radial_1074_623)"/>
<path d="M1.3794 14.0673C1.13232 10.2683 0.823981 8.21864 0.731083 6.8726C0.661903 5.85863 0.77852 4.76361 2.13642 4.51654C3.3184 4.37027 3.88172 5.40995 3.92718 5.82107C3.92323 5.42576 3.92718 4.47701 3.92718 4.22994C3.92718 3.81486 3.943 2.30081 5.62703 2.30081C6.81494 2.30081 7.2399 3.46105 7.20828 4.00659C7.22804 3.80498 7.25374 3.19027 7.27943 2.60916C7.31501 1.7533 7.77555 0.652359 9.14729 0.678054C10.3293 0.757116 10.7147 1.89166 10.6613 2.60916L10.4281 6.2994C10.4755 5.92978 10.6317 4.98498 10.9776 3.6508C11.3235 2.31662 12.3632 2.22768 12.8692 2.30081C13.5135 2.39173 14.6085 3.01237 14.15 4.81698C13.6064 7.10188 13.2368 10.047 13.1083 11.312C13.7487 11.0491 14.3773 10.4976 15.0888 9.75641C15.7984 9.0152 16.8401 8.99938 17.4271 9.44016C18.0991 10.0173 18.4589 11.3515 17.6643 12.148C16.7491 12.9861 13.4542 16.8997 11.8196 18.8565C11.365 19.4317 9.84897 20.586 7.40198 20.586C3.04761 20.4002 1.58891 17.2733 1.3794 14.0693V14.0673Z" fill="url(#paint2_linear_1074_623)"/>
<path d="M1.3794 14.0673C1.13232 10.2683 0.823981 8.21864 0.731083 6.8726C0.661903 5.85863 0.77852 4.76361 2.13642 4.51654C3.3184 4.37027 3.88172 5.40995 3.92718 5.82107C3.92323 5.42576 3.92718 4.47701 3.92718 4.22994C3.92718 3.81486 3.943 2.30081 5.62703 2.30081C6.81494 2.30081 7.2399 3.46105 7.20828 4.00659C7.22804 3.80498 7.25374 3.19027 7.27943 2.60916C7.31501 1.7533 7.77555 0.652359 9.14729 0.678054C10.3293 0.757116 10.7147 1.89166 10.6613 2.60916L10.4281 6.2994C10.4755 5.92978 10.6317 4.98498 10.9776 3.6508C11.3235 2.31662 12.3632 2.22768 12.8692 2.30081C13.5135 2.39173 14.6085 3.01237 14.15 4.81698C13.6064 7.10188 13.2368 10.047 13.1083 11.312C13.7487 11.0491 14.3773 10.4976 15.0888 9.75641C15.7984 9.0152 16.8401 8.99938 17.4271 9.44016C18.0991 10.0173 18.4589 11.3515 17.6643 12.148C16.7491 12.9861 13.4542 16.8997 11.8196 18.8565C11.365 19.4317 9.84897 20.586 7.40198 20.586C3.04761 20.4002 1.58891 17.2733 1.3794 14.0693V14.0673Z" fill="url(#paint3_radial_1074_623)"/>
<path d="M1.3794 14.0673C1.13232 10.2683 0.823981 8.21864 0.731083 6.8726C0.661903 5.85863 0.77852 4.76361 2.13642 4.51654C3.3184 4.37027 3.88172 5.40995 3.92718 5.82107C3.92323 5.42576 3.92718 4.47701 3.92718 4.22994C3.92718 3.81486 3.943 2.30081 5.62703 2.30081C6.81494 2.30081 7.2399 3.46105 7.20828 4.00659C7.22804 3.80498 7.25374 3.19027 7.27943 2.60916C7.31501 1.7533 7.77555 0.652359 9.14729 0.678054C10.3293 0.757116 10.7147 1.89166 10.6613 2.60916L10.4281 6.2994C10.4755 5.92978 10.6317 4.98498 10.9776 3.6508C11.3235 2.31662 12.3632 2.22768 12.8692 2.30081C13.5135 2.39173 14.6085 3.01237 14.15 4.81698C13.6064 7.10188 13.2368 10.047 13.1083 11.312C13.7487 11.0491 14.3773 10.4976 15.0888 9.75641C15.7984 9.0152 16.8401 8.99938 17.4271 9.44016C18.0991 10.0173 18.4589 11.3515 17.6643 12.148C16.7491 12.9861 13.4542 16.8997 11.8196 18.8565C11.365 19.4317 9.84897 20.586 7.40198 20.586C3.04761 20.4002 1.58891 17.2733 1.3794 14.0693V14.0673Z" fill="url(#paint4_radial_1074_623)"/>
<path d="M1.3794 14.0673C1.13232 10.2683 0.823981 8.21864 0.731083 6.8726C0.661903 5.85863 0.77852 4.76361 2.13642 4.51654C3.3184 4.37027 3.88172 5.40995 3.92718 5.82107C3.92323 5.42576 3.92718 4.47701 3.92718 4.22994C3.92718 3.81486 3.943 2.30081 5.62703 2.30081C6.81494 2.30081 7.2399 3.46105 7.20828 4.00659C7.22804 3.80498 7.25374 3.19027 7.27943 2.60916C7.31501 1.7533 7.77555 0.652359 9.14729 0.678054C10.3293 0.757116 10.7147 1.89166 10.6613 2.60916L10.4281 6.2994C10.4755 5.92978 10.6317 4.98498 10.9776 3.6508C11.3235 2.31662 12.3632 2.22768 12.8692 2.30081C13.5135 2.39173 14.6085 3.01237 14.15 4.81698C13.6064 7.10188 13.2368 10.047 13.1083 11.312C13.7487 11.0491 14.3773 10.4976 15.0888 9.75641C15.7984 9.0152 16.8401 8.99938 17.4271 9.44016C18.0991 10.0173 18.4589 11.3515 17.6643 12.148C16.7491 12.9861 13.4542 16.8997 11.8196 18.8565C11.365 19.4317 9.84897 20.586 7.40198 20.586C3.04761 20.4002 1.58891 17.2733 1.3794 14.0693V14.0673Z" fill="url(#paint5_radial_1074_623)"/>
<path d="M1.3794 14.0673C1.13232 10.2683 0.823981 8.21864 0.731083 6.8726C0.661903 5.85863 0.77852 4.76361 2.13642 4.51654C3.3184 4.37027 3.88172 5.40995 3.92718 5.82107C3.92323 5.42576 3.92718 4.47701 3.92718 4.22994C3.92718 3.81486 3.943 2.30081 5.62703 2.30081C6.81494 2.30081 7.2399 3.46105 7.20828 4.00659C7.22804 3.80498 7.25374 3.19027 7.27943 2.60916C7.31501 1.7533 7.77555 0.652359 9.14729 0.678054C10.3293 0.757116 10.7147 1.89166 10.6613 2.60916L10.4281 6.2994C10.4755 5.92978 10.6317 4.98498 10.9776 3.6508C11.3235 2.31662 12.3632 2.22768 12.8692 2.30081C13.5135 2.39173 14.6085 3.01237 14.15 4.81698C13.6064 7.10188 13.2368 10.047 13.1083 11.312C13.7487 11.0491 14.3773 10.4976 15.0888 9.75641C15.7984 9.0152 16.8401 8.99938 17.4271 9.44016C18.0991 10.0173 18.4589 11.3515 17.6643 12.148C16.7491 12.9861 13.4542 16.8997 11.8196 18.8565C11.365 19.4317 9.84897 20.586 7.40198 20.586C3.04761 20.4002 1.58891 17.2733 1.3794 14.0693V14.0673Z" fill="url(#paint6_radial_1074_623)"/>
<path d="M1.3794 14.0673C1.13232 10.2683 0.823981 8.21864 0.731083 6.8726C0.661903 5.85863 0.77852 4.76361 2.13642 4.51654C3.3184 4.37027 3.88172 5.40995 3.92718 5.82107C3.92323 5.42576 3.92718 4.47701 3.92718 4.22994C3.92718 3.81486 3.943 2.30081 5.62703 2.30081C6.81494 2.30081 7.2399 3.46105 7.20828 4.00659C7.22804 3.80498 7.25374 3.19027 7.27943 2.60916C7.31501 1.7533 7.77555 0.652359 9.14729 0.678054C10.3293 0.757116 10.7147 1.89166 10.6613 2.60916L10.4281 6.2994C10.4755 5.92978 10.6317 4.98498 10.9776 3.6508C11.3235 2.31662 12.3632 2.22768 12.8692 2.30081C13.5135 2.39173 14.6085 3.01237 14.15 4.81698C13.6064 7.10188 13.2368 10.047 13.1083 11.312C13.7487 11.0491 14.3773 10.4976 15.0888 9.75641C15.7984 9.0152 16.8401 8.99938 17.4271 9.44016C18.0991 10.0173 18.4589 11.3515 17.6643 12.148C16.7491 12.9861 13.4542 16.8997 11.8196 18.8565C11.365 19.4317 9.84897 20.586 7.40198 20.586C3.04761 20.4002 1.58891 17.2733 1.3794 14.0693V14.0673Z" fill="url(#paint7_radial_1074_623)"/>
<path d="M1.3794 14.0673C1.13232 10.2683 0.823981 8.21864 0.731083 6.8726C0.661903 5.85863 0.77852 4.76361 2.13642 4.51654C3.3184 4.37027 3.88172 5.40995 3.92718 5.82107C3.92323 5.42576 3.92718 4.47701 3.92718 4.22994C3.92718 3.81486 3.943 2.30081 5.62703 2.30081C6.81494 2.30081 7.2399 3.46105 7.20828 4.00659C7.22804 3.80498 7.25374 3.19027 7.27943 2.60916C7.31501 1.7533 7.77555 0.652359 9.14729 0.678054C10.3293 0.757116 10.7147 1.89166 10.6613 2.60916L10.4281 6.2994C10.4755 5.92978 10.6317 4.98498 10.9776 3.6508C11.3235 2.31662 12.3632 2.22768 12.8692 2.30081C13.5135 2.39173 14.6085 3.01237 14.15 4.81698C13.6064 7.10188 13.2368 10.047 13.1083 11.312C13.7487 11.0491 14.3773 10.4976 15.0888 9.75641C15.7984 9.0152 16.8401 8.99938 17.4271 9.44016C18.0991 10.0173 18.4589 11.3515 17.6643 12.148C16.7491 12.9861 13.4542 16.8997 11.8196 18.8565C11.365 19.4317 9.84897 20.586 7.40198 20.586C3.04761 20.4002 1.58891 17.2733 1.3794 14.0693V14.0673Z" fill="url(#paint8_radial_1074_623)"/>
<path d="M1.3794 14.0673C1.13232 10.2683 0.823981 8.21864 0.731083 6.8726C0.661903 5.85863 0.77852 4.76361 2.13642 4.51654C3.3184 4.37027 3.88172 5.40995 3.92718 5.82107C3.92323 5.42576 3.92718 4.47701 3.92718 4.22994C3.92718 3.81486 3.943 2.30081 5.62703 2.30081C6.81494 2.30081 7.2399 3.46105 7.20828 4.00659C7.22804 3.80498 7.25374 3.19027 7.27943 2.60916C7.31501 1.7533 7.77555 0.652359 9.14729 0.678054C10.3293 0.757116 10.7147 1.89166 10.6613 2.60916L10.4281 6.2994C10.4755 5.92978 10.6317 4.98498 10.9776 3.6508C11.3235 2.31662 12.3632 2.22768 12.8692 2.30081C13.5135 2.39173 14.6085 3.01237 14.15 4.81698C13.6064 7.10188 13.2368 10.047 13.1083 11.312C13.7487 11.0491 14.3773 10.4976 15.0888 9.75641C15.7984 9.0152 16.8401 8.99938 17.4271 9.44016C18.0991 10.0173 18.4589 11.3515 17.6643 12.148C16.7491 12.9861 13.4542 16.8997 11.8196 18.8565C11.365 19.4317 9.84897 20.586 7.40198 20.586C3.04761 20.4002 1.58891 17.2733 1.3794 14.0693V14.0673Z" fill="url(#paint9_radial_1074_623)"/>
<path d="M1.3794 14.0673C1.13232 10.2683 0.823981 8.21864 0.731083 6.8726C0.661903 5.85863 0.77852 4.76361 2.13642 4.51654C3.3184 4.37027 3.88172 5.40995 3.92718 5.82107C3.92323 5.42576 3.92718 4.47701 3.92718 4.22994C3.92718 3.81486 3.943 2.30081 5.62703 2.30081C6.81494 2.30081 7.2399 3.46105 7.20828 4.00659C7.22804 3.80498 7.25374 3.19027 7.27943 2.60916C7.31501 1.7533 7.77555 0.652359 9.14729 0.678054C10.3293 0.757116 10.7147 1.89166 10.6613 2.60916L10.4281 6.2994C10.4755 5.92978 10.6317 4.98498 10.9776 3.6508C11.3235 2.31662 12.3632 2.22768 12.8692 2.30081C13.5135 2.39173 14.6085 3.01237 14.15 4.81698C13.6064 7.10188 13.2368 10.047 13.1083 11.312C13.7487 11.0491 14.3773 10.4976 15.0888 9.75641C15.7984 9.0152 16.8401 8.99938 17.4271 9.44016C18.0991 10.0173 18.4589 11.3515 17.6643 12.148C16.7491 12.9861 13.4542 16.8997 11.8196 18.8565C11.365 19.4317 9.84897 20.586 7.40198 20.586C3.04761 20.4002 1.58891 17.2733 1.3794 14.0693V14.0673Z" fill="url(#paint10_radial_1074_623)"/>
<path d="M3.49414 19.8566C3.49414 19.6392 3.67203 19.4613 3.88945 19.4613H11.4221C11.6396 19.4613 11.8174 19.6392 11.8174 19.8566V23.2444H3.49612V19.8566H3.49414Z" fill="url(#paint11_linear_1074_623)"/>
<path d="M3.49414 19.8566C3.49414 19.6392 3.67203 19.4613 3.88945 19.4613H11.4221C11.6396 19.4613 11.8174 19.6392 11.8174 19.8566V23.2444H3.49612V19.8566H3.49414Z" fill="url(#paint12_linear_1074_623)"/>
<path d="M34.4811 37.2959H36.4043C41.3457 37.2959 51.2285 44.2139 51.2285 55.085H15.6504V48.167C15.6524 47.9025 15.5751 47.6435 15.4286 47.4233C15.282 47.2032 15.0729 47.0319 14.8281 46.9316L8.73242 44.2139C3.79102 42.2373 1.81445 37.2959 1.81445 33.9417V23.4876C1.81445 22.3729 2.65449 21.4834 3.66452 21.4834H11.8257C12.8536 21.4834 13.6738 22.3926 13.6738 23.4876V31.3642C13.6738 33.9397 15.6504 34.3291 15.6504 34.3291L27.5098 37.2939H34.4811V37.2959Z" fill="#FF611D"/>
<path d="M34.4811 37.2959H36.4043C41.3457 37.2959 51.2285 44.2139 51.2285 55.085H15.6504V48.167C15.6524 47.9025 15.5751 47.6435 15.4286 47.4233C15.282 47.2032 15.0729 47.0319 14.8281 46.9316L8.73242 44.2139C3.79102 42.2373 1.81445 37.2959 1.81445 33.9417V23.4876C1.81445 22.3729 2.65449 21.4834 3.66452 21.4834H11.8257C12.8536 21.4834 13.6738 22.3926 13.6738 23.4876V31.3642C13.6738 33.9397 15.6504 34.3291 15.6504 34.3291L27.5098 37.2939H34.4811V37.2959Z" fill="url(#paint13_radial_1074_623)"/>
<path d="M34.4811 37.2959H36.4043C41.3457 37.2959 51.2285 44.2139 51.2285 55.085H15.6504V48.167C15.6524 47.9025 15.5751 47.6435 15.4286 47.4233C15.282 47.2032 15.0729 47.0319 14.8281 46.9316L8.73242 44.2139C3.79102 42.2373 1.81445 37.2959 1.81445 33.9417V23.4876C1.81445 22.3729 2.65449 21.4834 3.66452 21.4834H11.8257C12.8536 21.4834 13.6738 22.3926 13.6738 23.4876V31.3642C13.6738 33.9397 15.6504 34.3291 15.6504 34.3291L27.5098 37.2939H34.4811V37.2959Z" fill="url(#paint14_radial_1074_623)"/>
<path d="M31.1842 37.5133L15.6188 47.8804C15.5756 47.6693 15.4808 47.4721 15.3428 47.3065C15.2049 47.141 15.028 47.0122 14.8281 46.9316L8.73242 44.2139C3.79102 42.2373 1.81445 37.2959 1.81445 33.9417V23.4876C1.81445 22.3729 2.65449 21.4834 3.66452 21.4834H11.8257C12.8536 21.4834 13.6738 22.3926 13.6738 23.4876V31.3642C13.6738 33.9397 15.6504 34.3291 15.6504 34.3291L27.5098 37.2939L31.1822 37.5113L31.1842 37.5133Z" fill="url(#paint15_linear_1074_623)"/>
<path d="M31.1842 37.5133L15.6188 47.8804C15.5756 47.6693 15.4808 47.4721 15.3428 47.3065C15.2049 47.141 15.028 47.0122 14.8281 46.9316L8.73242 44.2139C3.79102 42.2373 1.81445 37.2959 1.81445 33.9417V23.4876C1.81445 22.3729 2.65449 21.4834 3.66452 21.4834H11.8257C12.8536 21.4834 13.6738 22.3926 13.6738 23.4876V31.3642C13.6738 33.9397 15.6504 34.3291 15.6504 34.3291L27.5098 37.2939L31.1822 37.5113L31.1842 37.5133Z" fill="url(#paint16_radial_1074_623)"/>
<path d="M31.1842 37.5133L15.6188 47.8804C15.5756 47.6693 15.4808 47.4721 15.3428 47.3065C15.2049 47.141 15.028 47.0122 14.8281 46.9316L8.73242 44.2139C3.79102 42.2373 1.81445 37.2959 1.81445 33.9417V23.4876C1.81445 22.3729 2.65449 21.4834 3.66452 21.4834H11.8257C12.8536 21.4834 13.6738 22.3926 13.6738 23.4876V31.3642C13.6738 33.9397 15.6504 34.3291 15.6504 34.3291L27.5098 37.2939L31.1822 37.5113L31.1842 37.5133Z" fill="url(#paint17_radial_1074_623)"/>
<path d="M31.1842 37.5133L15.6188 47.8804C15.5756 47.6693 15.4808 47.4721 15.3428 47.3065C15.2049 47.141 15.028 47.0122 14.8281 46.9316L8.73242 44.2139C3.79102 42.2373 1.81445 37.2959 1.81445 33.9417V23.4876C1.81445 22.3729 2.65449 21.4834 3.66452 21.4834H11.8257C12.8536 21.4834 13.6738 22.3926 13.6738 23.4876V31.3642C13.6738 33.9397 15.6504 34.3291 15.6504 34.3291L27.5098 37.2939L31.1822 37.5113L31.1842 37.5133Z" fill="url(#paint18_radial_1074_623)"/>
<path d="M31.1842 37.5133L15.6188 47.8804C15.5756 47.6693 15.4808 47.4721 15.3428 47.3065C15.2049 47.141 15.028 47.0122 14.8281 46.9316L8.73242 44.2139C3.79102 42.2373 1.81445 37.2959 1.81445 33.9417V23.4876C1.81445 22.3729 2.65449 21.4834 3.66452 21.4834H11.8257C12.8536 21.4834 13.6738 22.3926 13.6738 23.4876V31.3642C13.6738 33.9397 15.6504 34.3291 15.6504 34.3291L27.5098 37.2939L31.1822 37.5113L31.1842 37.5133Z" fill="url(#paint19_linear_1074_623)"/>
<path d="M32.4513 43.2256C29.945 43.2256 27.9131 41.2787 27.9131 38.8772V33.7381C27.9131 31.3385 29.945 29.3896 32.4513 29.3896C34.9576 29.3896 36.9895 31.3385 36.9895 33.7381V38.8772C36.9895 41.2787 34.9576 43.2256 32.4513 43.2256Z" fill="url(#paint20_linear_1074_623)"/>
<path d="M32.4513 43.2256C29.945 43.2256 27.9131 41.2787 27.9131 38.8772V33.7381C27.9131 31.3385 29.945 29.3896 32.4513 29.3896C34.9576 29.3896 36.9895 31.3385 36.9895 33.7381V38.8772C36.9895 41.2787 34.9576 43.2256 32.4513 43.2256Z" fill="url(#paint21_radial_1074_623)"/>
<g filter="url(#filter0_f_1074_623)">
<path d="M9.41016 22.782V34.675C9.41035 35.5089 9.67429 36.3215 10.1642 36.9963C10.6541 37.6712 11.3449 38.1739 12.1378 38.4324L20.4038 41.1265" stroke="url(#paint22_linear_1074_623)"/>
</g>
<g filter="url(#filter1_f_1074_623)">
<path d="M3.94336 6.13342L4.23589 9.97981" stroke="url(#paint23_linear_1074_623)" stroke-width="0.075" stroke-linecap="round"/>
</g>
<g filter="url(#filter2_f_1074_623)">
<path d="M7.15496 5.2854L7.0166 9.82556" stroke="url(#paint24_linear_1074_623)" stroke-width="0.075" stroke-linecap="round"/>
</g>
<g filter="url(#filter3_f_1074_623)">
<path d="M10.3981 6.47534L9.93359 9.25439" stroke="url(#paint25_linear_1074_623)" stroke-width="0.075" stroke-linecap="round"/>
</g>
<path d="M43.8178 26.7786C44.5787 26.7534 45.315 26.5022 45.9327 26.0571V28.2353C45.9381 29.2445 45.6428 30.2324 45.0845 31.073C44.5262 31.9137 43.7301 32.569 42.7979 32.9553C43.1951 32.1054 43.4699 31.1824 43.6063 30.1961L43.8178 26.7786Z" fill="url(#paint26_radial_1074_623)"/>
<path d="M21.0837 26.7786C20.3228 26.7534 19.5865 26.5022 18.9688 26.0571V28.2353C18.9636 29.2447 19.2591 30.2327 19.8178 31.0734C20.3765 31.9141 21.173 32.5693 22.1056 32.9553C21.6979 32.0817 21.4247 31.1514 21.2952 30.1961L21.0857 26.7786H21.0837Z" fill="url(#paint27_radial_1074_623)"/>
<g filter="url(#filter4_ii_1074_623)">
<path d="M21.1687 30.3206C21.4577 32.5253 22.5391 34.5495 24.2111 36.0152C25.8831 37.481 28.0314 38.2882 30.255 38.2862H34.6666C36.8898 38.2877 39.0376 37.4803 40.7092 36.0146C42.3808 34.5488 43.462 32.525 43.7509 30.3206C44.0276 25.9168 44.3044 21.5308 44.5099 17.129C44.5004 16.2652 44.1614 15.4377 43.5623 14.8154C42.9631 14.1931 42.149 13.823 41.2861 13.7807H38.011C36.9151 13.779 35.8432 13.4593 34.9254 12.8604C34.0076 12.2615 33.2833 11.4092 32.8403 10.4067C32.7255 10.1187 32.5271 9.87155 32.2707 9.69719C32.0142 9.52282 31.7115 9.42919 31.4014 9.42834H28.4247C24.1098 9.42834 20.6133 12.9664 20.6133 17.3287C20.6133 21.6791 20.8841 25.9603 21.1687 30.3206Z" fill="url(#paint28_radial_1074_623)"/>
</g>
<path d="M21.1687 30.3206C21.4577 32.5253 22.5391 34.5495 24.2111 36.0152C25.8831 37.481 28.0314 38.2882 30.255 38.2862H34.6666C36.8898 38.2877 39.0376 37.4803 40.7092 36.0146C42.3808 34.5488 43.462 32.525 43.7509 30.3206C44.0276 25.9168 44.3044 21.5308 44.5099 17.129C44.5004 16.2652 44.1614 15.4377 43.5623 14.8154C42.9631 14.1931 42.149 13.823 41.2861 13.7807H38.011C36.9151 13.779 35.8432 13.4593 34.9254 12.8604C34.0076 12.2615 33.2833 11.4092 32.8403 10.4067C32.7255 10.1187 32.5271 9.87155 32.2707 9.69719C32.0142 9.52282 31.7115 9.42919 31.4014 9.42834H28.4247C24.1098 9.42834 20.6133 12.9664 20.6133 17.3287C20.6133 21.6791 20.8841 25.9603 21.1687 30.3206Z" fill="url(#paint29_linear_1074_623)"/>
<path d="M21.1687 30.3206C21.4577 32.5253 22.5391 34.5495 24.2111 36.0152C25.8831 37.481 28.0314 38.2882 30.255 38.2862H34.6666C36.8898 38.2877 39.0376 37.4803 40.7092 36.0146C42.3808 34.5488 43.462 32.525 43.7509 30.3206C44.0276 25.9168 44.3044 21.5308 44.5099 17.129C44.5004 16.2652 44.1614 15.4377 43.5623 14.8154C42.9631 14.1931 42.149 13.823 41.2861 13.7807H38.011C36.9151 13.779 35.8432 13.4593 34.9254 12.8604C34.0076 12.2615 33.2833 11.4092 32.8403 10.4067C32.7255 10.1187 32.5271 9.87155 32.2707 9.69719C32.0142 9.52282 31.7115 9.42919 31.4014 9.42834H28.4247C24.1098 9.42834 20.6133 12.9664 20.6133 17.3287C20.6133 21.6791 20.8841 25.9603 21.1687 30.3206Z" fill="url(#paint30_radial_1074_623)"/>
<path d="M21.1687 30.3206C21.4577 32.5253 22.5391 34.5495 24.2111 36.0152C25.8831 37.481 28.0314 38.2882 30.255 38.2862H34.6666C36.8898 38.2877 39.0376 37.4803 40.7092 36.0146C42.3808 34.5488 43.462 32.525 43.7509 30.3206C44.0276 25.9168 44.3044 21.5308 44.5099 17.129C44.5004 16.2652 44.1614 15.4377 43.5623 14.8154C42.9631 14.1931 42.149 13.823 41.2861 13.7807H38.011C36.9151 13.779 35.8432 13.4593 34.9254 12.8604C34.0076 12.2615 33.2833 11.4092 32.8403 10.4067C32.7255 10.1187 32.5271 9.87155 32.2707 9.69719C32.0142 9.52282 31.7115 9.42919 31.4014 9.42834H28.4247C24.1098 9.42834 20.6133 12.9664 20.6133 17.3287C20.6133 21.6791 20.8841 25.9603 21.1687 30.3206Z" fill="url(#paint31_radial_1074_623)"/>
<path d="M21.1687 30.3206C21.4577 32.5253 22.5391 34.5495 24.2111 36.0152C25.8831 37.481 28.0314 38.2882 30.255 38.2862H34.6666C36.8898 38.2877 39.0376 37.4803 40.7092 36.0146C42.3808 34.5488 43.462 32.525 43.7509 30.3206C44.0276 25.9168 44.3044 21.5308 44.5099 17.129C44.5004 16.2652 44.1614 15.4377 43.5623 14.8154C42.9631 14.1931 42.149 13.823 41.2861 13.7807H38.011C36.9151 13.779 35.8432 13.4593 34.9254 12.8604C34.0076 12.2615 33.2833 11.4092 32.8403 10.4067C32.7255 10.1187 32.5271 9.87155 32.2707 9.69719C32.0142 9.52282 31.7115 9.42919 31.4014 9.42834H28.4247C24.1098 9.42834 20.6133 12.9664 20.6133 17.3287C20.6133 21.6791 20.8841 25.9603 21.1687 30.3206Z" fill="url(#paint32_radial_1074_623)"/>
<path d="M21.1687 30.3206C21.4577 32.5253 22.5391 34.5495 24.2111 36.0152C25.8831 37.481 28.0314 38.2882 30.255 38.2862H34.6666C36.8898 38.2877 39.0376 37.4803 40.7092 36.0146C42.3808 34.5488 43.462 32.525 43.7509 30.3206C44.0276 25.9168 44.3044 21.5308 44.5099 17.129C44.5004 16.2652 44.1614 15.4377 43.5623 14.8154C42.9631 14.1931 42.149 13.823 41.2861 13.7807H38.011C36.9151 13.779 35.8432 13.4593 34.9254 12.8604C34.0076 12.2615 33.2833 11.4092 32.8403 10.4067C32.7255 10.1187 32.5271 9.87155 32.2707 9.69719C32.0142 9.52282 31.7115 9.42919 31.4014 9.42834H28.4247C24.1098 9.42834 20.6133 12.9664 20.6133 17.3287C20.6133 21.6791 20.8841 25.9603 21.1687 30.3206Z" fill="url(#paint33_radial_1074_623)"/>
<path d="M21.1687 30.3206C21.4577 32.5253 22.5391 34.5495 24.2111 36.0152C25.8831 37.481 28.0314 38.2882 30.255 38.2862H34.6666C36.8898 38.2877 39.0376 37.4803 40.7092 36.0146C42.3808 34.5488 43.462 32.525 43.7509 30.3206C44.0276 25.9168 44.3044 21.5308 44.5099 17.129C44.5004 16.2652 44.1614 15.4377 43.5623 14.8154C42.9631 14.1931 42.149 13.823 41.2861 13.7807H38.011C36.9151 13.779 35.8432 13.4593 34.9254 12.8604C34.0076 12.2615 33.2833 11.4092 32.8403 10.4067C32.7255 10.1187 32.5271 9.87155 32.2707 9.69719C32.0142 9.52282 31.7115 9.42919 31.4014 9.42834H28.4247C24.1098 9.42834 20.6133 12.9664 20.6133 17.3287C20.6133 21.6791 20.8841 25.9603 21.1687 30.3206Z" fill="url(#paint34_radial_1074_623)"/>
<path d="M21.1687 30.3206C21.4577 32.5253 22.5391 34.5495 24.2111 36.0152C25.8831 37.481 28.0314 38.2882 30.255 38.2862H34.6666C36.8898 38.2877 39.0376 37.4803 40.7092 36.0146C42.3808 34.5488 43.462 32.525 43.7509 30.3206C44.0276 25.9168 44.3044 21.5308 44.5099 17.129C44.5004 16.2652 44.1614 15.4377 43.5623 14.8154C42.9631 14.1931 42.149 13.823 41.2861 13.7807H38.011C36.9151 13.779 35.8432 13.4593 34.9254 12.8604C34.0076 12.2615 33.2833 11.4092 32.8403 10.4067C32.7255 10.1187 32.5271 9.87155 32.2707 9.69719C32.0142 9.52282 31.7115 9.42919 31.4014 9.42834H28.4247C24.1098 9.42834 20.6133 12.9664 20.6133 17.3287C20.6133 21.6791 20.8841 25.9603 21.1687 30.3206Z" fill="url(#paint35_radial_1074_623)"/>
<path d="M21.1687 30.3206C21.4577 32.5253 22.5391 34.5495 24.2111 36.0152C25.8831 37.481 28.0314 38.2882 30.255 38.2862H34.6666C36.8898 38.2877 39.0376 37.4803 40.7092 36.0146C42.3808 34.5488 43.462 32.525 43.7509 30.3206C44.0276 25.9168 44.3044 21.5308 44.5099 17.129C44.5004 16.2652 44.1614 15.4377 43.5623 14.8154C42.9631 14.1931 42.149 13.823 41.2861 13.7807H38.011C36.9151 13.779 35.8432 13.4593 34.9254 12.8604C34.0076 12.2615 33.2833 11.4092 32.8403 10.4067C32.7255 10.1187 32.5271 9.87155 32.2707 9.69719C32.0142 9.52282 31.7115 9.42919 31.4014 9.42834H28.4247C24.1098 9.42834 20.6133 12.9664 20.6133 17.3287C20.6133 21.6791 20.8841 25.9603 21.1687 30.3206Z" fill="url(#paint36_radial_1074_623)"/>
<path d="M21.1687 30.3206C21.4577 32.5253 22.5391 34.5495 24.2111 36.0152C25.8831 37.481 28.0314 38.2882 30.255 38.2862H34.6666C36.8898 38.2877 39.0376 37.4803 40.7092 36.0146C42.3808 34.5488 43.462 32.525 43.7509 30.3206C44.0276 25.9168 44.3044 21.5308 44.5099 17.129C44.5004 16.2652 44.1614 15.4377 43.5623 14.8154C42.9631 14.1931 42.149 13.823 41.2861 13.7807H38.011C36.9151 13.779 35.8432 13.4593 34.9254 12.8604C34.0076 12.2615 33.2833 11.4092 32.8403 10.4067C32.7255 10.1187 32.5271 9.87155 32.2707 9.69719C32.0142 9.52282 31.7115 9.42919 31.4014 9.42834H28.4247C24.1098 9.42834 20.6133 12.9664 20.6133 17.3287C20.6133 21.6791 20.8841 25.9603 21.1687 30.3206Z" fill="url(#paint37_linear_1074_623)"/>
<g filter="url(#filter5_f_1074_623)">
<path d="M31.5124 22.6436L30.1308 26.9426C29.8956 27.8262 30.4629 28.7097 31.2653 28.7097H32.9751C33.7776 28.7097 34.3429 27.8123 34.1076 26.9426L32.9514 22.6436C32.7043 21.6909 31.7733 21.6909 31.5124 22.6436Z" fill="#331E24"/>
</g>
<g filter="url(#filter6_f_1074_623)">
<path d="M31.5599 22.185L30.3146 26.484C30.0616 27.3675 30.6704 28.253 31.5322 28.253H33.3704C34.2342 28.253 34.8429 27.3537 34.588 26.484L33.3467 22.185C33.0798 21.2323 31.8366 21.2323 31.5579 22.185H31.5599Z" fill="#402929"/>
<path d="M31.5599 22.185L30.3146 26.484C30.0616 27.3675 30.6704 28.253 31.5322 28.253H33.3704C34.2342 28.253 34.8429 27.3537 34.588 26.484L33.3467 22.185C33.0798 21.2323 31.8366 21.2323 31.5579 22.185H31.5599Z" fill="url(#paint38_linear_1074_623)"/>
<path d="M31.5599 22.185L30.3146 26.484C30.0616 27.3675 30.6704 28.253 31.5322 28.253H33.3704C34.2342 28.253 34.8429 27.3537 34.588 26.484L33.3467 22.185C33.0798 21.2323 31.8366 21.2323 31.5579 22.185H31.5599Z" fill="url(#paint39_radial_1074_623)"/>
<path d="M31.5599 22.185L30.3146 26.484C30.0616 27.3675 30.6704 28.253 31.5322 28.253H33.3704C34.2342 28.253 34.8429 27.3537 34.588 26.484L33.3467 22.185C33.0798 21.2323 31.8366 21.2323 31.5579 22.185H31.5599Z" fill="url(#paint40_linear_1074_623)"/>
<path d="M31.5599 22.185L30.3146 26.484C30.0616 27.3675 30.6704 28.253 31.5322 28.253H33.3704C34.2342 28.253 34.8429 27.3537 34.588 26.484L33.3467 22.185C33.0798 21.2323 31.8366 21.2323 31.5579 22.185H31.5599Z" fill="url(#paint41_radial_1074_623)"/>
<path d="M31.5599 22.185L30.3146 26.484C30.0616 27.3675 30.6704 28.253 31.5322 28.253H33.3704C34.2342 28.253 34.8429 27.3537 34.588 26.484L33.3467 22.185C33.0798 21.2323 31.8366 21.2323 31.5579 22.185H31.5599Z" fill="url(#paint42_linear_1074_623)"/>
</g>
<g filter="url(#filter7_f_1074_623)">
<path d="M29.2808 29.7296C30.2619 30.2309 31.3494 30.4886 32.4512 30.4806C33.6273 30.4806 34.7065 30.2079 35.6216 29.7296H35.6236C35.7209 29.6786 35.8322 29.6606 35.9406 29.6785C36.049 29.6963 36.1486 29.7489 36.2245 29.8284C36.3022 29.9069 36.35 30.0101 36.3598 30.1202C36.3695 30.2303 36.3406 30.3403 36.2779 30.4312L36.1533 30.3502C35.3706 31.5361 34.0068 32.3268 32.4512 32.3268C31.7188 32.3292 30.9972 32.1499 30.3511 31.805C29.705 31.46 29.1546 30.9602 28.7491 30.3502L29.2808 29.7296V29.7296ZM29.2808 29.7296C29.1829 29.6786 29.071 29.661 28.9621 29.6796C28.8533 29.6981 28.7535 29.7518 28.678 29.8323C28.6 29.9104 28.5521 30.0135 28.5427 30.1234C28.5333 30.2333 28.563 30.343 28.6266 30.4332L29.2808 29.7296V29.7296Z" stroke="url(#paint43_linear_1074_623)" stroke-width="0.15"/>
</g>
<path d="M32.4507 30.6289C31.2648 30.6289 30.15 30.3502 29.2111 29.862C28.8909 29.6979 28.547 30.0596 28.7486 30.3502C29.5313 31.5361 30.8971 32.3268 32.4507 32.3268C34.0063 32.3268 35.3701 31.5361 36.1528 30.3502C36.3544 30.0478 36.0105 29.6979 35.6903 29.862C34.688 30.3748 33.5766 30.6379 32.4507 30.6289Z" fill="url(#paint44_radial_1074_623)"/>
<g filter="url(#filter8_ii_1074_623)">
<path d="M43.8021 8.32341C45.0574 8.75365 46.1119 9.62822 46.767 10.7823C47.858 12.6995 47.6959 14.9963 46.5179 16.6902C46.1088 17.2911 45.8854 18.0066 45.8854 18.734V21.511C45.4147 21.1962 44.8836 20.9828 44.3259 20.8845L44.5097 17.129C44.5002 16.2652 44.1612 15.4376 43.5621 14.8153C42.9629 14.193 42.1488 13.823 41.286 13.7807H38.0108C36.9149 13.7787 35.8432 13.4589 34.9254 12.86C34.0076 12.2612 33.2833 11.409 32.8401 10.4067C32.7253 10.1186 32.5269 9.87152 32.2705 9.69716C32.014 9.52279 31.7113 9.42916 31.4012 9.42831H28.4245C24.1096 9.42831 20.6131 12.9664 20.6131 17.3286L20.6842 20.924C20.0913 21.011 19.4706 21.2086 19.0002 21.5407V18.734C19.0002 18.0066 18.7769 17.2911 18.3677 16.6902C17.8007 15.8558 17.4701 14.8835 17.411 13.8764C17.3518 12.8694 17.5663 11.8651 18.0317 10.97C18.6748 9.73896 19.7613 8.79797 21.0716 8.33725C22.4133 7.86292 23.5536 6.94632 24.3053 5.73807C24.9911 4.6333 26.0502 3.8109 27.2904 3.41998C28.5305 3.02907 29.8698 3.09554 31.0651 3.60733C31.9566 3.99474 32.9626 3.99474 33.8541 3.60733C34.5292 3.32001 35.255 3.17081 35.9888 3.16854C37.9594 3.16854 39.6849 4.23588 40.6376 5.81515C41.3571 7.00504 42.4857 7.87078 43.8001 8.32144L43.8021 8.32341Z" fill="url(#paint45_linear_1074_623)"/>
<path d="M43.8021 8.32341C45.0574 8.75365 46.1119 9.62822 46.767 10.7823C47.858 12.6995 47.6959 14.9963 46.5179 16.6902C46.1088 17.2911 45.8854 18.0066 45.8854 18.734V21.511C45.4147 21.1962 44.8836 20.9828 44.3259 20.8845L44.5097 17.129C44.5002 16.2652 44.1612 15.4376 43.5621 14.8153C42.9629 14.193 42.1488 13.823 41.286 13.7807H38.0108C36.9149 13.7787 35.8432 13.4589 34.9254 12.86C34.0076 12.2612 33.2833 11.409 32.8401 10.4067C32.7253 10.1186 32.5269 9.87152 32.2705 9.69716C32.014 9.52279 31.7113 9.42916 31.4012 9.42831H28.4245C24.1096 9.42831 20.6131 12.9664 20.6131 17.3286L20.6842 20.924C20.0913 21.011 19.4706 21.2086 19.0002 21.5407V18.734C19.0002 18.0066 18.7769 17.2911 18.3677 16.6902C17.8007 15.8558 17.4701 14.8835 17.411 13.8764C17.3518 12.8694 17.5663 11.8651 18.0317 10.97C18.6748 9.73896 19.7613 8.79797 21.0716 8.33725C22.4133 7.86292 23.5536 6.94632 24.3053 5.73807C24.9911 4.6333 26.0502 3.8109 27.2904 3.41998C28.5305 3.02907 29.8698 3.09554 31.0651 3.60733C31.9566 3.99474 32.9626 3.99474 33.8541 3.60733C34.5292 3.32001 35.255 3.17081 35.9888 3.16854C37.9594 3.16854 39.6849 4.23588 40.6376 5.81515C41.3571 7.00504 42.4857 7.87078 43.8001 8.32144L43.8021 8.32341Z" fill="url(#paint46_radial_1074_623)"/>
<path d="M43.8021 8.32341C45.0574 8.75365 46.1119 9.62822 46.767 10.7823C47.858 12.6995 47.6959 14.9963 46.5179 16.6902C46.1088 17.2911 45.8854 18.0066 45.8854 18.734V21.511C45.4147 21.1962 44.8836 20.9828 44.3259 20.8845L44.5097 17.129C44.5002 16.2652 44.1612 15.4376 43.5621 14.8153C42.9629 14.193 42.1488 13.823 41.286 13.7807H38.0108C36.9149 13.7787 35.8432 13.4589 34.9254 12.86C34.0076 12.2612 33.2833 11.409 32.8401 10.4067C32.7253 10.1186 32.5269 9.87152 32.2705 9.69716C32.014 9.52279 31.7113 9.42916 31.4012 9.42831H28.4245C24.1096 9.42831 20.6131 12.9664 20.6131 17.3286L20.6842 20.924C20.0913 21.011 19.4706 21.2086 19.0002 21.5407V18.734C19.0002 18.0066 18.7769 17.2911 18.3677 16.6902C17.8007 15.8558 17.4701 14.8835 17.411 13.8764C17.3518 12.8694 17.5663 11.8651 18.0317 10.97C18.6748 9.73896 19.7613 8.79797 21.0716 8.33725C22.4133 7.86292 23.5536 6.94632 24.3053 5.73807C24.9911 4.6333 26.0502 3.8109 27.2904 3.41998C28.5305 3.02907 29.8698 3.09554 31.0651 3.60733C31.9566 3.99474 32.9626 3.99474 33.8541 3.60733C34.5292 3.32001 35.255 3.17081 35.9888 3.16854C37.9594 3.16854 39.6849 4.23588 40.6376 5.81515C41.3571 7.00504 42.4857 7.87078 43.8001 8.32144L43.8021 8.32341Z" fill="url(#paint47_radial_1074_623)"/>
<path d="M43.8021 8.32341C45.0574 8.75365 46.1119 9.62822 46.767 10.7823C47.858 12.6995 47.6959 14.9963 46.5179 16.6902C46.1088 17.2911 45.8854 18.0066 45.8854 18.734V21.511C45.4147 21.1962 44.8836 20.9828 44.3259 20.8845L44.5097 17.129C44.5002 16.2652 44.1612 15.4376 43.5621 14.8153C42.9629 14.193 42.1488 13.823 41.286 13.7807H38.0108C36.9149 13.7787 35.8432 13.4589 34.9254 12.86C34.0076 12.2612 33.2833 11.409 32.8401 10.4067C32.7253 10.1186 32.5269 9.87152 32.2705 9.69716C32.014 9.52279 31.7113 9.42916 31.4012 9.42831H28.4245C24.1096 9.42831 20.6131 12.9664 20.6131 17.3286L20.6842 20.924C20.0913 21.011 19.4706 21.2086 19.0002 21.5407V18.734C19.0002 18.0066 18.7769 17.2911 18.3677 16.6902C17.8007 15.8558 17.4701 14.8835 17.411 13.8764C17.3518 12.8694 17.5663 11.8651 18.0317 10.97C18.6748 9.73896 19.7613 8.79797 21.0716 8.33725C22.4133 7.86292 23.5536 6.94632 24.3053 5.73807C24.9911 4.6333 26.0502 3.8109 27.2904 3.41998C28.5305 3.02907 29.8698 3.09554 31.0651 3.60733C31.9566 3.99474 32.9626 3.99474 33.8541 3.60733C34.5292 3.32001 35.255 3.17081 35.9888 3.16854C37.9594 3.16854 39.6849 4.23588 40.6376 5.81515C41.3571 7.00504 42.4857 7.87078 43.8001 8.32144L43.8021 8.32341Z" fill="url(#paint48_radial_1074_623)"/>
<path d="M43.8021 8.32341C45.0574 8.75365 46.1119 9.62822 46.767 10.7823C47.858 12.6995 47.6959 14.9963 46.5179 16.6902C46.1088 17.2911 45.8854 18.0066 45.8854 18.734V21.511C45.4147 21.1962 44.8836 20.9828 44.3259 20.8845L44.5097 17.129C44.5002 16.2652 44.1612 15.4376 43.5621 14.8153C42.9629 14.193 42.1488 13.823 41.286 13.7807H38.0108C36.9149 13.7787 35.8432 13.4589 34.9254 12.86C34.0076 12.2612 33.2833 11.409 32.8401 10.4067C32.7253 10.1186 32.5269 9.87152 32.2705 9.69716C32.014 9.52279 31.7113 9.42916 31.4012 9.42831H28.4245C24.1096 9.42831 20.6131 12.9664 20.6131 17.3286L20.6842 20.924C20.0913 21.011 19.4706 21.2086 19.0002 21.5407V18.734C19.0002 18.0066 18.7769 17.2911 18.3677 16.6902C17.8007 15.8558 17.4701 14.8835 17.411 13.8764C17.3518 12.8694 17.5663 11.8651 18.0317 10.97C18.6748 9.73896 19.7613 8.79797 21.0716 8.33725C22.4133 7.86292 23.5536 6.94632 24.3053 5.73807C24.9911 4.6333 26.0502 3.8109 27.2904 3.41998C28.5305 3.02907 29.8698 3.09554 31.0651 3.60733C31.9566 3.99474 32.9626 3.99474 33.8541 3.60733C34.5292 3.32001 35.255 3.17081 35.9888 3.16854C37.9594 3.16854 39.6849 4.23588 40.6376 5.81515C41.3571 7.00504 42.4857 7.87078 43.8001 8.32144L43.8021 8.32341Z" fill="url(#paint49_radial_1074_623)"/>
</g>
<g filter="url(#filter9_i_1074_623)">
<path d="M41.1792 16.8898C40.7701 16.534 40.2937 16.1545 39.5723 15.9272C38.8607 15.7039 37.9712 15.6426 36.7379 15.7948C36.6522 15.8038 36.5693 15.8298 36.4938 15.8712C36.4183 15.9126 36.3518 15.9686 36.2982 16.036C36.2446 16.1034 36.2049 16.1808 36.1816 16.2636C36.1582 16.3465 36.1516 16.4332 36.1621 16.5187C36.1726 16.6041 36.2 16.6866 36.2427 16.7614C36.2855 16.8361 36.3427 16.9016 36.411 16.954C36.4793 17.0064 36.5574 17.0447 36.6407 17.0666C36.7239 17.0885 36.8107 17.0936 36.896 17.0816C38.0187 16.9432 38.7085 17.0144 39.1829 17.1646C39.6454 17.3108 39.9597 17.546 40.3293 17.8682C40.4598 17.9747 40.6267 18.0262 40.7946 18.0118C40.9624 17.9974 41.1181 17.9182 41.2286 17.7911C41.339 17.6639 41.3957 17.4987 41.3865 17.3304C41.3773 17.1622 41.3029 17.0042 41.1792 16.8898Z" fill="#202020"/>
</g>
<g filter="url(#filter10_i_1074_623)">
<path d="M24.4753 16.6349C25.7019 15.9169 27.1304 15.6218 28.5411 15.7949C28.6267 15.8038 28.7097 15.8298 28.7852 15.8712C28.8607 15.9126 28.9272 15.9686 28.9808 16.036C29.0344 16.1034 29.074 16.1808 29.0974 16.2637C29.1208 16.3465 29.1274 16.4332 29.1169 16.5187C29.1064 16.6042 29.079 16.6867 29.0363 16.7614C28.9935 16.8362 28.9363 16.9017 28.868 16.9541C28.7997 17.0065 28.7216 17.0447 28.6383 17.0666C28.555 17.0885 28.4682 17.0936 28.383 17.0816C27.2587 16.9439 26.1203 17.1778 25.1414 17.7477C25.0684 17.7909 24.9972 17.8371 24.9279 17.8861L24.92 17.892C24.7837 17.993 24.6132 18.0366 24.4451 18.0133C24.277 17.99 24.1248 17.9018 24.021 17.7675C23.9173 17.6332 23.8703 17.4636 23.8902 17.2951C23.9101 17.1266 23.9953 16.9726 24.1274 16.8662L24.4753 16.6349Z" fill="#202020"/>
</g>
<g filter="url(#filter11_if_1074_623)">
<path d="M32.9943 10.7269C32.9396 10.6218 32.8882 10.515 32.8401 10.4067C32.7253 10.1186 32.5269 9.87151 32.2705 9.69714C32.014 9.52278 31.7113 9.42915 31.4012 9.4283H28.4245C24.1096 9.4283 20.6131 12.9663 20.6131 17.3286V17.973C19.8165 17.3682 18.8164 16.0913 18.8164 14.0258C18.8164 11.5195 20.6447 10.2525 21.8109 9.44411C22.141 9.21681 22.4157 9.02508 22.5837 8.85114C22.6549 8.77999 22.734 8.69697 22.817 8.60802C23.6353 7.74031 25.09 6.19662 27.6339 5.52063C28.881 5.20641 30.1681 5.07983 31.4526 5.14509C32.3855 5.18857 33.0437 5.99501 33.0437 6.92992V10.6953L32.9943 10.7269Z" fill="#23181C"/>
<path d="M32.9943 10.7269C32.9396 10.6218 32.8882 10.515 32.8401 10.4067C32.7253 10.1186 32.5269 9.87151 32.2705 9.69714C32.014 9.52278 31.7113 9.42915 31.4012 9.4283H28.4245C24.1096 9.4283 20.6131 12.9663 20.6131 17.3286V17.973C19.8165 17.3682 18.8164 16.0913 18.8164 14.0258C18.8164 11.5195 20.6447 10.2525 21.8109 9.44411C22.141 9.21681 22.4157 9.02508 22.5837 8.85114C22.6549 8.77999 22.734 8.69697 22.817 8.60802C23.6353 7.74031 25.09 6.19662 27.6339 5.52063C28.881 5.20641 30.1681 5.07983 31.4526 5.14509C32.3855 5.18857 33.0437 5.99501 33.0437 6.92992V10.6953L32.9943 10.7269Z" fill="url(#paint50_radial_1074_623)"/>
<path d="M32.9943 10.7269C32.9396 10.6218 32.8882 10.515 32.8401 10.4067C32.7253 10.1186 32.5269 9.87151 32.2705 9.69714C32.014 9.52278 31.7113 9.42915 31.4012 9.4283H28.4245C24.1096 9.4283 20.6131 12.9663 20.6131 17.3286V17.973C19.8165 17.3682 18.8164 16.0913 18.8164 14.0258C18.8164 11.5195 20.6447 10.2525 21.8109 9.44411C22.141 9.21681 22.4157 9.02508 22.5837 8.85114C22.6549 8.77999 22.734 8.69697 22.817 8.60802C23.6353 7.74031 25.09 6.19662 27.6339 5.52063C28.881 5.20641 30.1681 5.07983 31.4526 5.14509C32.3855 5.18857 33.0437 5.99501 33.0437 6.92992V10.6953L32.9943 10.7269Z" fill="url(#paint51_radial_1074_623)"/>
</g>
<g filter="url(#filter12_if_1074_623)">
<path d="M44.6404 18.3643L44.5712 16.8878C44.5475 15.103 43.071 13.6305 41.2861 13.5554H38.011C36.9953 13.555 35.9984 13.2815 35.1248 12.7633C34.2512 12.2451 33.5331 11.5015 33.0459 10.6103C33.0459 10.6103 32.8027 10.045 32.6229 9.13181C32.2434 7.18489 34.0598 5.74002 36.0127 6.07802C38.4261 6.49507 41.3277 7.28372 43.4208 8.6515C47.5005 11.312 46.7869 16.1071 44.6404 18.3643Z" fill="#1F151B"/>
<path d="M44.6404 18.3643L44.5712 16.8878C44.5475 15.103 43.071 13.6305 41.2861 13.5554H38.011C36.9953 13.555 35.9984 13.2815 35.1248 12.7633C34.2512 12.2451 33.5331 11.5015 33.0459 10.6103C33.0459 10.6103 32.8027 10.045 32.6229 9.13181C32.2434 7.18489 34.0598 5.74002 36.0127 6.07802C38.4261 6.49507 41.3277 7.28372 43.4208 8.6515C47.5005 11.312 46.7869 16.1071 44.6404 18.3643Z" fill="url(#paint52_radial_1074_623)"/>
</g>
<path d="M38.0423 19.9634C39.5682 19.9634 40.8589 21.0169 41.2087 22.44C41.2326 22.5348 41.2344 22.6337 41.2141 22.7292C41.1938 22.8248 41.1519 22.9145 41.0916 22.9913C41.0313 23.0682 40.9543 23.1303 40.8663 23.1728C40.7784 23.2153 40.6818 23.2371 40.5842 23.2366H35.366C35.2869 23.2368 35.2088 23.2195 35.1372 23.186C35.0655 23.1525 35.0021 23.1037 34.9515 23.0429C34.901 22.9821 34.8644 22.9109 34.8445 22.8344C34.8246 22.7578 34.8218 22.6778 34.8363 22.6001C34.9828 21.8574 35.3825 21.1885 35.9671 20.7076C36.5518 20.2268 37.2853 19.9637 38.0423 19.9634Z" fill="white"/>
<path d="M37.5581 20.5979C37.879 20.5983 38.1954 20.6728 38.4829 20.8154C38.7704 20.958 39.021 21.165 39.2155 21.4203C39.41 21.6756 39.5429 21.9722 39.6041 22.2872C39.6653 22.6022 39.653 22.9271 39.5682 23.2366H35.5361C35.4531 22.9265 35.4425 22.6015 35.505 22.2867C35.5676 21.9719 35.7016 21.6756 35.8968 21.4208C36.092 21.166 36.3432 20.9595 36.6309 20.8172C36.9186 20.6748 37.2351 20.6005 37.5561 20.5999L37.5581 20.5979Z" fill="url(#paint53_radial_1074_623)"/>
<path d="M36.3624 22.6851C36.3624 22.021 36.896 21.4913 37.5582 21.4913C37.7642 21.4893 37.9671 21.5409 38.1472 21.641C38.3272 21.741 38.4783 21.8861 38.5854 22.062C38.6926 22.2379 38.7523 22.4386 38.7586 22.6445C38.765 22.8504 38.7177 23.0544 38.6216 23.2366H36.5067C36.4102 23.0689 36.3604 22.8785 36.3624 22.6851Z" fill="black"/>
<g filter="url(#filter13_f_1074_623)">
<path d="M37.4044 21.0406C37.5546 21.2383 37.2423 21.4814 36.8905 21.7463C36.5347 22.0091 36.2738 22.1949 36.1256 21.9973C35.9773 21.7996 36.1433 21.4241 36.4952 21.1592C36.8509 20.8944 37.2561 20.843 37.4044 21.0406Z" fill="#C7A7A3"/>
<path d="M37.4044 21.0406C37.5546 21.2383 37.2423 21.4814 36.8905 21.7463C36.5347 22.0091 36.2738 22.1949 36.1256 21.9973C35.9773 21.7996 36.1433 21.4241 36.4952 21.1592C36.8509 20.8944 37.2561 20.843 37.4044 21.0406Z" fill="url(#paint54_radial_1074_623)"/>
</g>
<g filter="url(#filter14_f_1074_623)">
<path d="M39.416 22.4104C39.3543 22.0022 39.1654 21.6239 38.8764 21.3292L38.2676 21.9953L38.5423 22.529L39.416 22.4104Z" fill="url(#paint55_linear_1074_623)"/>
</g>
<path d="M26.8616 19.9634C25.3337 19.9634 24.045 21.0169 23.6932 22.44C23.6693 22.5349 23.6675 22.634 23.6879 22.7297C23.7083 22.8254 23.7504 22.9152 23.8109 22.9921C23.8714 23.069 23.9487 23.1311 24.0369 23.1734C24.1251 23.2158 24.2219 23.2374 24.3197 23.2366H29.5379C29.6169 23.2368 29.6951 23.2195 29.7667 23.186C29.8384 23.1525 29.9018 23.1037 29.9523 23.0429C30.0029 22.9821 30.0395 22.9109 30.0594 22.8344C30.0793 22.7578 30.0821 22.6778 30.0676 22.6001C29.9201 21.8579 29.5201 21.1897 28.9356 20.709C28.3512 20.2283 27.6183 19.9648 26.8616 19.9634Z" fill="white"/>
<path d="M27.3451 20.5979C27.024 20.598 26.7073 20.6723 26.4196 20.8148C26.1319 20.9573 25.881 21.1642 25.6863 21.4195C25.4916 21.6748 25.3584 21.9716 25.2972 22.2867C25.2359 22.6019 25.2481 22.927 25.333 23.2366H29.3651C29.4126 23.0548 29.4403 22.8749 29.4403 22.6852C29.4366 22.1313 29.2144 21.6014 28.8221 21.2105C28.4297 20.8196 27.8989 20.5995 27.3451 20.5979Z" fill="url(#paint56_radial_1074_623)"/>
<path d="M28.5394 22.6851C28.5399 22.5282 28.5094 22.3727 28.4496 22.2276C28.3898 22.0825 28.3018 21.9507 28.1909 21.8398C28.0799 21.7288 27.9481 21.6409 27.803 21.5811C27.6579 21.5213 27.5025 21.4907 27.3455 21.4913C27.1396 21.4893 26.9366 21.5409 26.7565 21.641C26.5765 21.741 26.4255 21.8861 26.3183 22.062C26.2111 22.2379 26.1514 22.4386 26.1451 22.6445C26.1388 22.8504 26.186 23.0544 26.2821 23.2366H28.3971C28.4886 23.067 28.5374 22.8778 28.5394 22.6851Z" fill="black"/>
<g filter="url(#filter15_f_1074_623)">
<path d="M29.2506 22.44C29.2506 21.766 28.7031 21.3173 28.5549 21.1809L27.8809 21.8332L28.2959 22.6772L29.2506 22.44Z" fill="url(#paint57_linear_1074_623)"/>
</g>
<g filter="url(#filter16_f_1074_623)">
<path d="M26.9307 21.8982C27.3754 21.6626 27.6394 21.2894 27.5203 21.0647C27.4012 20.8399 26.9442 20.8487 26.4995 21.0843C26.0548 21.3199 25.7909 21.6931 25.9099 21.9178C26.029 22.1426 26.486 22.1338 26.9307 21.8982Z" fill="#C7A7A3" fill-opacity="0.9"/>
<path d="M26.9307 21.8982C27.3754 21.6626 27.6394 21.2894 27.5203 21.0647C27.4012 20.8399 26.9442 20.8487 26.4995 21.0843C26.0548 21.3199 25.7909 21.6931 25.9099 21.9178C26.029 22.1426 26.486 22.1338 26.9307 21.8982Z" fill="url(#paint58_radial_1074_623)"/>
</g>
<path d="M43.9609 26.992C44.1131 24.5016 44.2614 22.017 44.3918 19.5305C45.2986 19.692 46.1147 20.1804 46.6856 20.9032C47.2564 21.626 47.5424 22.5331 47.4893 23.4526C47.4362 24.3721 47.0477 25.2402 46.3974 25.8925C45.7472 26.5449 44.8803 26.9361 43.9609 26.992Z" fill="url(#paint59_linear_1074_623)"/>
<path d="M43.9609 26.992C44.1131 24.5016 44.2614 22.017 44.3918 19.5305C45.2986 19.692 46.1147 20.1804 46.6856 20.9032C47.2564 21.626 47.5424 22.5331 47.4893 23.4526C47.4362 24.3721 47.0477 25.2402 46.3974 25.8925C45.7472 26.5449 44.8803 26.9361 43.9609 26.992Z" fill="url(#paint60_radial_1074_623)"/>
<path d="M43.9609 26.992C44.1131 24.5016 44.2614 22.017 44.3918 19.5305C45.2986 19.692 46.1147 20.1804 46.6856 20.9032C47.2564 21.626 47.5424 22.5331 47.4893 23.4526C47.4362 24.3721 47.0477 25.2402 46.3974 25.8925C45.7472 26.5449 44.8803 26.9361 43.9609 26.992Z" fill="url(#paint61_radial_1074_623)"/>
<path d="M43.9609 26.992C44.1131 24.5016 44.2614 22.017 44.3918 19.5305C45.2986 19.692 46.1147 20.1804 46.6856 20.9032C47.2564 21.626 47.5424 22.5331 47.4893 23.4526C47.4362 24.3721 47.0477 25.2402 46.3974 25.8925C45.7472 26.5449 44.8803 26.9361 43.9609 26.992Z" fill="url(#paint62_radial_1074_623)"/>
<path d="M20.6354 19.5107C19.7129 19.6448 18.8729 20.1165 18.2782 20.8344C17.6835 21.5524 17.3765 22.4655 17.4166 23.3969C17.4567 24.3283 17.8411 25.2117 18.4953 25.8759C19.1495 26.5401 20.0269 26.9378 20.9576 26.992C20.799 24.5007 20.6916 22.0064 20.6354 19.5107Z" fill="url(#paint63_linear_1074_623)"/>
<path d="M20.6354 19.5107C19.7129 19.6448 18.8729 20.1165 18.2782 20.8344C17.6835 21.5524 17.3765 22.4655 17.4166 23.3969C17.4567 24.3283 17.8411 25.2117 18.4953 25.8759C19.1495 26.5401 20.0269 26.9378 20.9576 26.992C20.799 24.5007 20.6916 22.0064 20.6354 19.5107Z" fill="url(#paint64_radial_1074_623)"/>
<g filter="url(#filter17_f_1074_623)">
<path d="M20.5603 21.0544C20.0483 21.1692 19.5931 21.4606 19.2745 21.8775C18.9558 22.2943 18.7941 22.8101 18.8177 23.3342C18.8413 23.8584 19.0486 24.3575 19.4034 24.7441C19.7582 25.1307 20.2378 25.38 20.758 25.4483C20.6744 23.9846 20.6086 22.5198 20.5603 21.0544Z" fill="url(#paint65_radial_1074_623)"/>
</g>
<g filter="url(#filter18_f_1074_623)">
<path d="M44.0098 25.4602C44.0987 23.9778 44.1877 22.4954 44.2667 21.011C44.8283 21.082 45.3419 21.3636 45.7038 21.7989C46.0657 22.2341 46.2488 22.7905 46.2162 23.3556C46.1835 23.9207 45.9376 24.4523 45.528 24.843C45.1184 25.2337 44.5758 25.4543 44.0098 25.4602Z" fill="url(#paint66_linear_1074_623)"/>
</g>
<g filter="url(#filter19_f_1074_623)">
<path d="M24.5645 17.2891C25.1653 16.8582 26.6636 16.0992 28.4346 16.3977" stroke="#353535" stroke-width="0.25" stroke-linecap="round"/>
</g>
<g filter="url(#filter20_f_1074_623)">
<path d="M40.7783 17.1823C40.1774 16.7495 38.6792 15.9905 36.9082 16.2889" stroke="#353535" stroke-width="0.25" stroke-linecap="round"/>
</g>
<g filter="url(#filter21_f_1074_623)">
<path d="M42.2543 10.7664H37.3899C37.0919 10.7423 36.8157 10.6008 36.622 10.373C36.4283 10.1452 36.3331 9.84983 36.3572 9.55181C36.3813 9.25379 36.5228 8.97756 36.7506 8.78388C36.9784 8.5902 37.2738 8.49494 37.5718 8.51906C38.8348 8.72067 40.5109 9.00134 41.6336 9.28003C44.1715 9.90858 44.8712 11.1439 45.0669 12.0255C44.7236 11.6173 44.2925 11.2921 43.8058 11.0741C43.319 10.856 42.7893 10.7509 42.2562 10.7664H42.2543Z" fill="#504A4C"/>
</g>
<g filter="url(#filter22_f_1074_623)">
<path d="M2.61035 5.42175L3.32191 10.626" stroke="url(#paint67_linear_1074_623)" stroke-width="0.4"/>
</g>
<g filter="url(#filter23_f_1074_623)">
<path d="M5.94727 3.53223V9.63783" stroke="url(#paint68_linear_1074_623)" stroke-width="0.4"/>
</g>
<g filter="url(#filter24_f_1074_623)">
<path d="M9.57613 1.73157L9.00293 9.52713" stroke="url(#paint69_linear_1074_623)" stroke-width="0.4"/>
</g>
<g filter="url(#filter25_f_1074_623)">
<path d="M13.3755 3.80103L11.7686 10.5332" stroke="url(#paint70_linear_1074_623)" stroke-width="0.4"/>
</g>
<g filter="url(#filter26_f_1074_623)">
<path d="M2.59473 11.6459C2.81215 11.5214 3.81427 10.8948 4.20167 10.1477" stroke="url(#paint71_linear_1074_623)" stroke-width="0.2" stroke-linecap="round"/>
</g>
<g filter="url(#filter27_f_1074_623)">
<path d="M6.87835 9.73669C6.6214 10.0628 6.22213 10.3297 5.85449 10.5273" stroke="url(#paint72_linear_1074_623)" stroke-width="0.2" stroke-linecap="round"/>
</g>
<g filter="url(#filter28_f_1074_623)">
<path d="M9.7618 9.35913C9.50485 9.68329 8.77352 10.0707 8.35449 10.1932" stroke="url(#paint73_linear_1074_623)" stroke-width="0.2" stroke-linecap="round"/>
</g>
<defs>
<filter id="filter0_f_1074_623" x="7.41016" y="21.282" width="14.6484" height="21.8198" filterUnits="userSpaceOnUse" color-interpolation-filters="sRGB">
<feFlood flood-opacity="0" result="BackgroundImageFix"/>
<feBlend mode="normal" in="SourceGraphic" in2="BackgroundImageFix" result="shape"/>
<feGaussianBlur stdDeviation="0.75" result="effect1_foregroundBlur_1074_623"/>
</filter>
<filter id="filter1_f_1074_623" x="3.80625" y="5.99595" width="0.567188" height="4.12139" filterUnits="userSpaceOnUse" color-interpolation-filters="sRGB">
<feFlood flood-opacity="0" result="BackgroundImageFix"/>
<feBlend mode="normal" in="SourceGraphic" in2="BackgroundImageFix" result="shape"/>
<feGaussianBlur stdDeviation="0.05" result="effect1_foregroundBlur_1074_623"/>
</filter>
<filter id="filter2_f_1074_623" x="6.87949" y="5.14792" width="0.412891" height="4.81511" filterUnits="userSpaceOnUse" color-interpolation-filters="sRGB">
<feFlood flood-opacity="0" result="BackgroundImageFix"/>
<feBlend mode="normal" in="SourceGraphic" in2="BackgroundImageFix" result="shape"/>
<feGaussianBlur stdDeviation="0.05" result="effect1_foregroundBlur_1074_623"/>
</filter>
<filter id="filter3_f_1074_623" x="9.79648" y="6.33787" width="0.739063" height="3.054" filterUnits="userSpaceOnUse" color-interpolation-filters="sRGB">
<feFlood flood-opacity="0" result="BackgroundImageFix"/>
<feBlend mode="normal" in="SourceGraphic" in2="BackgroundImageFix" result="shape"/>
<feGaussianBlur stdDeviation="0.05" result="effect1_foregroundBlur_1074_623"/>
</filter>
<filter id="filter4_ii_1074_623" x="20.6133" y="9.42834" width="24.8965" height="29.0578" filterUnits="userSpaceOnUse" color-interpolation-filters="sRGB">
<feFlood flood-opacity="0" result="BackgroundImageFix"/>
<feBlend mode="normal" in="SourceGraphic" in2="BackgroundImageFix" result="shape"/>
<feColorMatrix in="SourceAlpha" type="matrix" values="0 0 0 0 0 0 0 0 0 0 0 0 0 0 0 0 0 0 127 0" result="hardAlpha"/>
<feOffset dx="1"/>
<feGaussianBlur stdDeviation="0.7"/>
<feComposite in2="hardAlpha" operator="arithmetic" k2="-1" k3="1"/>
<feColorMatrix type="matrix" values="0 0 0 0 0.333333 0 0 0 0 0.270588 0 0 0 0 0.258824 0 0 0 1 0"/>
<feBlend mode="normal" in2="shape" result="effect1_innerShadow_1074_623"/>
<feColorMatrix in="SourceAlpha" type="matrix" values="0 0 0 0 0 0 0 0 0 0 0 0 0 0 0 0 0 0 127 0" result="hardAlpha"/>
<feOffset dy="0.2"/>
<feGaussianBlur stdDeviation="0.375"/>
<feComposite in2="hardAlpha" operator="arithmetic" k2="-1" k3="1"/>
<feColorMatrix type="matrix" values="0 0 0 0 0.145098 0 0 0 0 0.0705882 0 0 0 0 0.0745098 0 0 0 1 0"/>
<feBlend mode="normal" in2="effect1_innerShadow_1074_623" result="effect2_innerShadow_1074_623"/>
</filter>
<filter id="filter5_f_1074_623" x="29.0771" y="20.9291" width="6.08398" height="8.78064" filterUnits="userSpaceOnUse" color-interpolation-filters="sRGB">
<feFlood flood-opacity="0" result="BackgroundImageFix"/>
<feBlend mode="normal" in="SourceGraphic" in2="BackgroundImageFix" result="shape"/>
<feGaussianBlur stdDeviation="0.5" result="effect1_foregroundBlur_1074_623"/>
</filter>
<filter id="filter6_f_1074_623" x="30.0568" y="21.2705" width="4.78965" height="7.18259" filterUnits="userSpaceOnUse" color-interpolation-filters="sRGB">
<feFlood flood-opacity="0" result="BackgroundImageFix"/>
<feBlend mode="normal" in="SourceGraphic" in2="BackgroundImageFix" result="shape"/>
<feGaussianBlur stdDeviation="0.1" result="effect1_foregroundBlur_1074_623"/>
</filter>
<filter id="filter7_f_1074_623" x="28.3658" y="29.4968" width="8.1707" height="3.00493" filterUnits="userSpaceOnUse" color-interpolation-filters="sRGB">
<feFlood flood-opacity="0" result="BackgroundImageFix"/>
<feBlend mode="normal" in="SourceGraphic" in2="BackgroundImageFix" result="shape"/>
<feGaussianBlur stdDeviation="0.05" result="effect1_foregroundBlur_1074_623"/>
</filter>
<filter id="filter8_ii_1074_623" x="17.4014" y="2.66846" width="30.0986" height="18.8722" filterUnits="userSpaceOnUse" color-interpolation-filters="sRGB">
<feFlood flood-opacity="0" result="BackgroundImageFix"/>
<feBlend mode="normal" in="SourceGraphic" in2="BackgroundImageFix" result="shape"/>
<feColorMatrix in="SourceAlpha" type="matrix" values="0 0 0 0 0 0 0 0 0 0 0 0 0 0 0 0 0 0 127 0" result="hardAlpha"/>
<feOffset dy="-0.5"/>
<feGaussianBlur stdDeviation="0.625"/>
<feComposite in2="hardAlpha" operator="arithmetic" k2="-1" k3="1"/>
<feColorMatrix type="matrix" values="0 0 0 0 0.137255 0 0 0 0 0.0901961 0 0 0 0 0.145098 0 0 0 1 0"/>
<feBlend mode="normal" in2="shape" result="effect1_innerShadow_1074_623"/>
<feColorMatrix in="SourceAlpha" type="matrix" values="0 0 0 0 0 0 0 0 0 0 0 0 0 0 0 0 0 0 127 0" result="hardAlpha"/>
<feOffset dy="-0.2"/>
<feGaussianBlur stdDeviation="0.2"/>
<feComposite in2="hardAlpha" operator="arithmetic" k2="-1" k3="1"/>
<feColorMatrix type="matrix" values="0 0 0 0 0.0784314 0 0 0 0 0.0352941 0 0 0 0 0.0470588 0 0 0 1 0"/>
<feBlend mode="normal" in2="effect1_innerShadow_1074_623" result="effect2_innerShadow_1074_623"/>
</filter>
<filter id="filter9_i_1074_623" x="36.1572" y="15.5109" width="5.33047" height="2.50322" filterUnits="userSpaceOnUse" color-interpolation-filters="sRGB">
<feFlood flood-opacity="0" result="BackgroundImageFix"/>
<feBlend mode="normal" in="SourceGraphic" in2="BackgroundImageFix" result="shape"/>
<feColorMatrix in="SourceAlpha" type="matrix" values="0 0 0 0 0 0 0 0 0 0 0 0 0 0 0 0 0 0 127 0" result="hardAlpha"/>
<feOffset dx="0.1" dy="-0.2"/>
<feGaussianBlur stdDeviation="0.125"/>
<feComposite in2="hardAlpha" operator="arithmetic" k2="-1" k3="1"/>
<feColorMatrix type="matrix" values="0 0 0 0 0.0588235 0 0 0 0 0.054902 0 0 0 0 0.0588235 0 0 0 1 0"/>
<feBlend mode="normal" in2="shape" result="effect1_innerShadow_1074_623"/>
</filter>
<filter id="filter10_i_1074_623" x="23.8857" y="15.5466" width="5.33633" height="2.47283" filterUnits="userSpaceOnUse" color-interpolation-filters="sRGB">
<feFlood flood-opacity="0" result="BackgroundImageFix"/>
<feBlend mode="normal" in="SourceGraphic" in2="BackgroundImageFix" result="shape"/>
<feColorMatrix in="SourceAlpha" type="matrix" values="0 0 0 0 0 0 0 0 0 0 0 0 0 0 0 0 0 0 127 0" result="hardAlpha"/>
<feOffset dx="0.1" dy="-0.2"/>
<feGaussianBlur stdDeviation="0.125"/>
<feComposite in2="hardAlpha" operator="arithmetic" k2="-1" k3="1"/>
<feColorMatrix type="matrix" values="0 0 0 0 0.0588235 0 0 0 0 0.054902 0 0 0 0 0.0588235 0 0 0 1 0"/>
<feBlend mode="normal" in2="shape" result="effect1_innerShadow_1074_623"/>
</filter>
<filter id="filter11_if_1074_623" x="18.3164" y="4.62842" width="15.2275" height="13.8446" filterUnits="userSpaceOnUse" color-interpolation-filters="sRGB">
<feFlood flood-opacity="0" result="BackgroundImageFix"/>
<feBlend mode="normal" in="SourceGraphic" in2="BackgroundImageFix" result="shape"/>
<feColorMatrix in="SourceAlpha" type="matrix" values="0 0 0 0 0 0 0 0 0 0 0 0 0 0 0 0 0 0 127 0" result="hardAlpha"/>
<feOffset dx="0.4" dy="0.2"/>
<feGaussianBlur stdDeviation="0.2"/>
<feComposite in2="hardAlpha" operator="arithmetic" k2="-1" k3="1"/>
<feColorMatrix type="matrix" values="0 0 0 0 0.286275 0 0 0 0 0.243137 0 0 0 0 0.227451 0 0 0 1 0"/>
<feBlend mode="normal" in2="shape" result="effect1_innerShadow_1074_623"/>
<feGaussianBlur stdDeviation="0.25" result="effect2_foregroundBlur_1074_623"/>
</filter>
<filter id="filter12_if_1074_623" x="32.0723" y="5.52881" width="14.7969" height="13.3356" filterUnits="userSpaceOnUse" color-interpolation-filters="sRGB">
<feFlood flood-opacity="0" result="BackgroundImageFix"/>
<feBlend mode="normal" in="SourceGraphic" in2="BackgroundImageFix" result="shape"/>
<feColorMatrix in="SourceAlpha" type="matrix" values="0 0 0 0 0 0 0 0 0 0 0 0 0 0 0 0 0 0 127 0" result="hardAlpha"/>
<feOffset dx="-0.1" dy="0.2"/>
<feGaussianBlur stdDeviation="2"/>
<feComposite in2="hardAlpha" operator="arithmetic" k2="-1" k3="1"/>
<feColorMatrix type="matrix" values="0 0 0 0 0.329412 0 0 0 0 0.305882 0 0 0 0 0.313726 0 0 0 1 0"/>
<feBlend mode="normal" in2="shape" result="effect1_innerShadow_1074_623"/>
<feGaussianBlur stdDeviation="0.25" result="effect2_foregroundBlur_1074_623"/>
</filter>
<filter id="filter13_f_1074_623" x="35.9713" y="20.8207" width="1.57207" height="1.3593" filterUnits="userSpaceOnUse" color-interpolation-filters="sRGB">
<feFlood flood-opacity="0" result="BackgroundImageFix"/>
<feBlend mode="normal" in="SourceGraphic" in2="BackgroundImageFix" result="shape"/>
<feGaussianBlur stdDeviation="0.05" result="effect1_foregroundBlur_1074_623"/>
</filter>
<filter id="filter14_f_1074_623" x="38.0676" y="21.1292" width="1.54844" height="1.59983" filterUnits="userSpaceOnUse" color-interpolation-filters="sRGB">
<feFlood flood-opacity="0" result="BackgroundImageFix"/>
<feBlend mode="normal" in="SourceGraphic" in2="BackgroundImageFix" result="shape"/>
<feGaussianBlur stdDeviation="0.1" result="effect1_foregroundBlur_1074_623"/>
</filter>
<filter id="filter15_f_1074_623" x="27.6809" y="20.9809" width="1.77012" height="1.89622" filterUnits="userSpaceOnUse" color-interpolation-filters="sRGB">
<feFlood flood-opacity="0" result="BackgroundImageFix"/>
<feBlend mode="normal" in="SourceGraphic" in2="BackgroundImageFix" result="shape"/>
<feGaussianBlur stdDeviation="0.1" result="effect1_foregroundBlur_1074_623"/>
</filter>
<filter id="filter16_f_1074_623" x="25.7818" y="20.8017" width="1.86699" height="1.37908" filterUnits="userSpaceOnUse" color-interpolation-filters="sRGB">
<feFlood flood-opacity="0" result="BackgroundImageFix"/>
<feBlend mode="normal" in="SourceGraphic" in2="BackgroundImageFix" result="shape"/>
<feGaussianBlur stdDeviation="0.05" result="effect1_foregroundBlur_1074_623"/>
</filter>
<filter id="filter17_f_1074_623" x="18.5654" y="20.8044" width="2.44238" height="4.89392" filterUnits="userSpaceOnUse" color-interpolation-filters="sRGB">
<feFlood flood-opacity="0" result="BackgroundImageFix"/>
<feBlend mode="normal" in="SourceGraphic" in2="BackgroundImageFix" result="shape"/>
<feGaussianBlur stdDeviation="0.125" result="effect1_foregroundBlur_1074_623"/>
</filter>
<filter id="filter18_f_1074_623" x="43.5098" y="20.511" width="3.20996" height="5.44922" filterUnits="userSpaceOnUse" color-interpolation-filters="sRGB">
<feFlood flood-opacity="0" result="BackgroundImageFix"/>
<feBlend mode="normal" in="SourceGraphic" in2="BackgroundImageFix" result="shape"/>
<feGaussianBlur stdDeviation="0.25" result="effect1_foregroundBlur_1074_623"/>
</filter>
<filter id="filter19_f_1074_623" x="24.1895" y="15.955" width="4.62012" height="1.70923" filterUnits="userSpaceOnUse" color-interpolation-filters="sRGB">
<feFlood flood-opacity="0" result="BackgroundImageFix"/>
<feBlend mode="normal" in="SourceGraphic" in2="BackgroundImageFix" result="shape"/>
<feGaussianBlur stdDeviation="0.125" result="effect1_foregroundBlur_1074_623"/>
</filter>
<filter id="filter20_f_1074_623" x="36.5332" y="15.8462" width="4.62012" height="1.71118" filterUnits="userSpaceOnUse" color-interpolation-filters="sRGB">
<feFlood flood-opacity="0" result="BackgroundImageFix"/>
<feBlend mode="normal" in="SourceGraphic" in2="BackgroundImageFix" result="shape"/>
<feGaussianBlur stdDeviation="0.125" result="effect1_foregroundBlur_1074_623"/>
</filter>
<filter id="filter21_f_1074_623" x="35.3535" y="7.51538" width="10.7139" height="5.51013" filterUnits="userSpaceOnUse" color-interpolation-filters="sRGB">
<feFlood flood-opacity="0" result="BackgroundImageFix"/>
<feBlend mode="normal" in="SourceGraphic" in2="BackgroundImageFix" result="shape"/>
<feGaussianBlur stdDeviation="0.5" result="effect1_foregroundBlur_1074_623"/>
</filter>
<filter id="filter22_f_1074_623" x="2.01211" y="4.99465" width="1.9084" height="6.05842" filterUnits="userSpaceOnUse" color-interpolation-filters="sRGB">
<feFlood flood-opacity="0" result="BackgroundImageFix"/>
<feBlend mode="normal" in="SourceGraphic" in2="BackgroundImageFix" result="shape"/>
<feGaussianBlur stdDeviation="0.2" result="effect1_foregroundBlur_1074_623"/>
</filter>
<filter id="filter23_f_1074_623" x="5.34707" y="3.13223" width="1.20039" height="6.90559" filterUnits="userSpaceOnUse" color-interpolation-filters="sRGB">
<feFlood flood-opacity="0" result="BackgroundImageFix"/>
<feBlend mode="normal" in="SourceGraphic" in2="BackgroundImageFix" result="shape"/>
<feGaussianBlur stdDeviation="0.2" result="effect1_foregroundBlur_1074_623"/>
</filter>
<filter id="filter24_f_1074_623" x="8.40371" y="1.31692" width="1.77168" height="8.62483" filterUnits="userSpaceOnUse" color-interpolation-filters="sRGB">
<feFlood flood-opacity="0" result="BackgroundImageFix"/>
<feBlend mode="normal" in="SourceGraphic" in2="BackgroundImageFix" result="shape"/>
<feGaussianBlur stdDeviation="0.2" result="effect1_foregroundBlur_1074_623"/>
</filter>
<filter id="filter25_f_1074_623" x="11.1742" y="3.35464" width="2.79609" height="7.62495" filterUnits="userSpaceOnUse" color-interpolation-filters="sRGB">
<feFlood flood-opacity="0" result="BackgroundImageFix"/>
<feBlend mode="normal" in="SourceGraphic" in2="BackgroundImageFix" result="shape"/>
<feGaussianBlur stdDeviation="0.2" result="effect1_foregroundBlur_1074_623"/>
</filter>
<filter id="filter26_f_1074_623" x="2.29512" y="9.84773" width="2.20664" height="2.09824" filterUnits="userSpaceOnUse" color-interpolation-filters="sRGB">
<feFlood flood-opacity="0" result="BackgroundImageFix"/>
<feBlend mode="normal" in="SourceGraphic" in2="BackgroundImageFix" result="shape"/>
<feGaussianBlur stdDeviation="0.1" result="effect1_foregroundBlur_1074_623"/>
</filter>
<filter id="filter27_f_1074_623" x="5.55488" y="9.43672" width="1.62363" height="1.3906" filterUnits="userSpaceOnUse" color-interpolation-filters="sRGB">
<feFlood flood-opacity="0" result="BackgroundImageFix"/>
<feBlend mode="normal" in="SourceGraphic" in2="BackgroundImageFix" result="shape"/>
<feGaussianBlur stdDeviation="0.1" result="effect1_foregroundBlur_1074_623"/>
</filter>
<filter id="filter28_f_1074_623" x="8.05488" y="9.05916" width="2.00645" height="1.43406" filterUnits="userSpaceOnUse" color-interpolation-filters="sRGB">
<feFlood flood-opacity="0" result="BackgroundImageFix"/>
<feBlend mode="normal" in="SourceGraphic" in2="BackgroundImageFix" result="shape"/>
<feGaussianBlur stdDeviation="0.1" result="effect1_foregroundBlur_1074_623"/>
</filter>
<radialGradient id="paint0_radial_1074_623" cx="0" cy="0" r="1" gradientUnits="userSpaceOnUse" gradientTransform="translate(6.47695 19.2775) rotate(-68.885) scale(12.8026 15.316)">
<stop offset="0.475" stop-color="#482F30"/>
<stop offset="1" stop-color="#432927"/>
</radialGradient>
<radialGradient id="paint1_radial_1074_623" cx="0" cy="0" r="1" gradientUnits="userSpaceOnUse" gradientTransform="translate(14.9071 15.5496) rotate(130.764) scale(18.9199 4.55434)">
<stop offset="0.147" stop-color="#362024"/>
<stop offset="1" stop-color="#362024" stop-opacity="0"/>
</radialGradient>
<linearGradient id="paint2_linear_1074_623" x1="7.43361" y1="20.584" x2="7.43361" y2="17.216" gradientUnits="userSpaceOnUse">
<stop stop-color="#3D1A14"/>
<stop offset="1" stop-color="#3D1A14" stop-opacity="0"/>
</linearGradient>
<radialGradient id="paint3_radial_1074_623" cx="0" cy="0" r="1" gradientUnits="userSpaceOnUse" gradientTransform="translate(3.95881 5.81119) rotate(85.056) scale(4.47935 0.537133)">
<stop offset="0.401" stop-color="#301715"/>
<stop offset="1" stop-color="#301715" stop-opacity="0"/>
</radialGradient>
<radialGradient id="paint4_radial_1074_623" cx="0" cy="0" r="1" gradientUnits="userSpaceOnUse" gradientTransform="translate(7.21421 3.50849) rotate(90.788) scale(6.7333 0.525815)">
<stop offset="0.401" stop-color="#301715"/>
<stop offset="1" stop-color="#301715" stop-opacity="0"/>
</radialGradient>
<radialGradient id="paint5_radial_1074_623" cx="0" cy="0" r="1" gradientUnits="userSpaceOnUse" gradientTransform="translate(11.108 1.99642) rotate(99.6086) scale(7.9561 1.13698)">
<stop offset="0.652" stop-color="#301715"/>
<stop offset="1" stop-color="#301715" stop-opacity="0"/>
</radialGradient>
<radialGradient id="paint6_radial_1074_623" cx="0" cy="0" r="1" gradientUnits="userSpaceOnUse" gradientTransform="translate(14.0709 2.70798) rotate(131.934) scale(1.96066 1.72237)">
<stop stop-color="#685755"/>
<stop offset="1" stop-color="#685755" stop-opacity="0"/>
</radialGradient>
<radialGradient id="paint7_radial_1074_623" cx="0" cy="0" r="1" gradientUnits="userSpaceOnUse" gradientTransform="translate(10.2621 0.678054) rotate(121.412) scale(2.46656 1.52392)">
<stop stop-color="#695755"/>
<stop offset="0.994" stop-color="#695755" stop-opacity="0"/>
</radialGradient>
<radialGradient id="paint8_radial_1074_623" cx="0" cy="0" r="1" gradientUnits="userSpaceOnUse" gradientTransform="translate(6.18268 1.84397) rotate(99.841) scale(2.45888 1.88685)">
<stop stop-color="#685856"/>
<stop offset="1" stop-color="#685856" stop-opacity="0"/>
</radialGradient>
<radialGradient id="paint9_radial_1074_623" cx="0" cy="0" r="1" gradientUnits="userSpaceOnUse" gradientTransform="translate(2.72148 4.26749) rotate(98.1301) scale(1.92287 1.36699)">
<stop stop-color="#685756"/>
<stop offset="1" stop-color="#685756" stop-opacity="0"/>
</radialGradient>
<radialGradient id="paint10_radial_1074_623" cx="0" cy="0" r="1" gradientUnits="userSpaceOnUse" gradientTransform="translate(18.1031 9.90267) rotate(138.919) scale(2.33247 1.82525)">
<stop stop-color="#584947"/>
<stop offset="1" stop-color="#584947" stop-opacity="0"/>
</radialGradient>
<linearGradient id="paint11_linear_1074_623" x1="3.16998" y1="20.6196" x2="11.8174" y2="20.6196" gradientUnits="userSpaceOnUse">
<stop stop-color="#E6724B"/>
<stop offset="0.743" stop-color="#D64D18"/>
</linearGradient>
<linearGradient id="paint12_linear_1074_623" x1="7.65678" y1="19.4613" x2="7.65678" y2="19.9713" gradientUnits="userSpaceOnUse">
<stop stop-color="#DD6422"/>
<stop offset="1" stop-color="#DD6422" stop-opacity="0"/>
</linearGradient>
<radialGradient id="paint13_radial_1074_623" cx="0" cy="0" r="1" gradientUnits="userSpaceOnUse" gradientTransform="translate(46.6271 49.5545) rotate(162.199) scale(18.0928 19.2925)">
<stop stop-color="#FF8045"/>
<stop offset="1" stop-color="#FF8045" stop-opacity="0"/>
</radialGradient>
<radialGradient id="paint14_radial_1074_623" cx="0" cy="0" r="1" gradientUnits="userSpaceOnUse" gradientTransform="translate(16.4509 55.085) rotate(-90) scale(9.14164 5.26989)">
<stop stop-color="#FF6E45"/>
<stop offset="1" stop-color="#FF6E45" stop-opacity="0"/>
</radialGradient>
<linearGradient id="paint15_linear_1074_623" x1="13.5809" y1="48.501" x2="17.4471" y2="36.0783" gradientUnits="userSpaceOnUse">
<stop stop-color="#FF4B54"/>
<stop offset="1" stop-color="#FF4B54" stop-opacity="0"/>
</linearGradient>
<radialGradient id="paint16_radial_1074_623" cx="0" cy="0" r="1" gradientUnits="userSpaceOnUse" gradientTransform="translate(0.762922 21.4854) rotate(90) scale(17.4185 10.7476)">
<stop stop-color="#FF7C1F"/>
<stop offset="1" stop-color="#FF7C1F" stop-opacity="0"/>
</radialGradient>
<radialGradient id="paint17_radial_1074_623" cx="0" cy="0" r="1" gradientUnits="userSpaceOnUse" gradientTransform="translate(28.4625 37.8948) rotate(-166.974) scale(16.1179 5.42829)">
<stop stop-color="#D93F13"/>
<stop offset="1" stop-color="#D93F13" stop-opacity="0"/>
</radialGradient>
<radialGradient id="paint18_radial_1074_623" cx="0" cy="0" r="1" gradientUnits="userSpaceOnUse" gradientTransform="translate(23.6594 34.6829) rotate(100.457) scale(8.16759 15.9596)">
<stop offset="0.232" stop-color="#B64318"/>
<stop offset="1" stop-color="#B64318" stop-opacity="0"/>
</radialGradient>
<linearGradient id="paint19_linear_1074_623" x1="21.9596" y1="44.1052" x2="21.1887" y2="42.8995" gradientUnits="userSpaceOnUse">
<stop offset="0.312" stop-color="#FF611D"/>
<stop offset="1" stop-color="#FF611D" stop-opacity="0"/>
</linearGradient>
<linearGradient id="paint20_linear_1074_623" x1="29.1129" y1="36.5547" x2="33.066" y2="43.2256" gradientUnits="userSpaceOnUse">
<stop stop-color="#301619"/>
<stop offset="1" stop-color="#533532"/>
</linearGradient>
<radialGradient id="paint21_radial_1074_623" cx="0" cy="0" r="1" gradientUnits="userSpaceOnUse" gradientTransform="translate(32.4513 37.6675) rotate(90) scale(3.81168 3.12748)">
<stop stop-color="#3E232F"/>
<stop offset="1" stop-color="#3E232F" stop-opacity="0"/>
</radialGradient>
<linearGradient id="paint22_linear_1074_623" x1="8.73022" y1="25.9939" x2="20.0955" y2="42.3618" gradientUnits="userSpaceOnUse">
<stop stop-color="#FF7636"/>
<stop offset="1" stop-color="#FF7636" stop-opacity="0"/>
</linearGradient>
<linearGradient id="paint23_linear_1074_623" x1="4.44936" y1="6.14133" x2="4.46715" y2="10.0984" gradientUnits="userSpaceOnUse">
<stop stop-color="#331C1A"/>
<stop offset="1" stop-color="#331C1A" stop-opacity="0"/>
</linearGradient>
<linearGradient id="paint24_linear_1074_623" x1="7.25576" y1="5.29331" x2="7.30913" y2="9.96392" gradientUnits="userSpaceOnUse">
<stop stop-color="#331C1A"/>
<stop offset="1" stop-color="#331C1A" stop-opacity="0"/>
</linearGradient>
<linearGradient id="paint25_linear_1074_623" x1="10.7321" y1="6.47929" x2="10.7381" y2="9.33938" gradientUnits="userSpaceOnUse">
<stop stop-color="#331C1A"/>
<stop offset="1" stop-color="#331C1A" stop-opacity="0"/>
</linearGradient>
<radialGradient id="paint26_radial_1074_623" cx="0" cy="0" r="1" gradientUnits="userSpaceOnUse" gradientTransform="translate(43.5648 26.0571) rotate(69.6571) scale(5.03616 5.98257)">
<stop offset="0.215" stop-color="#3C3B3C"/>
<stop offset="1" stop-color="#221C27"/>
</radialGradient>
<radialGradient id="paint27_radial_1074_623" cx="0" cy="0" r="1" gradientUnits="userSpaceOnUse" gradientTransform="translate(18.2909 27.2035) rotate(17.4471) scale(3.61875 11.164)">
<stop stop-color="#463C39"/>
<stop offset="0.746" stop-color="#1B141E"/>
</radialGradient>
<radialGradient id="paint28_radial_1074_623" cx="0" cy="0" r="1" gradientUnits="userSpaceOnUse" gradientTransform="translate(39.0171 23.8573) rotate(180) scale(12.2237 21.6236)">
<stop stop-color="#563B38"/>
<stop offset="1" stop-color="#3C2828"/>
</radialGradient>
<linearGradient id="paint29_linear_1074_623" x1="44.5099" y1="27.7965" x2="34.3326" y2="27.7965" gradientUnits="userSpaceOnUse">
<stop stop-color="#563B38"/>
<stop offset="1" stop-color="#563B38" stop-opacity="0"/>
</linearGradient>
<radialGradient id="paint30_radial_1074_623" cx="0" cy="0" r="1" gradientUnits="userSpaceOnUse" gradientTransform="translate(36.1491 10.0292) rotate(94.7038) scale(29.1466 24.1368)">
<stop offset="0.767" stop-color="#432742" stop-opacity="0"/>
<stop offset="0.997" stop-color="#432742"/>
</radialGradient>
<radialGradient id="paint31_radial_1074_623" cx="0" cy="0" r="1" gradientUnits="userSpaceOnUse" gradientTransform="translate(38.1731 20.7877) rotate(-90) scale(2.68506 3.32276)">
<stop offset="0.325" stop-color="#432728"/>
<stop offset="1" stop-color="#432728" stop-opacity="0"/>
</radialGradient>
<radialGradient id="paint32_radial_1074_623" cx="0" cy="0" r="1" gradientUnits="userSpaceOnUse" gradientTransform="translate(27.0727 20.8964) rotate(-89.7942) scale(2.55864 2.7844)">
<stop offset="0.378" stop-color="#361E27"/>
<stop offset="1" stop-color="#361E27" stop-opacity="0"/>
</radialGradient>
<radialGradient id="paint33_radial_1074_623" cx="0" cy="0" r="1" gradientUnits="userSpaceOnUse" gradientTransform="translate(40.4762 26.165) rotate(176.388) scale(19.9048 50.8465)">
<stop offset="0.836" stop-color="#564440" stop-opacity="0"/>
<stop offset="1" stop-color="#564440"/>
</radialGradient>
<radialGradient id="paint34_radial_1074_623" cx="0" cy="0" r="1" gradientUnits="userSpaceOnUse" gradientTransform="translate(19.6665 13.7432) rotate(-33.0321) scale(11.3595 4.15836)">
<stop offset="0.38" stop-color="#231112"/>
<stop offset="1" stop-color="#231112" stop-opacity="0"/>
</radialGradient>
<radialGradient id="paint35_radial_1074_623" cx="0" cy="0" r="1" gradientUnits="userSpaceOnUse" gradientTransform="translate(45.4152 17.0342) rotate(95.3679) scale(5.86518 2.34456)">
<stop offset="0.245" stop-color="#6B5B59"/>
<stop offset="1" stop-color="#6B5B59" stop-opacity="0"/>
</radialGradient>
<radialGradient id="paint36_radial_1074_623" cx="0" cy="0" r="1" gradientUnits="userSpaceOnUse" gradientTransform="translate(38.1265 12.2164) rotate(121.159) scale(7.87729 6.50335)">
<stop offset="0.078" stop-color="#534445"/>
<stop offset="1" stop-color="#534445" stop-opacity="0"/>
</radialGradient>
<linearGradient id="paint37_linear_1074_623" x1="32.5616" y1="38.4739" x2="32.5616" y2="36.9777" gradientUnits="userSpaceOnUse">
<stop stop-color="#49201F"/>
<stop offset="1" stop-color="#49201F" stop-opacity="0"/>
</linearGradient>
<linearGradient id="paint38_linear_1074_623" x1="34.412" y1="25.4345" x2="32.4513" y2="25.5155" gradientUnits="userSpaceOnUse">
<stop offset="0.36" stop-color="#66514E"/>
<stop offset="1" stop-color="#66514E" stop-opacity="0"/>
</linearGradient>
<radialGradient id="paint39_radial_1074_623" cx="0" cy="0" r="1" gradientUnits="userSpaceOnUse" gradientTransform="translate(33.5424 27.0374) rotate(90) scale(0.570752 1.79381)">
<stop stop-color="#685554"/>
<stop offset="1" stop-color="#685554" stop-opacity="0"/>
</radialGradient>
<linearGradient id="paint40_linear_1074_623" x1="32.4513" y1="28.0969" x2="32.4513" y2="27.0098" gradientUnits="userSpaceOnUse">
<stop stop-color="#3E2230"/>
<stop offset="1" stop-color="#3E2230" stop-opacity="0"/>
</linearGradient>
<radialGradient id="paint41_radial_1074_623" cx="0" cy="0" r="1" gradientUnits="userSpaceOnUse" gradientTransform="translate(33.8152 25.707) rotate(155.369) scale(3.91274 6.28808)">
<stop offset="0.714" stop-color="#3E2B29" stop-opacity="0"/>
<stop offset="1" stop-color="#3F2C2A"/>
</radialGradient>
<linearGradient id="paint42_linear_1074_623" x1="32.4513" y1="21.1888" x2="32.4513" y2="23.0507" gradientUnits="userSpaceOnUse">
<stop stop-color="#4B302A"/>
<stop offset="1" stop-color="#4B302A" stop-opacity="0"/>
</linearGradient>
<linearGradient id="paint43_linear_1074_623" x1="29.6425" y1="31.7713" x2="30.3857" y2="29.8205" gradientUnits="userSpaceOnUse">
<stop stop-color="#584A4A"/>
<stop offset="1" stop-color="#40222D" stop-opacity="0"/>
</linearGradient>
<radialGradient id="paint44_radial_1074_623" cx="0" cy="0" r="1" gradientUnits="userSpaceOnUse" gradientTransform="translate(32.4507 32.1311) rotate(-90) scale(1.68522 6.78005)">
<stop stop-color="#290018"/>
<stop offset="1" stop-color="#290017"/>
</radialGradient>
<linearGradient id="paint45_linear_1074_623" x1="48.4727" y1="10.6162" x2="21.3207" y2="10.6162" gradientUnits="userSpaceOnUse">
<stop stop-color="#443D40"/>
<stop offset="1" stop-color="#272127"/>
</linearGradient>
<radialGradient id="paint46_radial_1074_623" cx="0" cy="0" r="1" gradientUnits="userSpaceOnUse" gradientTransform="translate(20.2237 17.0934) rotate(-90) scale(8.18675 20.7033)">
<stop offset="0.536" stop-color="#3E3433"/>
<stop offset="1" stop-color="#3E3433" stop-opacity="0"/>
</radialGradient>
<radialGradient id="paint47_radial_1074_623" cx="0" cy="0" r="1" gradientUnits="userSpaceOnUse" gradientTransform="translate(43.816 20.1571) rotate(-87.4013) scale(5.88083 10.4197)">
<stop stop-color="#4F4D4D"/>
<stop offset="1" stop-color="#4F4D4D" stop-opacity="0"/>
</radialGradient>
<radialGradient id="paint48_radial_1074_623" cx="0" cy="0" r="1" gradientUnits="userSpaceOnUse" gradientTransform="translate(42.0529 5.48112) rotate(-146.667) scale(6.60136 4.84574)">
<stop stop-color="#5E5A5B"/>
<stop offset="1" stop-color="#5E5A5B" stop-opacity="0"/>
</radialGradient>
<radialGradient id="paint49_radial_1074_623" cx="0" cy="0" r="1" gradientUnits="userSpaceOnUse" gradientTransform="translate(30.3338 1.75925) rotate(58.4653) scale(4.04636 9.36948)">
<stop offset="0.287" stop-color="#484646"/>
<stop offset="1" stop-color="#484646" stop-opacity="0"/>
</radialGradient>
<radialGradient id="paint50_radial_1074_623" cx="0" cy="0" r="1" gradientUnits="userSpaceOnUse" gradientTransform="translate(33.0437 7.04259) rotate(180) scale(5.14663 1.91011)">
<stop stop-color="#423C3F"/>
<stop offset="1" stop-color="#423C3F" stop-opacity="0"/>
</radialGradient>
<radialGradient id="paint51_radial_1074_623" cx="0" cy="0" r="1" gradientUnits="userSpaceOnUse" gradientTransform="translate(19.7533 16.2613) rotate(-57.7239) scale(14.0913 15.6117)">
<stop offset="0.093" stop-color="#0B0306"/>
<stop offset="0.311" stop-color="#1C0C20"/>
<stop offset="1" stop-color="#1C0C20" stop-opacity="0"/>
</radialGradient>
<radialGradient id="paint52_radial_1074_623" cx="0" cy="0" r="1" gradientUnits="userSpaceOnUse" gradientTransform="translate(36.5384 12.5078) rotate(6.66661) scale(7.64665 3.2015)">
<stop stop-color="#200E25"/>
<stop offset="1" stop-color="#200E25" stop-opacity="0"/>
</radialGradient>
<radialGradient id="paint53_radial_1074_623" cx="0" cy="0" r="1" gradientUnits="userSpaceOnUse" gradientTransform="translate(37.5541 21.7147) rotate(90) scale(1.89701 3.01742)">
<stop offset="0.802" stop-color="#7D574A"/>
<stop offset="1" stop-color="#664842"/>
</radialGradient>
<radialGradient id="paint54_radial_1074_623" cx="0" cy="0" r="1" gradientUnits="userSpaceOnUse" gradientTransform="translate(37.0197 21.9122) rotate(-127.812) scale(0.884511 1.21774)">
<stop offset="0.766" stop-color="#FFE6E2" stop-opacity="0"/>
<stop offset="0.966" stop-color="#FFE6E2"/>
</radialGradient>
<linearGradient id="paint55_linear_1074_623" x1="39.3725" y1="21.8412" x2="38.6392" y2="22.2918" gradientUnits="userSpaceOnUse">
<stop stop-color="#B4948D"/>
<stop offset="1" stop-color="#B4948D" stop-opacity="0"/>
</linearGradient>
<radialGradient id="paint56_radial_1074_623" cx="0" cy="0" r="1" gradientUnits="userSpaceOnUse" gradientTransform="translate(27.3491 21.7147) rotate(90) scale(1.89711 3.01756)">
<stop offset="0.802" stop-color="#7D574A"/>
<stop offset="1" stop-color="#664842"/>
</radialGradient>
<linearGradient id="paint57_linear_1074_623" x1="29.0885" y1="21.8391" x2="28.3552" y2="22.2917" gradientUnits="userSpaceOnUse">
<stop stop-color="#B4948D"/>
<stop offset="1" stop-color="#B4948D" stop-opacity="0"/>
</linearGradient>
<radialGradient id="paint58_radial_1074_623" cx="0" cy="0" r="1" gradientUnits="userSpaceOnUse" gradientTransform="translate(27.0279 22.1576) rotate(-118.811) scale(1.1554 1.38884)">
<stop offset="0.766" stop-color="#FFE6E2" stop-opacity="0"/>
<stop offset="0.966" stop-color="#FFE6E2"/>
</radialGradient>
<linearGradient id="paint59_linear_1074_623" x1="47.501" y1="21.9024" x2="44.6784" y2="26.992" gradientUnits="userSpaceOnUse">
<stop stop-color="#62504F"/>
<stop offset="1" stop-color="#492F32"/>
</linearGradient>
<radialGradient id="paint60_radial_1074_623" cx="0" cy="0" r="1" gradientUnits="userSpaceOnUse" gradientTransform="translate(43.2494 21.7482) rotate(74.3474) scale(5.44719 5.19703)">
<stop offset="0.856" stop-color="#301924" stop-opacity="0"/>
<stop offset="1" stop-color="#301924"/>
</radialGradient>
<radialGradient id="paint61_radial_1074_623" cx="0" cy="0" r="1" gradientUnits="userSpaceOnUse" gradientTransform="translate(44.0914 23.0192) rotate(-53.9202) scale(3.12773 2.62167)">
<stop offset="0.664" stop-color="#351B1E"/>
<stop offset="1" stop-color="#351B1E" stop-opacity="0"/>
</radialGradient>
<radialGradient id="paint62_radial_1074_623" cx="0" cy="0" r="1" gradientUnits="userSpaceOnUse" gradientTransform="translate(44.3582 23.4243) rotate(-69.2629) scale(3.8763 5.17926)">
<stop offset="0.803" stop-color="#361C1E" stop-opacity="0"/>
<stop offset="0.966" stop-color="#361C1E"/>
</radialGradient>
<linearGradient id="paint63_linear_1074_623" x1="18.7735" y1="23.5489" x2="22.1831" y2="23.2524" gradientUnits="userSpaceOnUse">
<stop stop-color="#372425"/>
<stop offset="1" stop-color="#281919"/>
</linearGradient>
<radialGradient id="paint64_radial_1074_623" cx="0" cy="0" r="1" gradientUnits="userSpaceOnUse" gradientTransform="translate(20.1452 22.1381) rotate(101.248) scale(4.94919 4.86551)">
<stop offset="0.775" stop-color="#301929" stop-opacity="0"/>
<stop offset="1" stop-color="#301929"/>
</radialGradient>
<radialGradient id="paint65_radial_1074_623" cx="0" cy="0" r="1" gradientUnits="userSpaceOnUse" gradientTransform="translate(20.9616 23.2504) rotate(170.26) scale(2.17423 0.958956)">
<stop stop-color="#2C1D22"/>
<stop offset="1" stop-color="#271416"/>
</radialGradient>
<linearGradient id="paint66_linear_1074_623" x1="45.1147" y1="21.011" x2="45.1147" y2="25.4602" gradientUnits="userSpaceOnUse">
<stop stop-color="#4C3838"/>
<stop offset="1" stop-color="#3E2724"/>
</linearGradient>
<linearGradient id="paint67_linear_1074_623" x1="2.0075" y1="6.36457" x2="2.83766" y2="11.5175" gradientUnits="userSpaceOnUse">
<stop stop-color="#645352"/>
<stop offset="1" stop-color="#645352" stop-opacity="0"/>
</linearGradient>
<linearGradient id="paint68_linear_1074_623" x1="-nan" y1="-nan" x2="-nan" y2="-nan" gradientUnits="userSpaceOnUse">
<stop stop-color="#645352"/>
<stop offset="1" stop-color="#645352" stop-opacity="0"/>
</linearGradient>
<linearGradient id="paint69_linear_1074_623" x1="9.14327" y1="3.42153" x2="8.56611" y2="11.3218" gradientUnits="userSpaceOnUse">
<stop stop-color="#645352"/>
<stop offset="1" stop-color="#645352" stop-opacity="0"/>
</linearGradient>
<linearGradient id="paint70_linear_1074_623" x1="9.14368" y1="3.42153" x2="8.56652" y2="11.3218" gradientUnits="userSpaceOnUse">
<stop stop-color="#645352"/>
<stop offset="1" stop-color="#645352" stop-opacity="0"/>
</linearGradient>
<linearGradient id="paint71_linear_1074_623" x1="4.25504" y1="10.2564" x2="2.56508" y2="9.99353" gradientUnits="userSpaceOnUse">
<stop stop-color="#645352"/>
<stop offset="1" stop-color="#645352" stop-opacity="0"/>
</linearGradient>
<linearGradient id="paint72_linear_1074_623" x1="7.08194" y1="9.71495" x2="5.96716" y2="9.43626" gradientUnits="userSpaceOnUse">
<stop stop-color="#645352"/>
<stop offset="1" stop-color="#645352" stop-opacity="0"/>
</linearGradient>
<linearGradient id="paint73_linear_1074_623" x1="9.96539" y1="9.33739" x2="8.85061" y2="9.05672" gradientUnits="userSpaceOnUse">
<stop stop-color="#645352"/>
<stop offset="1" stop-color="#645352" stop-opacity="0"/>
</linearGradient>
</defs>
</svg>
