<svg width="96" height="72" viewBox="0 0 96 72" fill="none" xmlns="http://www.w3.org/2000/svg">
<path d="M90 0H6C4.4087 0 2.88258 0.632141 1.75736 1.75736C0.632141 2.88258 0 4.4087 0 6V66C0 67.5913 0.632141 69.1174 1.75736 70.2426C2.88258 71.3679 4.4087 72 6 72H90C91.5913 72 93.1174 71.3679 94.2426 70.2426C95.3679 69.1174 96 67.5913 96 66V6C96 4.4087 95.3679 2.88258 94.2426 1.75736C93.1174 0.632141 91.5913 0 90 0ZM85.38 66H10.98L31.98 44.28L27.66 40.11L6 62.52V10.56L43.29 47.67C44.4142 48.7875 45.9349 49.4148 47.52 49.4148C49.1051 49.4148 50.6258 48.7875 51.75 47.67L90 9.63V62.13L67.92 40.05L63.69 44.28L85.38 66ZM9.93 6H85.14L47.52 43.41L9.93 6Z" fill="white"/>
</svg>
